<svg xmlns="http://www.w3.org/2000/svg" width="77" height="68" viewBox="0 0 77 68"><defs><linearGradient id="a" x1="98.485%" x2="1.517%" y1="98.128%" y2="1.876%"><stop offset="0%" stop-color="#FFC200"/><stop offset="100%" stop-color="#fea233"/></linearGradient></defs><g fill="none" fill-rule="evenodd"><path fill="#F5F5F5" d="M34.946 7.022S28.045-.532 19.348 2.889a1.821 1.821 0 0 0-1.135 1.473c-.254 2.059-.431 6.819 2.352 11.306 2.457 3.961 2.648 6.037 2.648 6.037s15.519-1.949 11.733-14.683"/><path fill="#4C4C4C" fill-rule="nonzero" d="M35.684 6.348a1 1 0 0 1 .22.389c1.961 6.595-.654 11.18-6.077 13.917a21.597 21.597 0 0 1-4.444 1.633c-.529.133-1.02.238-1.464.317-.27.05-.468.079-.582.093a1 1 0 0 1-1.12-.9c-.017-.178-.112-.61-.35-1.295-.42-1.197-1.115-2.635-2.152-4.307-2.396-3.863-2.97-8.103-2.495-11.955a2.82 2.82 0 0 1 1.762-2.282c4.728-1.86 9.305-.933 13.41 1.712a19.682 19.682 0 0 1 2.4 1.82c.426.377.726.676.892.858zm-2.22.637a17.703 17.703 0 0 0-2.155-1.634c-3.612-2.327-7.547-3.124-11.596-1.531a.821.821 0 0 0-.508.664c-.424 3.44.09 7.24 2.21 10.657 1.112 1.794 1.87 3.363 2.339 4.7.092.263.167.5.229.715.286-.059.59-.128.911-.209a19.631 19.631 0 0 0 4.032-1.478c4.565-2.305 6.658-5.895 5.127-11.333a13.573 13.573 0 0 0-.588-.55z"/><path fill="#FFF" d="M75.019 23.208c.894-4.02-1.482-7.386-2.82-8.901-.215-.244-.604-.09-.614.236-.043 1.409-1.463 2.405-3.107 3.089C63.217 11.135 54.262 6.73 40.846 6.73c-16.156 0-29.93 10.79-32.943 23.517-.381 1.606-1.836 2.724-3.486 2.724h-.001a2.418 2.418 0 0 0-2.408 2.618l.819 9.812a2.416 2.416 0 0 0 2.408 2.216h2.978c1.37 0 2.673.646 3.46 1.769 1.803 2.57 4.133 4.858 6.944 6.765a5.734 5.734 0 0 1 2.494 4.286l.335 4.178a2.416 2.416 0 0 0 2.408 2.225h10.199a2.417 2.417 0 0 0 2.408-2.208l.124-1.43a1.131 1.131 0 0 1 1.19-1.034 50.54 50.54 0 0 0 3.07.095c2.8 0 5.4-.172 7.817-.492a1.138 1.138 0 0 1 1.29 1.025l.16 1.836a2.417 2.417 0 0 0 2.408 2.208h10.199c1.26 0 2.309-.97 2.409-2.225l.62-7.738c.096-1.204.652-2.315 1.517-3.158 4.913-4.796 7.145-11.23 7.145-18.307 0-3.02-.413-5.996-1.26-8.825.838-.793 1.536-1.881 1.869-3.38"/><path fill="#4C4C4C" fill-rule="nonzero" d="M70.585 14.512c.038-1.217 1.54-1.802 2.363-.867 2.442 2.764 3.862 6.116 3.047 9.78-.303 1.365-.892 2.51-1.723 3.442a31.95 31.95 0 0 1 1.138 8.546c0 7.607-2.495 14.188-7.447 19.023-.71.692-1.144 1.584-1.218 2.521l-.62 7.738a3.417 3.417 0 0 1-3.406 3.146h-10.2a3.416 3.416 0 0 1-3.402-3.122l-.16-1.837c-2.671.213-5.317.382-8.111.382a51.55 51.55 0 0 1-3.132-.097c-.043-.003-.129.515-.257 1.553a3.417 3.417 0 0 1-3.404 3.12h-10.2a3.416 3.416 0 0 1-3.404-3.144l-.335-4.178a4.734 4.734 0 0 0-2.059-3.539c-2.888-1.96-5.313-4.326-7.201-7.018-.59-.842-1.579-1.343-2.641-1.343H5.235a3.416 3.416 0 0 1-3.405-3.133l-.819-9.813a3.418 3.418 0 0 1 3.405-3.7c1.2 0 2.243-.812 2.514-1.955C10.15 16.416 24.7 5.731 40.846 5.731c12.556 0 22.005 3.806 27.911 10.674 1.182-.595 1.809-1.252 1.828-1.893zm-1.723 4.043a1 1 0 0 1-1.161-.294C62.239 11.516 53.19 7.73 40.846 7.73c-15.247 0-28.97 10.078-31.97 22.747-.487 2.052-2.34 3.494-4.46 3.494-.828 0-1.48.709-1.412 1.534l.82 9.813a1.416 1.416 0 0 0 1.41 1.299h2.979c1.707 0 3.31.813 4.279 2.194 1.746 2.491 3.996 4.687 6.686 6.512a6.734 6.734 0 0 1 2.93 5.034l.335 4.178a1.416 1.416 0 0 0 1.41 1.305h10.2c.735 0 1.348-.563 1.412-1.295l.124-1.43a2.131 2.131 0 0 1 2.247-1.946c1.013.062 2.014.094 3.01.094a58.59 58.59 0 0 0 7.685-.484 2.138 2.138 0 0 1 2.418 1.93l.16 1.836a1.417 1.417 0 0 0 1.41 1.295h10.2c.738 0 1.353-.569 1.412-1.305l.62-7.738c.114-1.43.765-2.77 1.815-3.794 4.547-4.438 6.844-10.5 6.844-17.591 0-2.955-.408-5.832-1.217-8.539a1 1 0 0 1 .27-1.012c.774-.734 1.313-1.673 1.58-2.871.558-2.512-.247-4.933-1.807-7.05-.554 1.085-1.74 1.934-3.374 2.614z"/><path fill="#FFF" d="M34.778 14.713s-8.083-8.847-18.268-4.84a2.136 2.136 0 0 0-1.33 1.724c-.297 2.413-.504 7.986 2.756 13.242 2.877 4.64 3.1 7.07 3.1 7.07"/><path fill="#4C4C4C" d="M14.19 31.752c0 2.02-.545 3.66-1.22 3.66-.674 0-1.22-1.64-1.22-3.66 0-2.022.546-3.662 1.22-3.662.675 0 1.22 1.64 1.22 3.662"/><path fill="#4C4C4C" fill-rule="nonzero" d="M36.503 11.65c.055-.02.178-.06.363-.113.319-.092.689-.185 1.105-.273 2.966-.62 6.249-.6 9.48.487a1 1 0 1 0 .638-1.895c-3.609-1.216-7.24-1.238-10.528-.55a13.98 13.98 0 0 0-1.732.461 1 1 0 0 0 .674 1.883z"/><path fill="#FFF" d="M34.778 14.713s-8.083-8.847-18.268-4.84a2.136 2.136 0 0 0-1.33 1.724c-.297 2.413-.504 7.986 2.756 13.242 2.877 4.64 3.1 7.07 3.1 7.07"/><path fill="#4C4C4C" fill-rule="nonzero" d="M35.516 14.039c-.19-.209-.538-.555-1.031-.992a22.896 22.896 0 0 0-2.79-2.115c-4.766-3.071-10.072-4.145-15.551-1.99a3.136 3.136 0 0 0-1.957 2.533c-.551 4.48.116 9.405 2.899 13.891 1.22 1.97 2.04 3.664 2.535 5.078.285.814.4 1.334.42 1.556a1 1 0 0 0 1.991-.183c-.035-.386-.185-1.067-.523-2.034-.544-1.554-1.427-3.38-2.723-5.47-2.507-4.041-3.114-8.526-2.614-12.593.05-.413.324-.768.704-.917 4.799-1.888 9.462-.943 13.735 1.81a20.908 20.908 0 0 1 2.546 1.93c.257.227.48.438.67.626.11.11.18.184.212.219a1 1 0 1 0 1.477-1.35z"/><path fill="url(#a)" d="M37.931 41.436a.93.93 0 0 1 1.189-.225c.856.496 2.403 1.256 3.863 1.256 2.114 0 3.844-1.263 3.844-3.349 0-4.694-9.718-3.734-9.718-9.608 0-2.525 2.004-4.72 5.051-5.105v-1.208a.768.768 0 1 1 1.537 0v1.153c1.209.065 2.409.555 3.193.95a.924.924 0 0 1 .348 1.335.92.92 0 0 1-1.174.324c-.721-.353-1.88-.825-2.945-.825-2.497 0-4.062 1.62-4.062 3.322 0 4.446 9.718 3.375 9.718 9.607 0 2.663-1.921 4.86-5.078 5.161v1.152a.769.769 0 1 1-1.537 0v-1.152c-1.543-.119-3.045-.846-3.967-1.384a.938.938 0 0 1-.262-1.404"/></g></svg>