<svg width="20" height="20" viewBox="0 0 20 20" fill="none" xmlns="http://www.w3.org/2000/svg"><circle cx="10" cy="9" r="4" stroke="#8C96A1" stroke-width="1.25"/><path d="M15.2178 17.334L15.5805 17.843C15.7253 17.7398 15.8193 17.5799 15.8389 17.4032C15.8586 17.2265 15.8021 17.0498 15.6835 16.9173L15.2178 17.334ZM4.78174 17.3336L4.31601 16.9168C4.19745 17.0493 4.14092 17.226 4.16057 17.4027C4.18022 17.5794 4.27418 17.7393 4.41895 17.8425L4.78174 17.3336ZM14.855 16.8251C13.4857 17.8011 11.8108 18.375 10.0001 18.375V19.625C12.0794 19.625 14.0064 18.9649 15.5805 17.843L14.855 16.8251ZM10.0001 18.375C8.18905 18.375 6.51399 17.8009 5.14453 16.8247L4.41895 17.8425C5.99324 18.9648 7.92047 19.625 10.0001 19.625V18.375ZM5.24747 17.7504C6.41568 16.445 8.11145 15.625 9.99957 15.625V14.375C7.74109 14.375 5.71131 15.3577 4.31601 16.9168L5.24747 17.7504ZM9.99957 15.625C11.8879 15.625 13.5838 16.4452 14.752 17.7508L15.6835 16.9173C14.2882 15.3579 12.2583 14.375 9.99957 14.375V15.625Z" fill="#8C96A1"/><circle cx="10" cy="10" r="9" stroke="#8C96A1" stroke-width="1.25"/></svg>