<svg height="25" viewBox="0 0 32 25" width="32" xmlns="http://www.w3.org/2000/svg"><g fill="#fea233"><path d="m26.4 3.913h1.919c2.422 0 3.681 1.183 3.681 3.247v13.55c0 2.1-1.274 3.464-3.681 3.464h-24.638c-2.407 0-3.681-1.363-3.681-3.464v-13.55c0-2.052 1.244-3.247 3.609-3.247h7.978l1.624-2.162c.704-1.058 1.653-1.75 2.789-1.75h6.522c1.136 0 2.085.692 2.789 1.75l.061.107 1.029 2.055zm-2.787-1.102c-.362-.526-.761-.81-1.091-.81h-6.522c-.34 0-.753.3-1.156.904l-1.957 2.608a1 1 0 0 1 -.8.4h-8.478c-1.278 0-1.609.318-1.609 1.247v13.55c0 1.026.41 1.464 1.681 1.464h24.638c1.27 0 1.681-.439 1.681-1.464v-13.55c0-.93-.337-1.247-1.681-1.247h-2.536a1 1 0 0 1 -.894-.552z"/><path d="m23.478 13.392a4.218 4.218 0 1 0 -8.437 0 4.218 4.218 0 0 0 8.437 0zm2 0a6.218 6.218 0 1 1 -12.436-.003 6.218 6.218 0 0 1 12.436.003zm-18.956-3.913a.957.957 0 1 0 -1.915 0 .957.957 0 0 0 1.915 0zm2 0a2.957 2.957 0 1 1 -5.914-.003 2.957 2.957 0 0 1 5.914.003z"/></g></svg>