<svg height="232" viewBox="0 0 454 232" width="454" xmlns="http://www.w3.org/2000/svg" xmlns:xlink="http://www.w3.org/1999/xlink"><linearGradient id="a" x1="98.485%" x2="1.517%" y1="98.128%" y2="1.876%"><stop offset="0" stop-color="#ffc200"/><stop offset="1" stop-color="#fea233"/></linearGradient><g fill="none" fill-rule="evenodd"><path d="m121.698 21.761 10.349 12.152-17.142 1.888z" fill="#e8e8e8"/><path d="m116.592 34.61 13.47-1.484-8.132-9.55-5.338 11.033zm5.867-13.497 10.35 12.152a1 1 0 0 1 -.653 1.642l-17.142 1.888a1 1 0 0 1 -1.01-1.43l6.794-14.04a1 1 0 0 1 1.661-.212z" fill="#4c4c4c" fill-rule="nonzero"/><path d="m114.665 4.463 75.317 27.115-60.143 13.97z" fill="#f8f8f8"/><path d="m116.347 6.13 14.124 38.245 55.983-13.005zm-1.344-2.608 75.317 27.115c.938.337.859 1.689-.112 1.915l-60.143 13.97a1 1 0 0 1 -1.164-.627l-15.174-41.086a1 1 0 0 1 1.276-1.287z" fill="#4c4c4c" fill-rule="nonzero"/><path d="m189.982 31.578-68.236-7.942" fill="#fff"/><path d="m190.097 30.584-68.235-7.942-.231 1.987 68.235 7.942z" fill="#4c4c4c" fill-rule="nonzero"/><path d="m108.279 66.703c-20.48 0-38.091 12.604-45.264 30.553-.237.593-.96.834-1.48.464-4.318-3.074-9.551-4.922-15.232-4.922-14.418 0-26.095 11.678-26.095 26.095 0 2.005.2 3.909.647 5.755.11.454.528.769.995.769h133.528a1.03 1.03 0 0 0 1.016-.832 48.8 48.8 0 0 0 .814-8.953c0-27.01-21.92-48.93-48.93-48.93m70.055 89.938a21.87 21.87 0 0 0 -14.75-5.678c-3.293 0-6.376.72-9.17 1.998a1.006 1.006 0 0 1 -1.328-.466c-5.111-10.219-16.008-17.048-28.42-16.214-14.105.947-25.718 12.088-27.275 26.142a29.706 29.706 0 0 0 1.704 13.692c.148.4.534.66.959.66h114.823c.22-1.18.332-2.435.332-3.688 0-12.206-9.92-22.125-22.125-22.125a21.87 21.87 0 0 0 -14.75 5.68z" fill="#fff" opacity=".8"/><path d="m318.884 23.214v12.983s-2.517 1.358-7.236 1.358-7.496-2.527-12.584-3.31c-4.645-.717-6.607.594-6.607.594v-13.307s1.993-2.443 5.034-2.443c6.502 0 11.455 6.63 21.393 4.125z" fill="url(#a)"/><path d="m.393 34.709c.553.421 1.131.816 1.736 1.186a1 1 0 1 0 1.043-1.706 18.42 18.42 0 0 1 -1.565-1.07 1 1 0 0 0 -1.214 1.59zm5.5 3.032c.635.247 1.29.472 1.963.676a1 1 0 1 0 .58-1.914 25.592 25.592 0 0 1 -1.821-.627 1 1 0 1 0 -.722 1.865zm5.99 1.612c.664.113 1.342.21 2.033.29a1 1 0 1 0 .23-1.988c-.656-.076-1.3-.167-1.93-.273a1 1 0 1 0 -.334 1.971zm6.157.57c.67.017 1.35.02 2.038.01a1 1 0 1 0 -.03-2 50.76 50.76 0 0 1 -1.96-.009 1 1 0 1 0 -.048 2zm6.09-.19a66.73 66.73 0 0 0 2.02-.198 1 1 0 1 0 -.225-1.987 61.8 61.8 0 0 1 -1.96.192 1 1 0 1 0 .164 1.993zm6.028-.767a77.82 77.82 0 0 0 1.992-.365 1 1 0 1 0 -.386-1.962 75.82 75.82 0 0 1 -1.941.356 1 1 0 1 0 .335 1.971zm5.973-1.254a87.83 87.83 0 0 0 1.959-.516 1 1 0 0 0 -.533-1.927c-.632.174-1.27.342-1.911.502a1 1 0 0 0 .485 1.94zm5.817-1.688c.651-.217 1.29-.44 1.915-.667a1 1 0 1 0 -.684-1.88c-.607.222-1.229.438-1.863.649a1 1 0 0 0 .632 1.898zm5.71-2.19a1 1 0 1 1 -.811-1.828 42.268 42.268 0 0 0 1.767-.832 1 1 0 0 1 .896 1.789c-.581.29-1.2.582-1.852.871zm5.42-3.003c.126-.096.246-.19.36-.284.427-.351.841-.718 1.243-1.102a1 1 0 1 0 -1.38-1.447c-.367.35-.744.684-1.133 1.004a9.245 9.245 0 0 1 -.296.233 1 1 0 1 0 1.206 1.596zm4.361-4.533c.411-.561.798-1.14 1.158-1.735a1 1 0 0 0 -1.71-1.037 21.89 21.89 0 0 1 -1.062 1.591 1 1 0 1 0 1.614 1.181zm3.005-5.498c.252-.658.471-1.322.656-1.99a1 1 0 1 0 -1.927-.534c-.168.606-.367 1.21-.596 1.808a1 1 0 0 0 1.867.716zm1.36-6.2c.04-.711.039-1.418-.005-2.117a1 1 0 1 0 -1.996.124c.039.62.04 1.248.004 1.882a1 1 0 0 0 1.997.112zm-.804-6.283a15.631 15.631 0 0 0 -.825-2.003 1 1 0 0 0 -1.792.889l.09.186c.242.506.452 1.027.629 1.56a1 1 0 1 0 1.898-.633zm-3.418-5.531a8.53 8.53 0 0 0 -1.894-1.298 1 1 0 1 0 -.896 1.787 6.516 6.516 0 0 1 1.453.998 1 1 0 1 0 1.337-1.487zm-6.289-2.28c-.725.004-1.457.08-2.18.224a1 1 0 0 0 .392 1.962 9.482 9.482 0 0 1 1.8-.186 1 1 0 0 0 -.012-2zm-6.217 1.83c-.61.379-1.19.81-1.738 1.29a1 1 0 0 0 1.318 1.504c.466-.408.958-.774 1.474-1.094a1 1 0 0 0 -1.054-1.7zm-4.514 4.588c-.373.6-.708 1.23-1.002 1.883a1 1 0 1 0 1.824.821 14.13 14.13 0 0 1 .877-1.649 1 1 0 1 0 -1.7-1.055zm-2.25 5.993c-.118.702-.191 1.41-.219 2.117a1 1 0 0 0 1.999.077c.024-.62.088-1.243.193-1.862a1 1 0 1 0 -1.973-.332zm.186 6.354c.158.686.357 1.363.597 2.032a1 1 0 1 0 1.883-.674 16.084 16.084 0 0 1 -.53-1.807 1 1 0 0 0 -1.95.45zm2.462 5.853a21.3 21.3 0 0 0 1.199 1.72 1 1 0 0 0 1.584-1.221 19.665 19.665 0 0 1 -1.09-1.561 1 1 0 0 0 -1.693 1.062zm4.045 4.792a1 1 0 0 1 1.343-1.482c.471.427.963.836 1.473 1.227a1 1 0 0 1 -1.216 1.588 25.165 25.165 0 0 1 -1.6-1.333zm5.076 3.575a1 1 0 1 1 .946-1.762l.342.18c.456.235.919.458 1.39.668a1 1 0 1 1 -.815 1.827 29.352 29.352 0 0 1 -1.863-.913zm5.74 2.347c.65.195 1.311.373 1.985.535a1 1 0 0 0 .467-1.945 34.491 34.491 0 0 1 -1.877-.506 1 1 0 1 0 -.575 1.916zm6.017 1.29c.665.092 1.341.17 2.028.237a1 1 0 0 0 .193-1.99 46.71 46.71 0 0 1 -1.946-.229 1 1 0 1 0 -.275 1.981zm6.114.483c.594.016 1.196.023 1.806.024h.232a1 1 0 1 0 -.005-2h-.226c-.593 0-1.178-.008-1.755-.023a1 1 0 0 0 -.052 1.999zm6.09-.094a77.608 77.608 0 0 0 2.02-.138 1 1 0 0 0 -.162-1.994c-.656.054-1.312.099-1.968.135a1 1 0 1 0 .11 1.997zm6.057-.574c.669-.09 1.337-.188 2.004-.295a1 1 0 1 0 -.317-1.974c-.65.104-1.301.2-1.953.287a1 1 0 0 0 .266 1.982zm6.006-1.043c.66-.141 1.319-.29 1.976-.449a1 1 0 1 0 -.468-1.944c-.64.154-1.282.3-1.926.437a1 1 0 0 0 .418 1.956zm5.878-1.494c.647-.191 1.292-.39 1.935-.598a1 1 0 1 0 -.616-1.903c-.626.202-1.254.397-1.885.583a1 1 0 0 0 .566 1.918zm5.776-1.95a79 79 0 0 0 1.884-.745 1 1 0 0 0 -.76-1.85 77 77 0 0 1 -1.836.726 1 1 0 0 0 .712 1.87zm5.617-2.393a78.38 78.38 0 0 0 1.82-.889 1 1 0 1 0 -.902-1.785c-.587.296-1.178.585-1.773.866a1 1 0 1 0 .855 1.808zm5.352-2.788a76.974 76.974 0 0 0 1.746-1.029 1 1 0 0 0 -1.037-1.71c-.562.342-1.13.676-1.701 1.002a1 1 0 1 0 .992 1.737z" fill="#4c4c4c" fill-rule="nonzero"/><path d="m178.307 230.517h228.215v-98.278h-228.215z" fill="#fff"/><path d="m178.307 231.517a1 1 0 0 1 -1-1v-98.278a1 1 0 0 1 1-1h228.215a1 1 0 0 1 1 1v98.278a1 1 0 0 1 -1 1zm1-2h226.215v-96.278h-226.215z" fill="#4c4c4c" fill-rule="nonzero"/><path d="m249.357 132.239h-81.341l29.964-27.566h188.87l29.963 27.566h-82.423z" fill="#cacaca"/><path d="m170.58 131.239 27.79-25.566h188.09l27.79 25.566h-164.893v2h167.456c.912 0 1.348-1.12.678-1.736l-29.964-27.566a1 1 0 0 0 -.678-.264h-188.869a1 1 0 0 0 -.677.264l-29.964 27.566c-.67.617-.234 1.736.678 1.736h81.34v-2z" fill="#4c4c4c" fill-rule="nonzero"/><g fill="#e8e8e8"><path d="m235.727 153.887h-4.189v-6.742h12.688v6.742h-4.245z"/><path d="m232.538 148.145h10.688v4.742h-7.499v2h8.5a1 1 0 0 0 1-1v-6.742a1 1 0 0 0 -1-1h-12.689a1 1 0 0 0 -1 1v6.742a1 1 0 0 0 1 1h4.19v-2h-3.19z" fill-rule="nonzero"/><path d="m236.541 211.341h-2.606v-57.529h7.894v57.53h-2.64z"/><path d="m234.935 154.812h5.894v55.53h-4.288v2h5.288a1 1 0 0 0 1-1v-57.53a1 1 0 0 0 -1-1h-7.894a1 1 0 0 0 -1 1v57.53a1 1 0 0 0 1 1h2.606v-2h-1.606z" fill-rule="nonzero"/><path d="m254.903 153.887h-4.189v-6.742h12.688v6.742h-4.244z"/><path d="m251.714 148.145h10.688v4.742h-7.499v2h8.5a1 1 0 0 0 1-1v-6.742a1 1 0 0 0 -1-1h-12.689a1 1 0 0 0 -1 1v6.742a1 1 0 0 0 1 1h4.19v-2h-3.19z" fill-rule="nonzero"/><path d="m255.718 211.341h-2.607v-57.529h7.894v57.53h-2.64z"/><path d="m254.11 154.812h5.895v55.53h-4.287v2h5.287a1 1 0 0 0 1-1v-57.53a1 1 0 0 0 -1-1h-7.894a1 1 0 0 0 -1 1v57.53a1 1 0 0 0 1 1h2.607v-2h-1.607v-55.53z" fill-rule="nonzero"/><path d="m287.208 176.584h-10.126v-7.438c0-8.47 6.865-15.333 15.333-15.333s15.333 6.864 15.333 15.333v7.438z"/></g><path d="m278.082 169.146c0-7.917 6.417-14.333 14.333-14.333s14.333 6.416 14.333 14.333v6.438h-19.54v2h20.54a1 1 0 0 0 1-1v-7.438c0-9.021-7.313-16.333-16.333-16.333-9.021 0-16.333 7.312-16.333 16.333v7.438a1 1 0 0 0 1 1h10.126v-2h-9.126z" fill="#4c4c4c" fill-rule="nonzero"/><path d="m293.414 176.584v-22.771a1 1 0 1 0 -2 0v22.77a1 1 0 1 0 2 0z" fill="#4c4c4c" fill-rule="nonzero"/><path d="m278.28 167.396h28.268a1 1 0 1 0 0-2h-28.268a1 1 0 1 0 0 2z" fill="#4c4c4c" fill-rule="nonzero"/><path d="m371.104 176.584h-10.126v-7.438c0-8.47 6.865-15.333 15.333-15.333s15.333 6.864 15.333 15.333v7.438z" fill="#e8e8e8"/><path d="m361.978 169.146c0-7.917 6.417-14.333 14.333-14.333s14.333 6.416 14.333 14.333v6.438h-19.54v2h20.54a1 1 0 0 0 1-1v-7.438c0-9.021-7.312-16.333-16.333-16.333-9.02 0-16.333 7.312-16.333 16.333v7.438a1 1 0 0 0 1 1h10.126v-2h-9.126z" fill="#4c4c4c" fill-rule="nonzero"/><path d="m377.311 176.584v-22.771a1 1 0 1 0 -2 0v22.77a1 1 0 1 0 2 0z" fill="#4c4c4c" fill-rule="nonzero"/><path d="m362.177 167.396h28.267a1 1 0 1 0 0-2h-28.267a1 1 0 1 0 0 2z" fill="#4c4c4c" fill-rule="nonzero"/><path d="m371.104 210.142h-10.126v-7.438c0-8.469 6.865-15.333 15.333-15.333s15.333 6.864 15.333 15.333v7.438z" fill="#e8e8e8"/><path d="m361.978 202.704c0-7.916 6.417-14.333 14.333-14.333s14.333 6.417 14.333 14.333v6.438h-19.54v2h20.54a1 1 0 0 0 1-1v-7.438c0-9.02-7.312-16.333-16.333-16.333-9.02 0-16.333 7.312-16.333 16.333v7.438a1 1 0 0 0 1 1h10.126v-2h-9.126z" fill="#4c4c4c" fill-rule="nonzero"/><path d="m377.311 210.142v-22.77a1 1 0 1 0 -2 0v22.77a1 1 0 1 0 2 0z" fill="#4c4c4c" fill-rule="nonzero"/><path d="m362.177 200.955h28.267a1 1 0 1 0 0-2h-28.267a1 1 0 1 0 0 2z" fill="#4c4c4c" fill-rule="nonzero"/><path d="m203.311 176.584h-10.126v-7.438c0-8.47 6.865-15.333 15.333-15.333s15.333 6.864 15.333 15.333v7.438z" fill="#e8e8e8"/><path d="m194.185 169.146c0-7.917 6.417-14.333 14.333-14.333s14.333 6.416 14.333 14.333v6.438h-19.54v2h20.54a1 1 0 0 0 1-1v-7.438c0-9.021-7.312-16.333-16.333-16.333-9.02 0-16.333 7.312-16.333 16.333v7.438a1 1 0 0 0 1 1h10.126v-2h-9.126z" fill="#4c4c4c" fill-rule="nonzero"/><path d="m209.518 176.584v-22.771a1 1 0 1 0 -2 0v22.77a1 1 0 1 0 2 0z" fill="#4c4c4c" fill-rule="nonzero"/><path d="m194.384 167.396h28.267a1 1 0 1 0 0-2h-28.267a1 1 0 1 0 0 2z" fill="#4c4c4c" fill-rule="nonzero"/><path d="m203.311 210.142h-10.126v-7.438c0-8.469 6.865-15.333 15.333-15.333s15.333 6.864 15.333 15.333v7.438z" fill="#e8e8e8"/><path d="m194.185 202.704c0-7.916 6.417-14.333 14.333-14.333s14.333 6.417 14.333 14.333v6.438h-19.54v2h20.54a1 1 0 0 0 1-1v-7.438c0-9.02-7.312-16.333-16.333-16.333-9.02 0-16.333 7.312-16.333 16.333v7.438a1 1 0 0 0 1 1h10.126v-2h-9.126z" fill="#4c4c4c" fill-rule="nonzero"/><path d="m209.518 210.142v-22.77a1 1 0 1 0 -2 0v22.77a1 1 0 1 0 2 0z" fill="#4c4c4c" fill-rule="nonzero"/><path d="m194.384 200.955h28.267a1 1 0 1 0 0-2h-28.267a1 1 0 1 0 0 2z" fill="#4c4c4c" fill-rule="nonzero"/><path d="m292.167 17.774v32.438" fill="#cacaca"/><path d="m291.167 17.774v32.438a1 1 0 1 0 2 0v-32.438a1 1 0 1 0 -2 0z" fill="#4c4c4c" fill-rule="nonzero"/><path d="m292.167 42.35c-15.886 0-28.765 12.878-28.765 28.764v5.992h57.53v-5.992c0-15.886-12.88-28.765-28.765-28.765" fill="#fff"/><path d="m292.167 41.35c16.438 0 29.765 13.326 29.765 29.764v5.992a1 1 0 0 1 -1 1h-57.53a1 1 0 0 1 -1-1v-5.992c0-16.438 13.326-29.765 29.765-29.765zm27.765 29.764c0-15.334-12.432-27.765-27.765-27.765-15.334 0-27.765 12.431-27.765 27.765v4.992h55.53z" fill="#4c4c4c" fill-rule="nonzero"/><path d="m281.51 104.672h-21.208v-36.594h64.224v36.594h-21.48z" fill="#cacaca"/><path d="m261.302 69.078h62.224v34.594h-42.016v2h43.017a1 1 0 0 0 1-1v-36.594a1 1 0 0 0 -1-1h-64.224a1 1 0 0 0 -1 1v36.594a1 1 0 0 0 1 1h21.207v-2h-20.207v-34.594z" fill="#4c4c4c" fill-rule="nonzero"/><path d="m280.695 104.672h-22.79v-6.74h69.02v6.74h-23.087z" fill="#e8e8e8"/><path d="m258.904 98.931h67.02v4.741h-45.229v2h46.23a1 1 0 0 0 1-1v-6.74a1 1 0 0 0 -1-1h-69.02a1 1 0 0 0 -1 1v6.74a1 1 0 0 0 1 1h22.79v-2h-21.79v-4.74z" fill="#4c4c4c" fill-rule="nonzero"/><g fill="#e8e8e8"><path d="m235.727 224.525h-4.189v-13.661h12.688v13.661h-4.245z"/><path d="m232.538 211.864h10.688v11.661h-7.499v2h8.5a1 1 0 0 0 1-1v-13.661a1 1 0 0 0 -1-1h-12.689a1 1 0 0 0 -1 1v13.661a1 1 0 0 0 1 1h4.19v-2h-3.19z" fill-rule="nonzero"/><path d="m254.903 224.525h-4.189v-13.661h12.688v13.661h-4.244z"/><path d="m251.714 211.864h10.688v11.661h-7.499v2h8.5a1 1 0 0 0 1-1v-13.661a1 1 0 0 0 -1-1h-12.689a1 1 0 0 0 -1 1v13.661a1 1 0 0 0 1 1h4.19v-2h-3.19z" fill-rule="nonzero"/><path d="m313.631 153.887h-4.19v-6.742h12.688v6.742h-4.244z"/><path d="m310.441 148.145h10.688v4.742h-7.498v2h8.498a1 1 0 0 0 1-1v-6.742a1 1 0 0 0 -1-1h-12.688a1 1 0 0 0 -1 1v6.742a1 1 0 0 0 1 1h4.19v-2h-3.19z" fill-rule="nonzero"/><path d="m314.445 211.341h-2.607v-57.529h7.894v57.53h-2.64z"/><path d="m312.838 154.812h5.894v55.53h-4.287v2h5.287a1 1 0 0 0 1-1v-57.53a1 1 0 0 0 -1-1h-7.894a1 1 0 0 0 -1 1v57.53a1 1 0 0 0 1 1h2.607v-2h-1.607z" fill-rule="nonzero"/><path d="m332.808 153.887h-4.19v-6.742h12.688v6.742h-4.244z"/><path d="m329.618 148.145h10.688v4.742h-7.498v2h8.498a1 1 0 0 0 1-1v-6.742a1 1 0 0 0 -1-1h-12.688a1 1 0 0 0 -1 1v6.742a1 1 0 0 0 1 1h4.19v-2h-3.19z" fill-rule="nonzero"/><path d="m333.622 211.341h-2.607v-57.529h7.894v57.53h-2.64z"/><path d="m332.015 154.812h5.894v55.53h-4.287v2h5.287a1 1 0 0 0 1-1v-57.53a1 1 0 0 0 -1-1h-7.894a1 1 0 0 0 -1 1v57.53a1 1 0 0 0 1 1h2.607v-2h-1.607z" fill-rule="nonzero"/><path d="m313.631 224.525h-4.19v-13.661h12.688v13.661h-4.244z"/><path d="m310.441 211.864h10.688v11.661h-7.498v2h8.498a1 1 0 0 0 1-1v-13.661a1 1 0 0 0 -1-1h-12.688a1 1 0 0 0 -1 1v13.661a1 1 0 0 0 1 1h4.19v-2h-3.19z" fill-rule="nonzero"/><path d="m332.808 224.525h-4.19v-13.661h12.688v13.661h-4.244z"/><path d="m329.618 211.864h10.688v11.661h-7.498v2h8.498a1 1 0 0 0 1-1v-13.661a1 1 0 0 0 -1-1h-12.688a1 1 0 0 0 -1 1v13.661a1 1 0 0 0 1 1h4.19v-2h-3.19z" fill-rule="nonzero"/><path d="m241.72 153.887h-4.19v-6.742h12.689v6.742h-4.245z"/></g><path d="m238.53 148.145h10.689v4.742h-7.5v2h8.5a1 1 0 0 0 1-1v-6.742a1 1 0 0 0 -1-1h-12.689a1 1 0 0 0 -1 1v6.742a1 1 0 0 0 1 1h4.189v-2h-3.19v-4.742z" fill="#4c4c4c" fill-rule="nonzero"/><path d="m242.534 211.341h-2.606v-57.529h7.894v57.53h-2.641z" fill="#e8e8e8"/><path d="m240.928 154.812h5.894v55.53h-4.288v2h5.288a1 1 0 0 0 1-1v-57.53a1 1 0 0 0 -1-1h-7.894a1 1 0 0 0 -1 1v57.53a1 1 0 0 0 1 1h2.606v-2h-1.606z" fill="#4c4c4c" fill-rule="nonzero"/><path d="m260.896 153.887h-4.189v-6.742h12.688v6.742h-4.244z" fill="#e8e8e8"/><path d="m257.707 148.145h10.688v4.742h-7.499v2h8.5a1 1 0 0 0 1-1v-6.742a1 1 0 0 0 -1-1h-12.689a1 1 0 0 0 -1 1v6.742a1 1 0 0 0 1 1h4.19v-2h-3.19z" fill="#4c4c4c" fill-rule="nonzero"/><path d="m261.71 211.341h-2.606v-57.529h7.894v57.53h-2.64z" fill="#e8e8e8"/><path d="m260.104 154.812h5.894v55.53h-4.288v2h5.288a1 1 0 0 0 1-1v-57.53a1 1 0 0 0 -1-1h-7.894a1 1 0 0 0 -1 1v57.53a1 1 0 0 0 1 1h2.606v-2h-1.606z" fill="#4c4c4c" fill-rule="nonzero"/><path d="m241.72 224.525h-4.19v-13.661h12.689v13.661h-4.245z" fill="#e8e8e8"/><path d="m238.53 211.864h10.689v11.661h-7.5v2h8.5a1 1 0 0 0 1-1v-13.661a1 1 0 0 0 -1-1h-12.689a1 1 0 0 0 -1 1v13.661a1 1 0 0 0 1 1h4.189v-2h-3.19v-11.661z" fill="#4c4c4c" fill-rule="nonzero"/><path d="m260.896 224.525h-4.189v-13.661h12.688v13.661h-4.244z" fill="#e8e8e8"/><path d="m257.707 211.864h10.688v11.661h-7.499v2h8.5a1 1 0 0 0 1-1v-13.661a1 1 0 0 0 -1-1h-12.689a1 1 0 0 0 -1 1v13.661a1 1 0 0 0 1 1h4.19v-2h-3.19z" fill="#4c4c4c" fill-rule="nonzero"/><path d="m291.074 97.481h-2.606v-22.771h7.894v22.771h-2.641z" fill="#e8e8e8"/><path d="m289.468 75.71h5.894v20.771h-4.288v2h5.288a1 1 0 0 0 1-1v-22.771a1 1 0 0 0 -1-1h-7.894a1 1 0 0 0 -1 1v22.771a1 1 0 0 0 1 1h2.606v-2h-1.606z" fill="#4c4c4c" fill-rule="nonzero"/><path d="m276.991 97.481h-2.606v-22.771h7.894v22.771h-2.64z" fill="#e8e8e8"/><path d="m275.385 75.71h5.894v20.771h-4.288v2h5.288a1 1 0 0 0 1-1v-22.771a1 1 0 0 0 -1-1h-7.894a1 1 0 0 0 -1 1v22.771a1 1 0 0 0 1 1h2.606v-2h-1.606z" fill="#4c4c4c" fill-rule="nonzero"/><path d="m262.909 97.481h-2.606v-22.771h7.893v22.771h-2.64z" fill="#e8e8e8"/><path d="m261.303 75.71h5.893v20.771h-4.287v2h5.287a1 1 0 0 0 1-1v-22.771a1 1 0 0 0 -1-1h-7.893a1 1 0 0 0 -1 1v22.771a1 1 0 0 0 1 1h2.606v-2h-1.606z" fill="#4c4c4c" fill-rule="nonzero"/><path d="m305.157 97.481h-2.607v-22.771h7.894v22.771h-2.64z" fill="#e8e8e8"/><path d="m303.55 75.71h5.894v20.771h-4.287v2h5.287a1 1 0 0 0 1-1v-22.771a1 1 0 0 0 -1-1h-7.894a1 1 0 0 0 -1 1v22.771a1 1 0 0 0 1 1h2.607v-2h-1.607z" fill="#4c4c4c" fill-rule="nonzero"/><path d="m319.24 97.481h-2.607v-22.771h7.893v22.771h-2.64z" fill="#e8e8e8"/><path d="m317.633 75.71h5.893v20.771h-4.287v2h5.287a1 1 0 0 0 1-1v-22.771a1 1 0 0 0 -1-1h-7.893a1 1 0 0 0 -1 1v22.771a1 1 0 0 0 1 1h2.606v-2h-1.606z" fill="#4c4c4c" fill-rule="nonzero"/><path d="m280.695 74.82h-22.79v-6.741h69.02v6.74h-23.087z" fill="#e8e8e8"/><path d="m258.904 69.079h67.02v4.74h-45.229v2h46.23a1 1 0 0 0 1-1v-6.74a1 1 0 0 0 -1-1h-69.02a1 1 0 0 0 -1 1v6.74a1 1 0 0 0 1 1h22.79v-2h-21.79v-4.74z" fill="#4c4c4c" fill-rule="nonzero"/><path d="m292.414 110.74-65.67 35.956h131.341z" fill="#f8f8f8"/><path d="m291.934 109.863a1 1 0 0 1 .96 0l65.671 35.956c.908.497.555 1.877-.48 1.877h-131.342c-1.035 0-1.388-1.38-.48-1.877zm-61.282 35.833h123.525l-61.763-33.816z" fill="#4c4c4c" fill-rule="nonzero"/><path d="m254.852 139.505 37.563-20.566 37.562 20.566z" fill="#e8e8e8"/><path d="m326.068 138.505-33.653-18.426-33.655 18.426zm-71.697.122 37.563-20.566a1 1 0 0 1 .96 0l37.563 20.566c.908.498.555 1.877-.48 1.877h-75.125c-1.036 0-1.389-1.38-.48-1.877z" fill="#4c4c4c" fill-rule="nonzero"/><path d="m319.624 153.887h-4.19v-6.742h12.689v6.742h-4.244z" fill="#e8e8e8"/><path d="m316.435 148.145h10.688v4.742h-7.5v2h8.5a1 1 0 0 0 1-1v-6.742a1 1 0 0 0 -1-1h-12.688a1 1 0 0 0 -1 1v6.742a1 1 0 0 0 1 1h4.189v-2h-3.19v-4.742z" fill="#4c4c4c" fill-rule="nonzero"/><path d="m320.438 211.341h-2.607v-57.529h7.894v57.53h-2.64z" fill="#e8e8e8"/><path d="m318.831 154.812h5.894v55.53h-4.287v2h5.287a1 1 0 0 0 1-1v-57.53a1 1 0 0 0 -1-1h-7.894a1 1 0 0 0 -1 1v57.53a1 1 0 0 0 1 1h2.607v-2h-1.607z" fill="#4c4c4c" fill-rule="nonzero"/><path d="m319.624 224.525h-4.19v-13.661h12.689v13.661h-4.244z" fill="#e8e8e8"/><path d="m316.435 211.864h10.688v11.661h-7.5v2h8.5a1 1 0 0 0 1-1v-13.661a1 1 0 0 0 -1-1h-12.688a1 1 0 0 0 -1 1v13.661a1 1 0 0 0 1 1h4.189v-2h-3.19v-11.661z" fill="#4c4c4c" fill-rule="nonzero"/><path d="m338.8 153.887h-4.19v-6.742h12.688v6.742h-4.244z" fill="#e8e8e8"/><path d="m335.61 148.145h10.688v4.742h-7.498v2h8.498a1 1 0 0 0 1-1v-6.742a1 1 0 0 0 -1-1h-12.688a1 1 0 0 0 -1 1v6.742a1 1 0 0 0 1 1h4.19v-2h-3.19z" fill="#4c4c4c" fill-rule="nonzero"/><path d="m339.614 211.341h-2.607v-57.529h7.894v57.53h-2.64z" fill="#e8e8e8"/><path d="m338.007 154.812h5.894v55.53h-4.287v2h5.287a1 1 0 0 0 1-1v-57.53a1 1 0 0 0 -1-1h-7.894a1 1 0 0 0 -1 1v57.53a1 1 0 0 0 1 1h2.607v-2h-1.607z" fill="#4c4c4c" fill-rule="nonzero"/><path d="m338.8 224.525h-4.19v-13.661h12.688v13.661h-4.244z" fill="#e8e8e8"/><path d="m335.61 211.864h10.688v11.661h-7.498v2h8.498a1 1 0 0 0 1-1v-13.661a1 1 0 0 0 -1-1h-12.688a1 1 0 0 0 -1 1v13.661a1 1 0 0 0 1 1h4.19v-2h-3.19z" fill="#4c4c4c" fill-rule="nonzero"/><path d="m287.208 225.723h-10.126v-26.615c0-8.468 6.865-15.333 15.333-15.333s15.333 6.865 15.333 15.333v26.615z" fill="#cacaca"/><path d="m278.082 199.108c0-7.916 6.417-14.333 14.333-14.333 7.915 0 14.333 6.417 14.333 14.333v25.615h-19.54v2h20.54a1 1 0 0 0 1-1v-26.615c0-9.02-7.313-16.333-16.333-16.333s-16.333 7.313-16.333 16.333v26.615a1 1 0 0 0 1 1h10.126v-2h-9.126z" fill="#4c4c4c" fill-rule="nonzero"/><path d="m293.414 225.723v-41.948a1 1 0 1 0 -2 0v41.948a1 1 0 1 0 2 0zm4.795-19.101v-3.67a1 1 0 1 0 -2 0v3.67a1 1 0 1 0 2 0zm-9.589 0v-3.67a1 1 0 1 0 -2 0v3.67a1 1 0 1 0 2 0z" fill="#4c4c4c" fill-rule="nonzero"/><path d="m226.743 230.517h131.342v-6.741h-131.342z" fill="#f8f8f8"/><path d="m226.743 231.517a1 1 0 0 1 -1-1v-6.741a1 1 0 0 1 1-1h131.342a1 1 0 0 1 1 1v6.741a1 1 0 0 1 -1 1zm130.342-2v-4.741h-129.342v4.741z" fill="#4c4c4c" fill-rule="nonzero"/><path d="m443.208 198.118c0 8.543-6 12.656-12 12.656s-12-4.113-12-12.656 5-17.344 12-17.344 12 8.8 12 17.344" fill="#cacaca"/><path d="m442.208 198.118c0-8.614-5.027-16.344-11-16.344-5.974 0-11 7.73-11 16.344 0 7.236 4.744 11.656 11 11.656 6.255 0 11-4.42 11-11.656zm2 0c0 8.373-5.67 13.656-13 13.656s-13-5.283-13-13.656c0-9.584 5.696-18.344 13-18.344 7.303 0 13 8.76 13 18.344z" fill="#4c4c4c" fill-rule="nonzero"/><path d="m173.208 218.118c0 8.543-6 12.656-12 12.656s-12-4.113-12-12.656 8-17.601 12-17.344 12 8.8 12 17.344" fill="#cacaca"/><path d="m172.208 218.118c0-7.147-6.9-16.079-11.065-16.346-3.876-.25-10.935 9.07-10.935 16.346 0 7.236 4.744 11.656 11 11.656 6.255 0 11-4.42 11-11.656zm2 0c0 8.373-5.67 13.656-13 13.656s-13-5.283-13-13.656c0-8.308 7.854-18.677 13.064-18.342 5.308.34 12.936 10.214 12.936 18.342zm256-28.344v41a1 1 0 1 0 2 0v-41a1 1 0 1 0 -2 0z" fill="#4c4c4c" fill-rule="nonzero"/><path d="m431.925 202.203-4-4.125a1 1 0 0 0 -1.435 1.392l4 4.125a1 1 0 0 0 1.435-1.392zm0-2.608 4-4.125a1 1 0 0 0 -1.435-1.392l-4 4.125a1 1 0 0 0 1.435 1.392z" fill="#4c4c4c" fill-rule="nonzero"/><path d="m432.148 230.774h-15.88c.49-3.95 3.86-7 7.94-7s7.45 3.05 7.94 7" fill="#cacaca"/><path d="m424.208 224.774a7.004 7.004 0 0 0 -6.714 5h13.427a7.004 7.004 0 0 0 -6.713-5zm7.94 7h-15.88a1 1 0 0 1 -.993-1.123c.556-4.48 4.378-7.877 8.933-7.877 4.554 0 8.376 3.396 8.932 7.877a1 1 0 0 1 -.992 1.123z" fill="#4c4c4c" fill-rule="nonzero"/><path d="m394.208 223.774c1.54 0 2.94.58 4 1.54a5.93 5.93 0 0 1 4-1.54c.99 0 1.91.24 2.73.66a7.99 7.99 0 0 1 7.27-4.66c4.42 0 8 3.58 8 8a8.09 8.09 0 0 1 -.58 3h-31.33a5.47 5.47 0 0 1 -.09-1c0-3.311 2.69-6 6-6" fill="#e8e8e8"/><path d="m419.208 227.774c0-3.868-3.133-7-7-7a6.989 6.989 0 0 0 -6.361 4.077 1 1 0 0 1 -1.365.473 4.948 4.948 0 0 0 -2.274-.55 4.93 4.93 0 0 0 -3.33 1.281 1 1 0 0 1 -1.342 0 4.93 4.93 0 0 0 -3.328-1.281c-2.758 0-5 2.242-5 5h29.709c.192-.649.29-1.319.29-2zm-7-9c4.972 0 9 4.028 9 9a9.086 9.086 0 0 1 -.651 3.37 1 1 0 0 1 -.93.63h-31.33a1 1 0 0 1 -.982-.816 6.468 6.468 0 0 1 -.107-1.184c0-3.863 3.137-7 7-7a6.93 6.93 0 0 1 4 1.262 6.928 6.928 0 0 1 4-1.262c.786 0 1.549.13 2.274.38a8.99 8.99 0 0 1 7.726-4.38z" fill="#4c4c4c" fill-rule="nonzero"/><path d="m438.708 221.774c3.21 0 5.96 2.02 7.01 4.87a3.999 3.999 0 0 1 6.49 3.13c0 .351-.04.68-.13 1h-20.72a7.502 7.502 0 0 1 7.35-9" fill="#e8e8e8"/><path d="m448.208 226.774a3.02 3.02 0 0 0 -1.874.658 1 1 0 0 1 -1.555-.442 6.466 6.466 0 0 0 -6.071-4.216 6.502 6.502 0 0 0 -6.482 7h18.982a3 3 0 0 0 -3-3zm0-2a5 5 0 0 1 5 5c0 .448-.054.866-.168 1.27a1 1 0 0 1 -.962.73h-20.72a1 1 0 0 1 -.98-.796 8.502 8.502 0 0 1 8.329-10.204 8.473 8.473 0 0 1 7.459 4.438 4.97 4.97 0 0 1 2.042-.438z" fill="#4c4c4c" fill-rule="nonzero"/><path d="m140.208 229.274c0 .51-.04 1.01-.12 1.5h-18.76a9.496 9.496 0 0 1 9.38-11c5.25 0 9.5 4.25 9.5 9.5" fill="#cacaca"/><path d="m139.208 229.274c0-4.698-3.803-8.5-8.5-8.5a8.496 8.496 0 0 0 -8.486 9h16.971c.01-.165.015-.332.015-.5zm2 0c0 .564-.045 1.117-.133 1.661a1 1 0 0 1 -.987.839h-18.76a1 1 0 0 1 -.987-.839 10.496 10.496 0 0 1 10.367-12.161c5.802 0 10.5 4.698 10.5 10.5z" fill="#4c4c4c" fill-rule="nonzero"/><path d="m150.708 221.774c-3.21 0-5.96 2.02-7.01 4.87a3.999 3.999 0 0 0 -6.49 3.13c0 .35.04.68.13 1h20.72a7.502 7.502 0 0 0 -7.35-9" fill="#e8e8e8"/><path d="m150.708 220.774a8.502 8.502 0 0 1 8.329 10.204 1 1 0 0 1 -.98.796h-20.72a1 1 0 0 1 -.962-.73 4.649 4.649 0 0 1 -.167-1.27 4.999 4.999 0 0 1 7.041-4.562 8.473 8.473 0 0 1 7.459-4.438zm6.5 8.5c0-3.588-2.912-6.5-6.5-6.5a6.466 6.466 0 0 0 -6.072 4.216 1 1 0 0 1 -1.555.442 2.999 2.999 0 0 0 -4.874 2.342h18.982c.012-.165.019-.332.019-.5z" fill="#4c4c4c" fill-rule="nonzero"/><path d="m190.208 223.774c-1.54 0-2.94.58-4 1.54a5.93 5.93 0 0 0 -4-1.54c-.99 0-1.91.24-2.73.66a7.99 7.99 0 0 0 -7.27-4.66c-4.42 0-8 3.58-8 8 0 1.061.21 2.07.58 3h31.33c.06-.32.09-.66.09-1 0-3.311-2.69-6-6-6" fill="#e8e8e8"/><g fill="#4c4c4c" fill-rule="nonzero"><path d="m190.208 222.774c3.862 0 7 3.137 7 7 0 .403-.036.805-.108 1.184a1 1 0 0 1 -.982.816h-31.33a1 1 0 0 1 -.93-.63 9.086 9.086 0 0 1 -.65-3.37c0-4.972 4.027-9 9-9a8.99 8.99 0 0 1 7.725 4.38 6.936 6.936 0 0 1 2.275-.38 6.93 6.93 0 0 1 4 1.262 6.928 6.928 0 0 1 4-1.262zm0 2a4.93 4.93 0 0 0 -3.33 1.281 1 1 0 0 1 -1.342 0 4.93 4.93 0 0 0 -3.328-1.281c-.803 0-1.57.189-2.275.55a1 1 0 0 1 -1.365-.473 6.989 6.989 0 0 0 -6.36-4.077 6.998 6.998 0 0 0 -6.71 9h29.71c0-2.758-2.242-5-5-5zm-167-118c.114 0 .344.013.649.054.51.068 1.017.19 1.48.374 1.212.486 1.87 1.276 1.87 2.572a1 1 0 1 0 2 0c0-2.204-1.216-3.664-3.128-4.428a7.979 7.979 0 0 0 -2.871-.572 1 1 0 1 0 0 2z"/><path d="m33.208 104.774c-.741 0-1.794.14-2.872.572-1.912.764-3.128 2.224-3.128 4.428a1 1 0 1 0 2 0c0-1.296.658-2.086 1.871-2.572a6.24 6.24 0 0 1 1.48-.374c.304-.04.534-.054.649-.054a1 1 0 1 0 0-2zm-29-20c.114 0 .344.013.649.054.51.068 1.017.19 1.48.374 1.212.486 1.87 1.276 1.87 2.572a1 1 0 0 0 2 0c0-2.204-1.216-3.664-3.128-4.428a7.979 7.979 0 0 0 -2.871-.572 1 1 0 0 0 0 2z"/><path d="m14.208 82.774c-.741 0-1.794.14-2.872.572-1.912.764-3.128 2.224-3.128 4.428a1 1 0 0 0 2 0c0-1.296.658-2.086 1.871-2.572a6.24 6.24 0 0 1 1.48-.374c.304-.04.534-.054.649-.054a1 1 0 0 0 0-2zm161-8c.114 0 .344.013.649.054.51.068 1.017.19 1.48.374 1.212.486 1.87 1.276 1.87 2.572a1 1 0 1 0 2 0c0-2.204-1.216-3.664-3.128-4.428a7.979 7.979 0 0 0 -2.871-.572 1 1 0 1 0 0 2z"/><path d="m185.208 72.774c-.741 0-1.794.14-2.872.572-1.912.764-3.128 2.224-3.128 4.428a1 1 0 1 0 2 0c0-1.296.658-2.086 1.871-2.572a6.24 6.24 0 0 1 1.48-.374c.304-.04.534-.054.649-.054a1 1 0 1 0 0-2z"/></g></g></svg>