<svg xmlns="http://www.w3.org/2000/svg" width="100" height="61" viewBox="0 0 100 61"><defs><linearGradient id="a" x1="98.485%" x2="1.517%" y1="98.128%" y2="1.876%"><stop offset="0%" stop-color="#FFC200"/><stop offset="100%" stop-color="#fea233"/></linearGradient></defs><g fill="none" fill-rule="evenodd"><path fill="#F5F5F5" d="M8.5 54.21V8.735A7.737 7.737 0 0 1 16.234 1H83.16a7.736 7.736 0 0 1 7.736 7.736V54.21H8.5z"/><path fill="#4C4C4C" fill-rule="nonzero" d="M9.5 53.21h80.396V8.735A6.736 6.736 0 0 0 83.16 2H16.235A6.737 6.737 0 0 0 9.5 8.736V53.21zm-2 1V8.735A8.737 8.737 0 0 1 16.234 0H83.16a8.736 8.736 0 0 1 8.736 8.736V54.21a1 1 0 0 1-1 1H8.5a1 1 0 0 1-1-1z"/><path fill="#FFF" d="M84.275 54.442H15.12V10.358a2.735 2.735 0 0 1 2.737-2.736H81.54a2.736 2.736 0 0 1 2.735 2.736v44.084z"/><path fill="#4C4C4C" fill-rule="nonzero" d="M83.275 10.358c0-.96-.777-1.736-1.736-1.736H17.857c-.959 0-1.736.776-1.736 1.736v43.084h67.156V10.358zm1 45.084H15.12a1 1 0 0 1-1-1V10.358a3.735 3.735 0 0 1 3.737-3.736H81.54a3.736 3.736 0 0 1 3.735 3.736v44.084a1 1 0 0 1-1 1z"/><path fill="#F5F5F5" d="M93.894 59.644H5.502A4.502 4.502 0 0 1 1 55.142v-1.44h97.396v1.44a4.502 4.502 0 0 1-4.502 4.502"/><path fill="#4C4C4C" fill-rule="nonzero" d="M2 55.142a3.502 3.502 0 0 0 3.502 3.502h88.392a3.502 3.502 0 0 0 3.502-3.502v-.44H2v.44zm91.894 5.502H5.502A5.502 5.502 0 0 1 0 55.142v-1.44a1 1 0 0 1 1-1h97.396a1 1 0 0 1 1 1v1.44a5.502 5.502 0 0 1-5.502 5.502z"/><path fill="url(#a)" fill-rule="nonzero" d="M37.507 35.385a16.126 16.126 0 0 1 12.163-5.516 16.13 16.13 0 0 1 12.216 5.577 1 1 0 1 0 1.51-1.312A18.13 18.13 0 0 0 49.67 27.87a18.125 18.125 0 0 0-13.667 6.198 1 1 0 0 0 1.504 1.318zm5.956 6.297a8.244 8.244 0 0 1 6.22-2.821 8.247 8.247 0 0 1 6.248 2.852 1 1 0 0 0 1.51-1.31 10.246 10.246 0 0 0-7.758-3.542 10.244 10.244 0 0 0-7.724 3.502 1 1 0 1 0 1.504 1.319z"/><path fill="url(#a)" fill-rule="nonzero" d="M30.562 28.98a25.31 25.31 0 0 1 19.093-8.66 25.31 25.31 0 0 1 19.175 8.756 1 1 0 0 0 1.511-1.31 27.31 27.31 0 0 0-20.686-9.446 27.31 27.31 0 0 0-20.597 9.342 1 1 0 1 0 1.504 1.319z"/><path fill="#4C4C4C" d="M50.948 4.236a1.25 1.25 0 1 1-2.5-.001 1.25 1.25 0 0 1 2.5 0"/></g></svg>