<svg fill="none" height="51" viewBox="0 0 323 51" width="323" xmlns="http://www.w3.org/2000/svg" xmlns:xlink="http://www.w3.org/1999/xlink"><linearGradient id="a" gradientUnits="userSpaceOnUse" x1="7.99771" x2="43.002" y1="7.99744" y2="43.0022"><stop offset="0" stop-color="#ffc100"/><stop offset="1" stop-color="#ffa300"/></linearGradient><g clip-rule="evenodd" fill-rule="evenodd"><g fill="#3c4043"><path d="m77.1459 14.9771c-1.6244 0-3.7041 2.0781-3.7041 5.6927v1.7647c-1.0829-.6837-2.3363-1.0534-3.9035-1.0534-4.4462 0-7.8938 3.5013-7.8938 7.8271 0 4.3259 3.3055 7.8266 7.8649 7.8266 2.1942 0 3.9324-.797 5.0719-1.8786.7409 1.0253 1.6817 1.594 2.4791 1.594.6276 0 .9408-.3416.9408-1.1098v-19.6387c0-.6825-.3132-1.0246-.8553-1.0246zm-7.2944 17.9596c-2.1942 0-3.5903-1.5946-3.5903-3.7285 0-2.1344 1.3961-3.729 3.5903-3.729s3.5903 1.5946 3.5903 3.729c0 2.1339-1.3961 3.7285-3.5903 3.7285zm24.9906-10.9864h-1.5388c-1.1113 0-1.51.4554-1.51 1.5083v5.6352c0 2.2771-1.1691 3.6152-3.0495 3.6152-1.9376 0-2.935-1.2812-2.935-3.6715v-5.5789c0-1.1098-.4559-1.5083-1.5105-1.5083h-1.5389c-1.054 0-1.51.3985-1.51 1.5083v5.6921c0 4.867 2.4508 7.8841 6.7542 7.8841 1.9087 0 3.618-.74 4.8154-2.0488.7125 1.138 1.71 1.7642 2.5929 1.7642.5415 0 .9408-.3416.9408-1.1098v-12.1818c0-1.1098-.4559-1.5083-1.5106-1.5083zm12.1389 15.0845c4.617 0 8.065-3.5007 8.065-7.8266 0-4.4403-3.448-7.8271-8.065-7.8271-4.588 0-8.0643 3.5013-8.0643 7.8271 0 4.4397 3.4763 7.8266 8.0643 7.8266zm0-4.0981c-2.08 0-3.448-1.5946-3.448-3.7285 0-2.1344 1.368-3.729 3.448-3.729 2.109 0 3.448 1.5946 3.448 3.729 0 2.1339-1.339 3.7285-3.448 3.7285zm12.082 3.5288h1.539c1.054 0 1.51-.3985 1.51-1.5082v-18.8705c0-.7676-.313-1.1097-.94-1.1097-1.539 0-3.619 2.0781-3.619 5.6927v14.2875c0 1.1097.455 1.5082 1.51 1.5082zm8.862-16.5927c1.396 0 2.564-1.0822 2.564-2.4479 0-1.3656-1.168-2.4478-2.564-2.4478-1.425 0-2.565 1.0822-2.565 2.4478 0 1.3657 1.14 2.4479 2.565 2.4479zm-.769 16.5927h1.538c1.112 0 1.51-.4554 1.51-1.5082v-11.4987c0-1.0529-.398-1.5083-1.51-1.5083h-1.538c-1.112 0-1.511.4554-1.511 1.5083v11.4987c0 1.0528.399 1.5082 1.511 1.5082zm15.046-15.0844c-1.881 0-3.677.7688-4.93 2.1063-.742-1.1955-1.738-1.8217-2.594-1.8217-.627 0-.94.3416-.94 1.1098v12.1818c0 1.1097.456 1.5082 1.511 1.5082h1.538c1.111 0 1.511-.4554 1.511-1.5082v-5.6352c0-2.2483 1.31-3.6152 3.248-3.6152 1.966 0 2.991 1.3093 2.991 3.6715v5.5789c0 1.1097.457 1.5082 1.511 1.5082h1.539c1.054 0 1.51-.3985 1.51-1.5082v-5.8066c0-4.7525-2.422-7.7696-6.895-7.7696zm21.997 10.5878c1.34-.9965 2.166-2.5048 2.166-4.2408 0-.7119-.142-1.3662-.427-1.9924 1.51-.7401 2.081-2.1063 2.081-3.3869 0-1.2812-.514-1.6509-1.255-1.3093-2.678 1.2236-3.049 1.2805-4.815.9678-1.112-.1996-1.91-.3416-2.993-.3416-1.994 0-3.619.6262-4.987 1.7647-1.281 1.081-1.937 2.6468-1.937 4.2977 0 1.736.798 3.2443 2.166 4.2408-1.795.939-3.049 2.9314-3.049 5.2936 0 3.8992 3.134 6.603 8.035 6.603 5.13 0 8.066-2.9884 8.066-6.8876 0-2.3622-1.255-4.1269-3.051-5.009zm-5.015-6.6029c1.653 0 2.68.8533 2.68 2.5611 0 1.3662-1.141 2.5617-2.68 2.5617-1.538 0-2.65-1.1955-2.65-2.5617 0-1.5934 1.055-2.5611 2.65-2.5611zm0 14.7429c-1.994 0-3.476-1.2812-3.476-2.9315 0-1.8216 1.396-2.9314 3.476-2.9314 2.109 0 3.505 1.1098 3.505 2.9314 0 1.6791-1.453 2.9315-3.505 2.9315zm17.81-3.0741c4.617 0 8.065-3.5007 8.065-7.8266 0-4.4403-3.448-7.8271-8.065-7.8271-4.588 0-8.064 3.5013-8.064 7.8271 0 4.4397 3.476 7.8266 8.064 7.8266zm0-4.0981c-2.08 0-3.447-1.5946-3.447-3.7285 0-2.1344 1.367-3.729 3.447-3.729 2.109 0 3.448 1.5946 3.448 3.729 0 2.1339-1.339 3.7285-3.448 3.7285z"/><path d="m200.945 27.6332c.114 0 .17-.0563.17-.1696 0-.6225-.056-1.103-.198-1.5272-.455-1.3583-1.593-2.1222-3.129-2.1222-1.535 0-2.673.7639-3.128 2.1222-.142.4242-.199.9047-.199 1.5272 0 .1133.057.1696.171.1696zm-8.474 4.5829c-.284-.8484-.455-1.8106-.455-3.4223 0-1.613.142-2.5752.427-3.4236.767-2.3481 2.729-3.6495 5.317-3.6495 2.673 0 4.607 1.3014 5.347 3.6213.312.9047.454 1.9514.454 3.2816 0 .5374-.37.9053-.938.9053h-7.991c-.114 0-.171.0563-.171.1696 0 .6507.057 1.1036.228 1.6411.511 1.556 1.763 2.3481 3.441 2.3481 1.336 0 2.246-.3967 3.27-1.16.285-.2265.54-.3397.825-.3397.568 0 .995.4248.995.9904 0 .3391-.142.6219-.369.8484-1.166 1.0749-2.788 1.8669-4.892 1.8669-2.816 0-4.72-1.3007-5.488-3.6776z"/><path d="m206.52 23.1635c0-.7921.511-1.2732 1.193-1.2732.683 0 1.195.4811 1.195 1.2732v.3954h.028c.655-1.0461 1.963-1.8382 3.811-1.8382 2.958 0 4.721 2.0084 4.721 5.0922v7.6381c0 .7921-.512 1.2738-1.195 1.2738-.682 0-1.194-.4817-1.194-1.2738v-7.0725c0-2.1785-.996-3.4517-3.043-3.4517-1.848 0-3.128 1.302-3.128 3.3103v7.2139c0 .7921-.512 1.2738-1.195 1.2738-.682 0-1.193-.4817-1.193-1.2738z"/><path d="m228.81 31.1131c.227-.6501.313-1.4146.313-2.5458 0-1.1037-.086-1.867-.313-2.5177-.483-1.4146-1.422-2.1222-2.901-2.1222s-2.417.7076-2.901 2.1222c-.227.6507-.313 1.414-.313 2.5177 0 1.1312.086 1.8957.313 2.5458.484 1.4152 1.422 2.1222 2.901 2.1222s2.418-.707 2.901-2.1222zm.313-7.6099v-.3391c0-.7921.512-1.2732 1.194-1.2732.683 0 1.195.4811 1.195 1.2732v11.7398c0 4.0462-2.162 6.0827-5.945 6.0827-1.791 0-3.497-.7352-4.321-1.6123-.228-.2265-.342-.5093-.342-.764 0-.6225.455-1.1036 1.081-1.1036.341 0 .654.142.966.3679.769.5662 1.707.9053 2.702.9053 2.191 0 3.47-1.0749 3.47-3.6776v-1.4716h-.029c-.682 1.1318-1.82 1.7825-3.81 1.7825-2.276 0-3.897-1.2444-4.579-3.3666-.313-.9617-.455-1.9802-.455-3.4793s.142-2.5177.455-3.4799c.682-2.1216 2.303-3.3667 4.579-3.3667 2.019 0 3.156.7639 3.81 1.7825z"/><path d="m238.561 35.7247c-2.446 0-3.327-1.1881-3.327-3.6213v-14.6266c0-.7914.512-1.2732 1.195-1.2732.682 0 1.194.4818 1.194 1.2732v14.4852c0 1.1312.369 1.556 1.308 1.556.683 0 1.109.4524 1.109 1.1031s-.426 1.1036-1.223 1.1036z"/><path d="m242.342 23.1639c0-.7921.512-1.2732 1.195-1.2732s1.195.4811 1.195 1.2732v11.2875c0 .7921-.512 1.2738-1.195 1.2738s-1.195-.4817-1.195-1.2738zm-.369-5.4032c0-.8778.711-1.5566 1.564-1.5566s1.564.6788 1.564 1.5566c0 .8484-.711 1.5554-1.564 1.5554s-1.564-.707-1.564-1.5554z"/><path d="m248.17 34.3947c-.37-.2547-.568-.5944-.568-.9898 0-.5663.454-1.0755 1.108-1.0755.228 0 .456.0569.797.2546 1.109.6507 2.275 1.1881 3.81 1.1881 1.963 0 2.987-.8484 2.987-2.0365 0-1.1318-.512-1.6974-2.674-1.9239l-1.422-.1414c-2.673-.2828-4.066-1.6405-4.066-3.819 0-2.5746 1.848-4.1306 5.034-4.1306 1.592 0 3.013.396 4.066.9904.483.2547.71.5656.71.9898 0 .5656-.454 1.0186-1.023 1.0186-.228 0-.484-.0563-.853-.2265-.91-.4242-1.934-.707-3.015-.707-1.705 0-2.587.7639-2.587 1.867 0 1.0755.626 1.6404 2.673 1.8394l1.422.1408c2.844.3115 4.095 1.6411 4.095 3.8478 0 2.659-1.934 4.4127-5.546 4.4127-2.076 0-3.81-.707-4.948-1.499z"/><path d="m261.559 17.4768c0-.7921.512-1.2732 1.194-1.2732.683 0 1.195.4811 1.195 1.2732v6.0827h.028c.654-1.0468 1.962-1.8388 3.811-1.8388 2.957 0 4.72 2.0083 4.72 5.0922v7.638c0 .7921-.512 1.2738-1.194 1.2738-.683 0-1.195-.4817-1.195-1.2738v-7.0724c0-2.1786-.995-3.4518-3.042-3.4518-1.849 0-3.128 1.302-3.128 3.3104v7.2138c0 .7921-.512 1.2738-1.195 1.2738-.682 0-1.194-.4817-1.194-1.2738z"/><path d="m286.266 35.7246c-2.787 0-3.811-1.1606-3.811-3.9892v-7.6099c0-.1139-.057-.1702-.171-.1702h-.768c-.653 0-1.024-.396-1.024-.9616 0-.5662.371-.9617 1.024-.9617h.768c.114 0 .171-.0569.171-.1695v-2.9706c0-.7927.512-1.2732 1.194-1.2732s1.194.4805 1.194 1.2732v2.9706c0 .1126.057.1695.171.1695h1.792c.653 0 1.024.3955 1.024.9617 0 .5656-.371.9616-1.024.9616h-1.792c-.114 0-.171.0563-.171.1702v7.5254c0 1.4422.37 1.867 1.82 1.867.74 0 1.167.4523 1.167 1.103s-.427 1.1037-1.28 1.1037z"/><path d="m298.441 27.6332c.114 0 .17-.0563.17-.1696 0-.6225-.056-1.103-.198-1.5272-.456-1.3583-1.593-2.1222-3.128-2.1222-1.536 0-2.674.7639-3.129 2.1222-.142.4242-.198.9047-.198 1.5272 0 .1133.056.1696.17.1696zm-8.474 4.5829c-.285-.8484-.455-1.8106-.455-3.4223 0-1.613.142-2.5752.426-3.4236.768-2.3481 2.73-3.6495 5.318-3.6495 2.673 0 4.607 1.3014 5.347 3.6213.312.9047.454 1.9514.454 3.2816 0 .5374-.369.9053-.938.9053h-7.991c-.114 0-.17.0563-.17.1696 0 .6507.056 1.1036.227 1.6411.512 1.556 1.763 2.3481 3.441 2.3481 1.336 0 2.246-.3967 3.27-1.16.285-.2265.541-.3397.825-.3397.568 0 .995.4248.995.9904 0 .3391-.142.6219-.369.8484-1.166 1.0749-2.788 1.8669-4.892 1.8669-2.816 0-4.72-1.3007-5.488-3.6776z"/><path d="m303.67 34.3947c-.37-.2547-.568-.5944-.568-.9898 0-.5663.454-1.0755 1.109-1.0755.227 0 .455.0569.796.2546 1.11.6507 2.275 1.1881 3.81 1.1881 1.963 0 2.987-.8484 2.987-2.0365 0-1.1318-.512-1.6974-2.674-1.9239l-1.422-.1414c-2.673-.2828-4.066-1.6405-4.066-3.819 0-2.5746 1.848-4.1306 5.034-4.1306 1.592 0 3.013.396 4.066.9904.483.2547.711.5656.711.9898 0 .5656-.455 1.0186-1.024 1.0186-.228 0-.484-.0563-.853-.2265-.91-.4242-1.934-.707-3.014-.707-1.706 0-2.588.7639-2.588 1.867 0 1.0755.626 1.6404 2.673 1.8394l1.422.1408c2.844.3115 4.095 1.6411 4.095 3.8478 0 2.659-1.934 4.4127-5.546 4.4127-2.076 0-3.81-.707-4.948-1.499z"/><path d="m320.902 35.7246c-2.787 0-3.81-1.1606-3.81-3.9892v-7.6099c0-.1139-.057-.1702-.171-.1702h-.768c-.654 0-1.024-.396-1.024-.9616 0-.5662.37-.9617 1.024-.9617h.768c.114 0 .171-.0569.171-.1695v-2.9706c0-.7927.511-1.2732 1.193-1.2732.683 0 1.195.4805 1.195 1.2732v2.9706c0 .1126.057.1695.171.1695h1.792c.653 0 1.023.3955 1.023.9617 0 .5656-.37.9616-1.023.9616h-1.792c-.114 0-.171.0563-.171.1702v7.5254c0 1.4422.37 1.867 1.82 1.867.74 0 1.166.4523 1.166 1.103s-.426 1.1037-1.279 1.1037z"/></g><path d="m23.2685.792849-2.9889 2.430851c-.3917.31829-.8987.45415-1.3963.37442l-3.8041-.61106c-1.6545-.26599-3.2683.66591-3.8653 2.2312l-1.37262 3.60066c-.17924.47074-.5511.84261-1.02183 1.02184l-3.60062 1.37334c-1.56527.5963-2.49715 2.2101-2.23117 3.8647l.61105 3.8041c.07973.4976-.05613 1.0059-.37441 1.3963l-2.430824 2.989c-.523031.6423-.78709757 1.4224-.793476 2.2044v.0548c.00637843.782.270445 1.5615.793476 2.2038l2.430824 2.9896c.31828.3904.45414.8987.37441 1.3956l-.61105 3.8042c-.26598 1.6546.6659 3.2677 2.23117 3.8653l3.60062 1.3721c.47073.1805.84259.5523 1.02183 1.0224l1.37262 3.6007c.597 1.5653 2.2108 2.4972 3.8653 2.2318l3.8041-.6117c.4976-.0797 1.0046.0568 1.3963.3745l2.9889 2.4308c.6423.5231 1.4224.7871 2.2038.7935h.0554c.7814-.0064 1.5615-.2704 2.2038-.7935l2.9889-2.4308c.3904-.3177.8981-.4542 1.3956-.3745l3.8048.6117c1.6545.2654 3.2676-.6665 3.8646-2.2318l1.3727-3.6007c.1799-.4701.5517-.8419 1.0224-1.0224l3.6007-1.3721c1.5646-.5976 2.4971-2.2107 2.2305-3.8653l-.6104-3.8042c-.0797-.4969.0561-1.0052.3744-1.3956l2.4308-2.9896c.523-.6423.7871-1.4224.7935-2.2038v-.0548c-.0064-.7814-.2705-1.5621-.7935-2.2044l-2.4308-2.989c-.3183-.3904-.4541-.8987-.3744-1.3963l.6104-3.8041c.2666-1.6546-.6659-3.2684-2.2305-3.8647l-3.6007-1.37334c-.4707-.17923-.8425-.5511-1.0224-1.02184l-1.3727-3.60066c-.597-1.56529-2.2101-2.49719-3.8646-2.2312l-3.8048.61106c-.4975.07973-1.0052-.05613-1.3956-.37442l-2.9889-2.430851c-.65-.528779-1.4409-.792849-2.2318-.792849-.7903 0-1.5812.26407-2.2312.792849z" fill="url(#a)"/></g><g fill="#fff"><path d="m10.4977 28.017 13.2563-5.0867c.7106-.2727 1.4806.2275 1.5209.9877.1933 3.6528-2.0121 7.0727-5.5144 8.4166s-7.4304.2776-9.7318-2.5663c-.479-.5918-.2415-1.4786.469-1.7513z"/><path d="m33.7316 11.7485-9.3138 10.717c-.4993.5745-.2927 1.4692.408 1.767 3.3663 1.431 7.3343.5283 9.795-2.3032 2.4607-2.8314 2.8021-6.8873.917-10.0226-.3924-.6525-1.3069-.7326-1.8062-.1582z"/><g clip-rule="evenodd" fill-rule="evenodd"><path d="m14.6901 17.9995c2.619-.558 4.3025-1.099 5.0507-1.6229.7432-.5204 1.8093-1.8963 3.1982-4.1277.9287-1.4921 2.8911-1.9488 4.3832-1.0201.3643.2268.679.5249.9251.8764l5.6586 8.0813c2.9952 4.2776 1.9556 10.1733-2.3219 13.1685-4.2776 2.9952-10.1733 1.9556-13.1685-2.3219l-5.6689-8.096c-1.008-1.4397-.6581-3.4239.7815-4.432.3495-.2447.7447-.4166 1.162-.5056z"/><path d="m21.3368 38.6164c.1188-.8668.9178-1.4733 1.7846-1.3546.0037.0005.0074.0011.011.0016l2.4855.3582c.8739.1259 1.4824.9335 1.3626 1.8082-.1188.8669-.9177 1.4733-1.7846 1.3546-.0037-.0005-.0073-.001-.011-.0015l-2.4855-.3582c-.8739-.126-1.4824-.9335-1.3626-1.8083z"/><path d="m39.9664 25.572c-.8552-.1849-1.6984.3585-1.8833 1.2137-.0008.0036-.0015.0072-.0023.0108l-.5135 2.4581c-.1805.8643.3702 1.7123 1.2332 1.8989.8552.1849 1.6983-.3585 1.8832-1.2137.0008-.0036.0016-.0072.0023-.0108l.5135-2.4581c.1806-.8643-.3701-1.7123-1.2331-1.8989z"/></g></g></svg>