<svg fill="none" height="62" viewBox="0 0 95 62" width="95" xmlns="http://www.w3.org/2000/svg" xmlns:xlink="http://www.w3.org/1999/xlink"><linearGradient id="a"><stop offset="0" stop-color="#ffc200"/><stop offset="1" stop-color="#fea233"/></linearGradient><linearGradient id="b" gradientUnits="userSpaceOnUse" x1="75.4546" x2="40.5447" xlink:href="#a" y1="48.3277" y2="13.6769"/><linearGradient id="c" gradientUnits="userSpaceOnUse" x1="68.9624" x2="47.8817" xlink:href="#a" y1="41.9168" y2="20.1639"/><clipPath id="d"><path d="m0 0h95v62h-95z"/></clipPath><g clip-path="url(#d)"><path d="m10 48.0029h11c.2652 0 .5196-.1053.7071-.2929.1875-.1875.2929-.4419.2929-.7071s-.1054-.5195-.2929-.7071c-.1875-.1875-.4419-.2929-.7071-.2929h-11c-.26522 0-.51957.1054-.70711.2929-.18753.1876-.29289.4419-.29289.7071s.10536.5196.29289.7071c.18754.1876.44189.2929.70711.2929zm3 7h8c.2652 0 .5196-.1053.7071-.2929.1875-.1875.2929-.4419.2929-.7071s-.1054-.5195-.2929-.7071c-.1875-.1875-.4419-.2929-.7071-.2929h-8c-.2652 0-.5196.1054-.7071.2929-.1875.1876-.2929.4419-.2929.7071s.1054.5196.2929.7071c.1875.1876.4419.2929.7071.2929zm-12-7h4c.26522 0 .51957-.1053.70711-.2929.18753-.1875.29289-.4419.29289-.7071s-.10536-.5195-.29289-.7071c-.18754-.1875-.44189-.2929-.70711-.2929h-4c-.265216 0-.51957.1054-.707107.2929-.187536.1876-.292893.4419-.292893.7071s.105357.5196.292893.7071c.187537.1876.441891.2929.707107.2929zm14-7h6c.2652 0 .5196-.1053.7071-.2929.1875-.1875.2929-.4419.2929-.7071s-.1054-.5195-.2929-.7071c-.1875-.1875-.4419-.2929-.7071-.2929h-6c-.2652 0-.5196.1054-.7071.2929-.1875.1876-.2929.4419-.2929.7071s.1054.5196.2929.7071c.1875.1876.4419.2929.7071.2929z" fill="#4c4c4c"/><path clip-rule="evenodd" d="m22 2h58.412l13.25 13.9v44.585h-71.662z" fill="#fff" fill-rule="evenodd"/><path d="m69.0531 42.7748-.9688 2.5426c-.2043.5366-.5875.9863-1.0848 1.2732-.4973.287-1.0783.3937-1.6452.3021l-2.685-.4309c-.1735-.0281-.3511-.0191-.521.0263s-.3283.1262-.4647.2371l-2.1095 1.717c-.4452.3618-1.0015.5594-1.5753.5594-.5737 0-1.13-.1976-1.5752-.5594l-2.1095-1.7185c-.1365-.1109-.2948-.1917-.4647-.2371s-.3475-.0544-.5211-.0263l-2.6849.4309c-.5669.0916-1.1479-.0151-1.6452-.302-.4974-.287-.8805-.7367-1.0848-1.2733l-.9666-2.5411c-.063-.1641-.1598-.3132-.2841-.4375s-.2734-.2211-.4375-.2841l-2.5411-.9687c-.5365-.2045-.9861-.5877-1.2731-1.085-.2869-.4972-.3936-1.0782-.3022-1.645l.4316-2.685c.0275-.1737.0182-.3512-.0273-.521s-.1262-.3282-.2368-.4648l-1.7162-2.108c-.3623-.445-.5601-1.0014-.5601-1.5753 0-.5738.1978-1.1302.5601-1.5752l1.7162-2.111c.1106-.1366.1913-.295.2368-.4648s.0548-.3473.0273-.5209l-.4316-2.685c-.0914-.5668.0153-1.1478.3022-1.6451.287-.4973.7366-.8805 1.2731-1.0849l2.5411-.9666c.1641-.063.3132-.1598.4375-.2841s.2211-.2734.2841-.4375l.9688-2.5411c.2044-.5365.5876-.9861 1.0849-1.273.4973-.287 1.0783-.3937 1.6451-.3023l2.685.4317c.1732.0271.3503.0177.5197-.0278s.3274-.126.4638-.2364l2.1102-1.7162c.4451-.3623 1.0014-.5601 1.5753-.5601s1.1302.1978 1.5753.5601l2.1102 1.7162c.1366.1107.295.1914.4648.2369s.3473.0548.5209.0273l2.685-.4317c.5668-.0914 1.1478.0153 1.6451.3023.4973.2869.8804.7365 1.0849 1.273l.9688 2.5411c.063.1641.1598.3132.2841.4375s.2734.2211.4375.2841l2.5411.9688c.5366.2043.9863.5875 1.2732 1.0848.287.4973.3937 1.0784.3021 1.6452l-.4309 2.685c-.028.1731-.0191.3502.026.5197.0452.1695.1255.3275.2359.4638l1.717 2.1102c.3618.4453.5594 1.0015.5594 1.5753s-.1976 1.13-.5594 1.5753l-1.717 2.1102c-.1109.1364-.1917.2948-.2371.4647s-.0544.3475-.0263.521l.4309 2.685c.0916.5669-.0151 1.1479-.3021 1.6452-.2869.4973-.7366.8805-1.2732 1.0848l-2.5411.9688c-.164.0628-.3129.1594-.4372.2835-.1244.124-.2212.2728-.2844.4366z" stroke="url(#b)" stroke-width="1.5"/><path d="m64.9618 28.5892c.6596 1.4646.788 3.1134.3629 4.6624-.425 1.549-1.3768 2.9014-2.6914 3.8243-1.3147.9228-2.91 1.3585-4.5113 1.2319s-3.1083-.8075-4.2617-1.9255c-2.5271.9112-5.3301.1291-6.9836-1.911-.0812-.1004-.1375-.2186-.1643-.3449s-.0233-.2572.0101-.3819c.0335-.1247.096-.2397.1824-.3356.0865-.096.1944-.1701.3149-.2163l3.3483-1.2861-1.697-2.4223c-.2207-.3151-.36-.6799-.4054-1.0619s.0045-.7693.1452-1.1273c.1408-.358.368-.6757.6613-.9245.2934-.2489.6438-.4212 1.02-.5017 1.911-.4073 3.1407-.8022 3.6891-1.1849.5485-.3827 1.3267-1.3864 2.3346-3.0112.2032-.327.4845-.5985.8185-.7901.334-.1917.7103-.2974 1.0952-.3078.385-.0104.7665.0749 1.1103.2483.3439.1733.6393.4293.8599.7449l1.6808 2.4009 2.3168-2.6651c.0847-.0975.1913-.1736.311-.222.1198-.0485.2493-.0679.378-.0566.1287.0112.2529.0527.3624.1212.1096.0684.2014.1618.2679.2725 1.3406 2.2349 1.1303 5.1103-.5549 7.1703zm-5.9912 11.4483-1.7937-.2538c-.2998-.0371-.6022.0452-.8419.2292-.2396.1839-.3972.4548-.4388.7541-.0416.2992.0363.6028.2167.8451.1804.2424.4489.404.7475.45l1.7944.2531c.2998.0371.6022-.0452.8419-.2292.2396-.184.3972-.4548.4388-.7541.0416-.2992-.0362-.6028-.2167-.8452-.1804-.2423-.4489-.4039-.7475-.4499zm9.4236-8.0387c-.1476-.0316-.3-.0338-.4485-.0063-.1484.0274-.29.0838-.4166.1661s-.2358.1887-.3212.3132c-.0853.1245-.1453.2646-.1764.4124l-.3756 1.7708c-.0542.2945.0085.5985.1749.8474.1664.249.4233.4232.7161.4858.2928.0625.5985.0084.8521-.1509.2535-.1592.435-.4111.5058-.702l.3748-1.7708c.0637-.2985.0062-.6101-.1598-.8662-.1661-.2561-.4271-.4358-.7256-.4995z" stroke="url(#c)" stroke-width="1.5"/><path d="m22.8911 3v56.485h69.662v-43.185l-12.678-13.3h-56.985zm-1-2h58.412c.1354-.000026.2694.02744.3938.08072.1245.05329.2368.13129.3302.22928l13.25 13.9c.1772.186.2761.4331.276.69v44.585c0 .2652-.1053.5196-.2929.7071-.1875.1875-.4419.2929-.7071.2929h-71.662c-.2652 0-.5196-.1054-.7071-.2929s-.2929-.4419-.2929-.7071v-58.485c0-.26522.1054-.51957.2929-.70711.1875-.18753.4419-.29289.7071-.29289z" fill="#4c4c4c"/><path clip-rule="evenodd" d="m80.303 2v13.9h13.25z" fill="#f5f5f5" fill-rule="evenodd"/><path d="m79.303 1.99998c0-.902 1.101-1.343003 1.724-.69l13.25 13.90002c.607.636.156 1.69-.724 1.69h-13.25c-.2652 0-.5196-.1054-.7071-.2929-.1876-.1876-.2929-.4419-.2929-.7071zm2 2.498v10.40202h9.915l-9.915-10.40002z" fill="#4c4c4c"/></g></svg>