<svg xmlns="http://www.w3.org/2000/svg" width="33" height="25" viewBox="0 0 33 25"><g fill="#FEA233" fill-rule="nonzero"><path d="M3.326 19.565V2.99a.99.99 0 0 1 .989-.989h23.869a.99.99 0 0 1 .99.99v16.575a1 1 0 0 0 2 0V2.99A2.99 2.99 0 0 0 28.184 0H4.314a2.989 2.989 0 0 0-2.988 2.99v16.575a1 1 0 0 0 2 0z"/><path d="M6 15.271h20.5v-10H6v10zm-2 1V4.692a1.42 1.42 0 0 1 1.42-1.42h21.66a1.42 1.42 0 0 1 1.42 1.42v11.58a1 1 0 0 1-1 1H5a1 1 0 0 1-1-1zm14.565 3.294a1 1 0 0 1 1-1H31.5a1 1 0 0 1 1 1v2.652a2.326 2.326 0 0 1-2.327 2.327H2.326A2.327 2.327 0 0 1 0 22.217v-2.652a1 1 0 0 1 1-1h11.934a1 1 0 0 1 1 1v.326h4.631v-.326zm2 1.326a1 1 0 0 1-1 1h-6.63a1 1 0 0 1-1-1v-.326H2v1.652c0 .181.146.327.326.327h27.847a.326.326 0 0 0 .327-.327v-1.652h-9.935v.326z"/></g></svg>