<svg height="33" viewBox="0 0 32 33" width="32" xmlns="http://www.w3.org/2000/svg"><path d="m5.94 15.218c0-5.502 4.46-9.962 9.963-9.962 5.5 0 9.962 4.46 9.962 9.962a9.957 9.957 0 0 1 -6.722 9.412v1.043a1 1 0 0 1 -1 1h-4.48a1 1 0 0 1 -1-1v-1.043a9.956 9.956 0 0 1 -6.722-9.412zm11.203 8.669a1 1 0 0 1 .75-.969 7.959 7.959 0 0 0 5.972-7.7 7.962 7.962 0 0 0 -15.924 0c0 3.65 2.48 6.8 5.972 7.7a1 1 0 0 1 .75.969v.786h2.48zm-.542 6.369h-1.396a1 1 0 0 0 0 2h1.396a1 1 0 0 0 0-2zm1.396-2.791h-4.187a1 1 0 0 0 0 2h4.187a1 1 0 0 0 0-2zm-3.094-26.465v1.79a1 1 0 0 0 2 0v-1.79a1 1 0 0 0 -2 0zm15.903 13.903h-1.79a1 1 0 0 0 0 2h1.79a1 1 0 0 0 0-2zm-29.806 2h1.792a1 1 0 0 0 0-2h-1.792a1 1 0 0 0 0 2zm3.882-11.551 1.311 1.312a1 1 0 1 0 1.415-1.413l-1.311-1.312a1 1 0 1 0 -1.415 1.413zm20.624-1.413-1.31 1.312a1 1 0 1 0 1.414 1.413l1.31-1.312a1 1 0 1 0 -1.414-1.413z" fill="#fea233"/></svg>