<svg height="23" viewBox="0 0 32 23" width="32" xmlns="http://www.w3.org/2000/svg"><g fill="#fea233"><path d="m1 22.299a1 1 0 0 1 -1-1v-20.3a1 1 0 0 1 1-1h29.5a1 1 0 0 1 1 1v20.3a1 1 0 0 1 -1 1zm28.5-2v-18.3h-27.5v18.3z"/><path d="m12.24 7.9a2.35 2.35 0 1 0 -4.7-.002 2.35 2.35 0 0 0 4.7.001zm2 0a4.35 4.35 0 1 1 -8.7-.001 4.35 4.35 0 0 1 8.7 0z"/><path d="m9.89 10.249c3.724 0 5.862 2.579 5.862 6.025a1 1 0 0 1 -1 1h-9.725a1 1 0 0 1 -1-1c0-3.446 2.14-6.025 5.863-6.025zm0 2c-2.16 0-3.45 1.175-3.778 3.025h7.556c-.329-1.85-1.618-3.025-3.778-3.025zm8.863 5.025h7.72a1 1 0 0 0 0-2h-7.72a1 1 0 0 0 0 2zm0-5.221h7.72a1 1 0 0 0 0-2h-7.72a1 1 0 0 0 0 2zm0-5.222h3.86a1 1 0 0 0 0-2h-3.86a1 1 0 0 0 0 2z"/></g></svg>