<svg height="32" viewBox="0 0 32 32" width="32" xmlns="http://www.w3.org/2000/svg"><g fill="#ffa400"><path d="m15.391 14.108v-13.108a1 1 0 0 1 1-1c8.163 0 15.109 7.16 15.109 15.75 0 8.699-7.052 15.75-15.75 15.75-8.656 0-15.75-7.457-15.75-16.392a1 1 0 0 1 1-1zm2 1a1 1 0 0 1 -1 1h-14.357c.5 7.4 6.51 13.392 13.716 13.392 7.594 0 13.75-6.156 13.75-13.75 0-7.14-5.5-13.15-12.109-13.708z"/><path d="m16.797 27.451v-1.951a1 1 0 0 0 -2 0v1.951a1 1 0 0 0 2 0zm5.723-2.069-.976-1.69a1 1 0 1 0 -1.732 1l.976 1.69a1 1 0 1 0 1.732-1zm-10.738-18.598-.977-1.69a1 1 0 0 0 -1.731 1l.977 1.69a1 1 0 0 0 1.731-1zm14.66 13.946-1.69-.978a1 1 0 0 0 -1 1.732l1.69.977a1 1 0 0 0 1-1.732zm-18.599-10.74-1.69-.975a1 1 0 0 0 -1 1.732l1.69.976a1 1 0 1 0 1-1.732zm19.668 4.748h-1.951a1 1 0 0 0 0 2h1.952a1 1 0 0 0 0-2zm-2.069-5.723-1.69.976a1 1 0 1 0 1 1.732l1.69-.976a1 1 0 1 0 -1-1.732zm-18.599 10.738-1.69.977a1 1 0 0 0 1 1.731l1.69-.977a1 1 0 0 0 -1-1.731zm13.945-14.66-.976 1.691a1 1 0 1 0 1.732 1l.976-1.691a1 1 0 1 0 -1.732-1zm-10.738 18.598-.976 1.69a1 1 0 0 0 1.731 1.001l.977-1.69a1 1 0 0 0 -1.731-1z"/></g></svg>