<svg height="20" viewBox="0 0 34 20" width="34" xmlns="http://www.w3.org/2000/svg"><g fill="#fea233"><path d="m7.027 13.81c5.569-5.57 14.597-5.573 20.17 0a1 1 0 0 0 1.414-1.414c-6.354-6.354-16.649-6.351-22.998 0a1 1 0 0 0 1.414 1.415z"/><path d="m32.928 6.553c-8.735-8.736-22.893-8.74-31.635 0a1 1 0 0 0 1.413 1.414c7.962-7.959 20.854-7.955 28.807 0a1 1 0 0 0 1.415-1.414zm-21.587 13.1a8.16 8.16 0 0 1 11.54 0 1 1 0 1 0 1.414-1.415c-3.969-3.967-10.399-3.965-14.367 0a1 1 0 1 0 1.413 1.415z"/><path d="m28.611 12.397c-6.35-6.352-16.646-6.355-22.998 0a1 1 0 1 0 1.414 1.414c5.572-5.574 14.601-5.57 20.17 0a1 1 0 0 0 1.414-1.414zm-4.316 5.841a10.16 10.16 0 0 0 -14.367 0 1 1 0 0 0 1.414 1.415 8.16 8.16 0 0 1 11.539 0 1 1 0 1 0 1.414-1.415z"/></g></svg>