<svg height="26" viewBox="0 0 27 26" width="27" xmlns="http://www.w3.org/2000/svg"><path d="m13.218871.00024v11.2864h-12.41290326c0 6.6696 5.32580645 12.3136 11.89516126 12.3136 6.5701613 0 11.8951613-5.2832 11.8951613-11.8s-5.325-11.8-11.3774193-11.8zm-.478871 21.16096v-1.5616m4.7229839.30608-.7870968-1.352m-7.87209678-13.52608-.78790322-1.3528m12.9051613 12.8012-1.3637097-.7816m-13.63516128-7.80904-1.36370968-.7808m17.62822576 4.68552h-1.575m.3093549-4.6852-1.3637097.7808m-13.63516128 7.80912-1.36370968.7816m12.90451616-12.80192-.7870968 1.3528m-7.87209678 13.52608-.78790322 1.352" fill="none" stroke="#ffa400" stroke-linecap="round" stroke-linejoin="round" stroke-width="1.85" transform="translate(1 1)"/></svg>