<svg xmlns="http://www.w3.org/2000/svg" width="20" height="32" viewBox="0 0 20 32"><g fill="#FEA233" fill-rule="nonzero"><path d="M10.559 20.654h-.372c-3.098 0-5.623-2.558-5.623-5.683V5.683C4.564 2.558 7.088 0 10.187 0h.372c3.097 0 5.623 2.558 5.623 5.683v9.288c0 3.125-2.526 5.683-5.623 5.683zm0-2c1.986 0 3.623-1.657 3.623-3.683V5.683C14.181 3.657 12.546 2 10.558 2h-.372C8.199 2 6.564 3.657 6.564 5.683v9.288c0 2.026 1.635 3.683 3.623 3.683h.372z"/><path d="M17.85 11.894v3.966c0 4.145-3.346 7.535-7.425 7.535S3 20.005 3 15.86v-3.966a1 1 0 0 0-2 0v3.966c0 5.244 4.237 9.535 9.427 9.535 5.188 0 9.423-4.291 9.423-9.535v-3.966a1 1 0 0 0-2 0zm-8.425 12.5v6.365a1 1 0 0 0 2 0v-6.364a1 1 0 0 0-2 0zM6.08 31.76h8.688a1 1 0 0 0 0-2H6.08a1 1 0 0 0 0 2z"/></g></svg>