<svg height="83" viewBox="0 0 102 83" width="102" xmlns="http://www.w3.org/2000/svg"><g fill="none" fill-rule="evenodd"><path d="m36 30.33a6.25 6.25 0 1 1 -12.5 0 6.25 6.25 0 0 1 12.5 0" fill="#f5f5f5"/><path d="m35 30.33a5.25 5.25 0 1 0 -10.5 0 5.25 5.25 0 0 0 10.5 0zm2 0a7.25 7.25 0 1 1 -14.5 0 7.25 7.25 0 1 1 14.5 0z" fill="#4c4c4c" fill-rule="nonzero"/><path d="m93.493 20.97-1.804-3.727-36.809-15.243s-4.574 15.064 36.637 20.98l1.977-2.01z" fill="#cacaca"/><path d="m94.393 20.534a1 1 0 0 1 -.187 1.137l-1.977 2.01a1 1 0 0 1 -.855.288c-14.238-2.044-24.09-5.304-30.24-9.48-6.096-4.14-7.923-8.6-7.317-12.296a4.12 4.12 0 0 1 .105-.484 1 1 0 0 1 1.34-.633l36.81 15.243a1 1 0 0 1 .517.488zm-3.438-2.513-35.232-14.591c.008.823.187 1.78.62 2.836.911 2.226 2.796 4.45 5.915 6.568 5.794 3.934 15.21 7.074 28.9 9.082l1.128-1.146-1.331-2.75zm-71.743 54.479h14.206a1 1 0 0 0 0-2h-14.206a1 1 0 0 0 0 2zm10.842 7.851h4.486a1 1 0 0 0 0-2h-4.486a1 1 0 0 0 0 2zm-14.922 0h10.313a1 1 0 0 0 0-2h-10.313a1 1 0 0 0 0 2zm3.706-23.552h4.486a1 1 0 0 0 0-2h-4.486a1 1 0 0 0 0 2zm-12.744 0h8.136a1 1 0 0 0 0-2h-8.136a1 1 0 0 0 0 2zm-5.094 7.851h26.811a1 1 0 0 0 0-2h-26.811a1 1 0 0 0 0 2zm5.85 7.85h7.755a1 1 0 0 0 0-2h-7.755a1 1 0 0 0 0 2z" fill="#4c4c4c" fill-rule="nonzero"/><path d="m97.284 21.98c-2.24-3.332-4.819-4.945-7.507-5.238-1.52-.166-3.048-.27-4.555-.534l-42.832-7.516s-3.364 14.58 37.507 12.536c-1.108 1.495-1.786 3.315-2.02 5.283-.514 4.297-4.376 7.44-8.638 6.694l-.215-.038c-1.607-.304-3.244-1.405-4.862-2.555-4.328-4.315-10.507-6.857-17.23-6.109-11.932 1.327-17.229 12.217-17.124 12.212a20.823 20.823 0 0 0 -1.86 6.532c-1.439 12.87 8.594 23.767 21.172 23.767 2.337 0 4.57-.412 6.671-1.11l-15.07 8.7c-1.315.76-1.535 2.622-.369 3.592a5.132 5.132 0 0 0 5.868.49l14.16-8.253 8.152 10.192c.49.612 1.233.97 2.02.97h18.42c1.72 0 2.872-1.837 2.06-3.354a8.512 8.512 0 0 0 -7.507-4.497h-8.092a2.273 2.273 0 0 1 -2.156-1.556l-2.055-6.18a2.058 2.058 0 0 1 .916-2.427l3.051-1.779a18.79 18.79 0 0 0 10.05-18.525c-.089-.873.778-1.484 1.58-1.126 3.942 1.757 8.298 1.721 11.025.13 4.772-2.785 3.763-13.878-.56-20.302" fill="#fff"/><g fill="#4c4c4c"><path d="m44.358 15.787c-2.516-2.364-3.257-4.898-2.994-7.011a3.15 3.15 0 0 1 .052-.309 1 1 0 0 1 1.147-.76l42.831 7.516c.873.153 1.588.236 3.209.395.67.066.973.096 1.283.13 3.123.34 5.917 2.239 8.228 5.673 4.847 7.203 5.421 18.697.234 21.723-3.08 1.798-7.789 1.77-11.936-.08.625 8.108-3.541 15.883-10.72 19.602l-3.05 1.78a1.058 1.058 0 0 0 -.47 1.246l2.054 6.18c.173.521.66.872 1.207.872h8.092a9.51 9.51 0 0 1 8.389 5.025c1.169 2.184-.466 4.825-2.942 4.825h-18.42c-1.09 0-2.12-.494-2.8-1.344l-7.614-9.518-13.414 7.818a6.132 6.132 0 0 1 -7.011-.585c-1.701-1.415-1.41-4.12.507-5.227l9.961-5.75c-.353.017-.707.026-1.06.026-13.285 0-23.66-11.525-22.167-24.878a21.8 21.8 0 0 1 1.908-6.757c.127-.304.195-.442.278-.599.201-.382.467-.836.78-1.324a26.097 26.097 0 0 1 3.219-4.044c3.65-3.76 8.209-6.294 13.683-6.903 6.733-.749 13.247 1.645 17.986 6.336 2.066 1.464 3.24 2.12 4.392 2.338 3.842.672 7.23-1.994 7.683-5.79a12.564 12.564 0 0 1 1.188-4.082c-17.984.704-28.682-1.795-33.713-6.524zm-13.594 21.217c-.007.017-.01.025-.008.016.01-.025.01-.025.033-.122.017-.081.017-.081.01-.309-.101-.511-.101-.511-1.038-.873a1 1 0 0 1 1.003 1.288zm-1.822 6.354c-1.36 12.165 8.084 22.656 20.178 22.656 2.139 0 4.26-.362 6.356-1.06 1.143-.38 1.859 1.213.815 1.815l-15.07 8.701c-.732.423-.843 1.447-.229 1.958a4.132 4.132 0 0 0 4.725.394l14.16-8.253a1 1 0 0 1 1.284.24l8.152 10.191c.3.375.756.594 1.238.594h18.421c.98 0 1.627-1.044 1.178-1.881a7.512 7.512 0 0 0 -6.625-3.969h-8.092a3.273 3.273 0 0 1 -3.105-2.24l-2.055-6.181a3.058 3.058 0 0 1 1.361-3.606l3.095-1.803c6.49-3.364 10.236-10.354 9.514-17.536-.165-1.64 1.483-2.81 2.983-2.14 3.595 1.602 7.634 1.627 10.114.179 3.915-2.285 3.405-12.504-.885-18.88-2-2.973-4.291-4.529-6.786-4.8-.3-.033-.599-.064-1.043-.107l-.218-.022c-1.67-.163-2.419-.25-3.359-.415l-41.712-7.32c.028.335.094.703.209 1.096.334 1.14 1.027 2.276 2.181 3.36 4.72 4.437 15.492 6.832 34.12 5.9a1 1 0 0 1 .854 1.595c-.988 1.332-1.614 2.98-1.832 4.806-.586 4.911-5.016 8.397-9.796 7.561l-.235-.041c-1.557-.295-2.912-1.057-5.255-2.723-4.45-4.417-10.394-6.614-16.54-5.93-4.972.553-9.122 2.86-12.47 6.308a24.107 24.107 0 0 0 -2.97 3.731c-.283.441-.52.846-.694 1.177a5.9 5.9 0 0 0 -.139.278c-.987 2.135-1.588 4.224-1.828 6.367z" fill-rule="nonzero"/><path d="m55.677 66.157 12.074 15.093a3.588 3.588 0 0 0 2.8 1.344h18.422c2.475 0 4.11-2.64 2.94-4.825a9.511 9.511 0 0 0 -8.388-5.025h-8.091a1.273 1.273 0 0 1 -1.208-.872l-2.428-7.304a1.843 1.843 0 0 1 -.068-.846 26.042 26.042 0 0 0 -.358-9.238c-2.715-12.423-13.669-20.637-24.53-18.265a1 1 0 0 0 .426 1.954c9.714-2.122 19.658 5.335 22.15 16.737.625 2.863.73 5.752.332 8.53a3.84 3.84 0 0 0 .15 1.76l2.428 7.303a3.273 3.273 0 0 0 3.106 2.241h8.091a7.512 7.512 0 0 1 6.625 3.969c.448.837-.198 1.881-1.177 1.881h-18.422a1.59 1.59 0 0 1 -1.238-.594l-12.074-15.093a1 1 0 1 0 -1.562 1.25z" fill-rule="nonzero"/><path d="m93.956 30.278c0 1.706-.613 3.09-1.369 3.09s-1.368-1.384-1.368-3.09.612-3.089 1.368-3.089 1.37 1.383 1.37 3.09m5.633 7.574h-2.242l2.243 2.243z"/><path d="m99.59 36.853a1 1 0 0 1 1 1v2.243c0 .891-1.076 1.337-1.706.707l-2.244-2.243c-.63-.63-.184-1.707.707-1.707zm0 2-1-1v1z" fill-rule="nonzero"/></g></g></svg>