<svg height="29" viewBox="0 0 32 29" width="32" xmlns="http://www.w3.org/2000/svg"><g fill="#fea233"><path d="m15.685 1.292c.63-.63 1.707-.183 1.707.708v25.652c0 .891-1.077 1.338-1.707.708l-8.686-8.686h-4.075a2.923 2.923 0 0 1 -2.924-2.924v-3.848a2.923 2.923 0 0 1 2.924-2.922h4.075l8.686-8.687zm-.293 3.122-7.272 7.272a1 1 0 0 1 -.707.293h-4.49a.923.923 0 0 0 -.923.924v3.847c0 .51.413.924.924.924h4.489a1 1 0 0 1 .707.292l7.272 7.272zm9.96.904c2.62 2.29 4.148 5.768 4.148 9.508s-1.53 7.22-4.148 9.507a1 1 0 0 0 1.317 1.506c3.06-2.674 4.83-6.705 4.83-11.013s-1.77-8.338-4.83-11.013a1 1 0 0 0 -1.317 1.505z"/><path d="m22.168 7.902c2.07 1.71 3.484 4.416 3.484 6.924 0 2.501-1.418 5.214-3.485 6.925a1 1 0 1 0 1.275 1.541c2.505-2.073 4.21-5.336 4.21-8.466 0-3.138-1.701-6.395-4.211-8.466a1 1 0 1 0 -1.273 1.542z"/><path d="m19.651 11.146c1.375 1 2.153 2.267 2.153 3.68 0 1.414-.778 2.682-2.153 3.68a1 1 0 1 0 1.176 1.619c1.854-1.347 2.977-3.178 2.977-5.3 0-2.119-1.123-3.95-2.977-5.297a1 1 0 1 0 -1.176 1.618z"/></g></svg>