<svg fill="none" height="343" viewBox="0 0 507 343" width="507" xmlns="http://www.w3.org/2000/svg" xmlns:xlink="http://www.w3.org/1999/xlink"><linearGradient id="a"><stop offset="0" stop-color="#ffc200"/><stop offset="1" stop-color="#fea233"/></linearGradient><linearGradient id="b" gradientUnits="userSpaceOnUse" x1="299.152" x2="244.847" xlink:href="#a" y1="214.954" y2="161.053"/><linearGradient id="c" gradientUnits="userSpaceOnUse" x1="289.053" x2="256.26" xlink:href="#a" y1="204.981" y2="171.144"/><clipPath id="d"><path d="m0 0h507v343h-507z"/></clipPath><g clip-path="url(#d)"><g opacity=".665"><path clip-rule="evenodd" d="m254.21 176.185v30.207c0 .693.562 1.254 1.255 1.254.238 0 .472-.068.674-.196l23.708-15.103c.584-.373.756-1.148.384-1.732-.099-.155-.23-.286-.384-.384l-23.708-15.104c-.585-.372-1.36-.2-1.733.384-.128.202-.196.435-.196.674z" fill="#fff" fill-rule="evenodd" opacity=".665"/><path clip-rule="evenodd" d="m254.21 176.185v30.207c0 .693.562 1.254 1.255 1.254.238 0 .472-.068.674-.196l23.708-15.103c.584-.373.756-1.148.384-1.732-.099-.155-.23-.286-.384-.384l-23.708-15.104c-.585-.372-1.36-.2-1.733.384-.128.202-.196.435-.196.674z" fill="#fff" fill-rule="evenodd" opacity=".665"/><g fill="#4c4c4c" opacity=".665"><g opacity=".6"><path d="m118.283 101.905c-5.61.773-5.686.773-5.686 1.893 0 .811.189.965 1.175.965 1.63 0 2.464.58 2.957 1.97.417 1.236.606 12.321.227 12.321-.151 0-.758-.27-1.44-.618-2.805-1.506-7.658-.579-10.463 2.009-5.6486 5.175-4.549 15.334 2.009 18.771 1.024.541 2.502.889 4.397 1.005 2.503.115 3.071.038 4.663-.85 1.706-.927 1.782-.966 1.782-.193 0 .425.228.849.531.965.265.116 2.691-.116 5.383-.502 4.852-.695 4.89-.734 5.004-1.777.114-.965.038-1.042-1.175-1.042-2.085 0-2.881-.966-3.298-3.863-.19-1.39-.379-9.077-.379-17.111v-14.561l-.834.039c-.493.038-2.654.309-4.853.579zm-2.805 20.394 1.289 1.313v5.485 5.484l-1.327 1.352c-1.137 1.159-1.516 1.352-2.578 1.12-2.35-.463-3.677-3.36-3.677-8.072 0-6.605 3.108-9.927 6.293-6.682zm-104.478-18.926c0 .772.2275.927 1.7438 1.12 3.5635.386 3.9047 1.893 3.9047 16.493 0 12.128-.2654 14.484-1.6301 15.681-.6824.657-1.4785.927-2.5399.927-1.3269 0-1.4785.077-1.4785.966v1.004l13.0029-.116c12.6996-.116 13.0028-.154 14.9362-1.043 2.4262-1.081 5.2315-4.055 5.7622-6.064.5307-1.97.5307-4.519-.0379-6.412-.5686-2.008-2.9569-4.673-5.004-5.716l-1.7059-.811 1.4784-1.352c1.9713-1.815 2.8053-4.094 2.5779-7.107-.2654-3.824-2.7295-6.682-6.8616-7.918-1.5164-.463-4.2838-.579-13.0408-.579h-11.1074zm20.0161 3.206c1.9713 1.506 2.5399 2.703 2.5399 5.33 0 1.892-.1895 2.704-.7961 3.515-1.4785 2.047-2.5778 2.587-5.6106 2.781l-2.8811.193v-6.489-6.489l2.8811.193c2.0092.155 3.1465.425 3.8668.966zm1.4784 15.604c3.5635 1.352 5.3073 6.373 3.5635 10.197-.3791.85-1.0235 1.854-1.4026 2.201-2.6158 2.356-8.4917 2.472-9.7048.155-.2654-.464-.5307-3.283-.6065-6.914l-.1517-6.064h3.6014c2.0092 0 4.0942.193 4.7007.425zm125.1765-17.458c-2.161 2.201-1.175 6.102 1.744 6.836 1.402.348 3.412-.695 4.17-2.201 1.971-3.824-2.919-7.687-5.914-4.635zm-102.1655 13.789c-2.54.811-5.3453 3.012-6.7858 5.33-1.0236 1.738-1.1373 2.201-1.1373 5.214 0 3.863.6066 5.485 2.9569 7.879 2.3883 2.434 5.1557 3.554 8.9845 3.554 2.7674 0 3.5256-.155 5.3831-1.082 8.8329-4.441 8.8329-16.145-.0379-20.277-2.6157-1.236-6.5583-1.507-9.3635-.618zm6.4445 3.862c.5308.579 1.1373 1.661 1.3648 2.433.4928 1.893.4928 7.339-.038 8.961-.6823 2.047-2.1608 3.438-3.6771 3.438-1.8576 0-2.6916-.618-3.5635-2.549-1.6301-3.824-1.1373-10.159 1.0235-12.36 1.2889-1.313 3.5256-1.275 4.8903.077zm96.707-3.862c-7.165 1.042-6.635.888-6.635 1.931 0 .695.19.927.872.927 3.185.038 3.677 1.081 3.677 8.111 0 6.991-.492 8.111-3.449 8.111-.91 0-1.1.155-1.1.966v.965h15.733 15.732v-.965c0-.85-.152-.966-1.289-.966-1.971 0-2.843-1.004-3.26-3.669-.834-5.292-.303-8.845 1.668-10.854 2.237-2.279 5.383-2.163 6.975.232.758 1.159.834 1.699.834 6.605 0 5.678-.303 7.261-1.516 7.57-.493.116-.758.541-.758 1.12v.927h7.013 7.013v-.965c0-.811-.189-.966-1.099-.966-2.843 0-3.45-1.197-3.715-7.648-.228-5.677-.531-6.991-2.123-8.806-3.109-3.631-8.719-4.287-12.776-1.506l-1.895 1.274-.379-1.506c-.228-.811-.493-1.506-.569-1.506-.265 0-7.733 1.12-9.174 1.351-1.023.194-1.251.425-1.251 1.159 0 .811.19.966 1.099.966.645 0 1.593.386 2.199.927 1.062.927 1.062.965 1.175 6.296.152 6.064-.189 7.879-1.63 8.536-1.175.54-3.222.579-4.473.115-1.516-.618-1.782-2.201-1.782-11.085v-8.265l-.834.038c-.493.039-2.388.271-4.283.58z"/><path d="m135.342 119.132c-2.729 1.081-5.724 4.094-6.558 6.643-1.858 5.523.607 11.24 5.99 13.789 1.933.966 2.729 1.12 5.497 1.12 2.767 0 3.563-.154 5.496-1.12 7.165-3.438 8.833-12.128 3.412-17.651-3.45-3.554-9.022-4.674-13.837-2.781zm7.089 3.09c1.441 1.197 2.161 3.553 2.161 7.068.038 4.055-.531 5.987-2.085 7.338-3.374 2.859-6.482-.54-6.52-7.184 0-2.781.151-3.669.91-5.214.492-1.043 1.326-2.124 1.857-2.395 1.024-.54 2.843-.347 3.677.387zm-72.6717-2.241c0 .734.2654 1.005 1.1373 1.198.6066.154 1.4406.656 1.8196 1.158.3791.503 2.3125 4.828 4.2459 9.657 3.0327 7.493 3.6393 8.729 4.2837 8.613.6066-.077 1.2131-1.352 2.8811-5.833l2.1229-5.716.6445 1.468c.3412.811 1.4026 3.437 2.3883 5.832 1.5164 3.631 1.9334 4.365 2.5399 4.249.5686-.077 1.4406-1.931 4.0563-8.922 1.8575-4.829 3.6393-9.116 4.0184-9.541.3788-.425 1.2508-.849 1.9338-1.004 1.023-.193 1.288-.425 1.288-1.159 0-.927 0-.927-4.5487-.927h-4.5491v.966c0 .541.2275.966.4929.966.2653 0 .834.231 1.2131.54.6823.502.6444.657-.7582 4.635l-1.4785 4.094-2.1608-5.523c-2.0092-5.176-2.1988-5.485-3.2223-5.6-1.0615-.116-1.1373 0-2.919 4.828-.9857 2.703-1.9334 5.175-2.1229 5.446-.3791.618-3.2602-6.605-2.957-7.455.1517-.309.7582-.695 1.4027-.811.8719-.193 1.1373-.463 1.1373-1.159v-.927h-6.4446-6.4446z"/><path d="m103.761 280.926c-.086.088-.151.548-.151 1.008v.833h-.974-.974v.986c0 1.052.043 1.074 1.363.986.563-.021.585 0 .585.987 0 .832-.109 1.117-.541 1.468-1.32 1.03-1.602 2.915-.671 4.339l.541.833-.455.482c-.562.614-1.017.548-5.0849-.745-1.6879-.548-3.7221-1.096-4.5227-1.249-4.7608-.833-7.7687 1.249-7.7038 5.347.0217 2.104.4977 3.529 2.3155 7.057 1.4931 2.893 2.0558 4.361 2.3803 6.29l.1299.833h14.4557 14.455l.346-1.754c.217-1.161.671-2.41 1.363-3.769 2.857-5.567 3.117-6.29 3.117-8.613 0-3.463-2.099-5.566-5.519-5.566-1.666-.022-3.354.35-7.314 1.599-3.57 1.14-4.025 1.184-4.566.592-.368-.416-.368-.46.173-1.271.953-1.403.671-3.375-.606-4.383-.497-.395-.649-.899-.584-1.972.022-.395.173-.483.952-.548.909-.066.909-.066.909-.943 0-.876 0-.876-.909-.942s-.909-.066-.973-.986c-.065-.855-.109-.921-.715-.987-.367-.043-.735 0-.822.088zm-8.158 12.514c2.7915.833 5.15 1.863 5.28 2.301.043.153.173.679.303 1.162.108.482.476 1.621.801 2.52.692 2.038.93 4.624.541 6.049-.39 1.38-1.645 2.717-2.5538 2.717-.7574 0-1.8394-.833-2.3155-1.775-.4977-.942-.4111-1.074.7574-1.074 1.1686 0 1.2768-.131.8656-1.183-.1731-.461-.3462-.548-1.2334-.614-1.0171-.066-1.0171-.066-1.3201-1.118-.2813-1.008-.3029-1.03-1.1685-1.03-.844 0-.8656.022-.7574.592.0649.351.1948.789.2597.986.1298.351 0 .395-1.0604.395-1.1685 0-1.2118.022-1.2118.591 0 .943.2597 1.162 1.5364 1.315.6492.066 1.2335.241 1.32.373.0866.131.1732.657.1732 1.183 0 .767-.0866.965-.5194 1.162-.3029.153-.779.197-1.1036.109-1.4499-.372-3.8302-3.484-5.7778-7.538-.9522-1.951-1.1253-2.499-1.1902-3.836-.1298-2.432.6925-3.66 2.7482-4.076 1.3633-.263 2.7699-.088 5.6264.789zm24.539-.307c2.402 1.359 2.186 4.405-.714 9.533-1.471 2.586-3.116 4.668-4.155 5.194-.735.395-1.536.417-1.882.066-.282-.285-.346-1.885-.087-2.279.087-.132.693-.307 1.342-.395 1.277-.175 1.515-.372 1.515-1.293 0-.569-.044-.591-1.212-.591-1.06 0-1.19-.044-1.06-.395.064-.197.194-.657.259-.986.13-.614.108-.614-.822-.548-.909.066-.931.088-1.169 1.052s-.259.986-1.19 1.052c-1.06.066-1.515.46-1.515 1.293 0 .438.109.504.931.504.519 0 .995.066 1.082.132.238.263-.346 1.402-1.06 2.06-.974.854-1.797.854-2.77 0-1.796-1.6-1.905-5.435-.238-9.424.303-.723.541-1.6.541-1.951 0-.547.151-.701 1.147-1.183 1.449-.701 5.669-2.082 7.141-2.323 1.493-.263 2.878-.088 3.916.482zm24.367-1.03c-4.242.921-7.488 3.989-8.678 8.197-.389 1.446-.346 4.887.108 6.465 1.147 3.988 4.22 6.925 8.461 8.13 1.753.482 6.709.658 8.765.307 2.055-.351 2.466-.745 2.791-2.761.346-2.236.368-2.784.13-2.849-.13-.044-.39.394-.606.986-.498 1.424-1.774 2.542-3.289 2.893-.628.131-2.034.219-3.181.153-1.796-.066-2.251-.175-3.549-.833-2.77-1.358-4.826-4.054-5.475-7.188-.346-1.644-.303-4.778.087-6.29.649-2.498 2.012-4.339 3.981-5.347 2.857-1.49 8.245-.855 10.257 1.183.541.57.801 1.184 1.126 2.827.259 1.293.519.176.584-2.607l.065-2.85-2.272-.372c-2.77-.46-7.336-.482-9.305-.044zm164.786.307c.065.109.519.219.995.219.628 0 1.017.153 1.385.548l.541.526v6.421c0 7.561.152 8.92 1.212 11.089.844 1.754 2.207 3.003 4.004 3.682 1.449.548 5.431.68 6.989.219 2.748-.81 4.718-2.695 5.562-5.347.432-1.359.497-2.06.605-8.876l.13-7.429.52-.417c.281-.219.822-.416 1.233-.416s.736-.11.736-.219c0-.132-1.472-.219-4.003-.219-2.532 0-4.004.087-4.004.219 0 .109.39.219.866.219.649 0 1.017.153 1.428.548l.541.548-.065 7.846c-.065 7.626-.086 7.845-.563 8.919-.995 2.192-2.466 3.178-4.933 3.353-1.32.088-1.732.022-2.727-.438-1.472-.701-2.424-1.709-3.03-3.243-.454-1.14-.497-1.578-.562-8.526-.043-4.032-.022-7.539.043-7.823.195-.768.736-1.184 1.558-1.184.411 0 .736-.11.736-.219 0-.132-1.71-.219-4.674-.219-3.051 0-4.61.066-4.523.219zm-83.313 3.068c-.086.132-.757 4.252-1.493 9.161s-1.471 9.139-1.623 9.402c-.173.35-.454.504-.887.504-.346 0-.693.087-.758.219-.086.131.931.219 2.922.219s3.008-.088 2.921-.219c-.065-.132-.411-.219-.757-.219-.952 0-1.364-.57-1.234-1.622.087-.504.411-3.046.736-5.676.325-2.608.649-4.756.736-4.756.065 0 .541.921 1.06 2.016 1.796 3.901 4.804 9.928 5.107 10.257.195.197.368.241.498.109.108-.131 1.19-2.345 2.402-4.931 3.484-7.385 3.722-7.911 3.808-7.845.022.043.433 2.717.866 5.961.606 4.47.757 5.983.563 6.267-.195.329-.152.417.238.526.844.22 6.037.154 5.886-.087-.065-.132-.411-.219-.758-.219-.995 0-1.731-.373-1.969-1.03-.13-.351-.801-4.493-1.493-9.249-.693-4.755-1.363-8.722-1.472-8.832-.324-.328-.562.11-4.154 7.824-1.818 3.857-3.333 7.057-3.376 7.101s-.411-.636-.823-1.534c-1.796-3.967-6.362-13.303-6.578-13.435-.13-.065-.303-.043-.368.088zm62.366.373c-.173.35-1.796 4.405-3.614 9.051-3.527 8.963-3.895 9.643-5.172 9.643-.346 0-.714.087-.779.219-.087.131.974.219 3.008.219 1.818 0 3.159-.088 3.159-.197 0-.132-.324-.241-.692-.285-.649-.066-.714-.132-.758-.833-.043-.46.26-1.622.758-2.959l.844-2.191 3.008-.066 3.008-.066 1.038 2.806c1.061 2.914 1.169 3.353.801 3.353-.108 0-.216.087-.216.219 0 .131 1.233.219 3.267.219 2.099 0 3.203-.088 3.116-.219-.065-.132-.454-.219-.865-.219-.585 0-.866-.176-1.472-.877-.411-.504-.952-1.403-1.19-2.038-1.082-2.761-6.081-15.231-6.319-15.779-.151-.329-.368-.592-.454-.592-.108 0-.325.263-.476.592zm1.038 7.758c.606 1.709 1.126 3.178 1.147 3.287.044.11-.995.197-2.315.197-1.428 0-2.402-.087-2.402-.219 0-.372 2.207-6.355 2.359-6.355.065 0 .627 1.402 1.211 3.09zm-121.766-7.78c-4.999 1.205-8.158 6.027-7.336 11.133.628 3.879 2.943 6.706 6.514 7.933 1.687.592 5.474.548 7.162-.065 3.939-1.469 6.276-4.647 6.622-9.052.303-4.01-1.471-7.429-4.696-9.095-2.229-1.139-5.691-1.49-8.266-.854zm4.371 1.205c1.948.592 3.917 2.849 4.674 5.347.606 1.929.541 5.896-.086 7.649-.974 2.696-2.467 3.879-5.021 4.032-2.142.11-3.7-.46-5.172-1.906-1.947-1.929-2.748-4.186-2.705-7.802.022-3.068.541-4.559 2.013-6.049 1.623-1.6 3.765-2.016 6.297-1.271zm165.674-1.293c-.065.153-.152 4.23-.217 9.029-.151 9.797-.151 9.775-1.536 9.775-.411 0-.758.087-.758.219 0 .131 1.277.219 3.376.219 2.186 0 3.311-.066 3.225-.219-.065-.132-.455-.219-.844-.219-.412 0-.844-.132-.974-.307-.433-.526-.649-2.827-.758-8.175l-.086-5.084 7.076 7.254c3.917 4.01 7.184 7.188 7.314 7.123.152-.088.282-3.178.39-9.008.108-5.939.238-9.029.411-9.38.151-.328.476-.526.887-.569.368-.044.736-.176.866-.285.108-.11-1.125-.198-3.225-.198-1.861 0-3.354.088-3.289.176.044.087.476.197.931.219 1.406.109 1.45.219 1.623 5.04.108 2.367.151 5.326.13 6.575l-.065 2.257-7.033-7.363c-3.852-4.033-7.098-7.342-7.206-7.342-.087 0-.195.132-.238.263zm98.006.022c-2.099.723-3.16 1.687-3.592 3.287-.714 2.674.432 4.668 4.782 8.306 1.71 1.425 2.445 2.718 2.316 4.055-.195 1.819-1.342 2.761-3.311 2.739-1.97-.022-3.268-1.008-3.657-2.783-.282-1.249-.347-1.425-.563-1.315-.108.088-.195 1.118-.195 2.323v2.192l.801.35c.454.176 1.558.395 2.445.439 2.554.175 4.739-.614 6.102-2.236.606-.701 1.104-2.674.974-3.857-.259-2.148-1.341-3.594-4.804-6.377-2.164-1.732-2.899-3.003-2.51-4.34.844-2.893 5.626-2.389 6.211.636.238 1.183.519.723.519-.833 0-.833.065-1.666.13-1.863.195-.504-.779-.811-2.943-.92-1.19-.066-2.143.022-2.705.197zm23.371 0c-.217.614-.541 2.279-.541 2.827 0 .767.346.811.519.066.26-1.008.996-1.271 3.96-1.381l2.727-.109-.108 8.086c-.13 8.854-.195 9.293-1.277 9.293-.325 0-.671.087-.736.219-.086.153 1.234.219 3.765.219 2.467 0 3.917-.088 3.917-.219 0-.132-.368-.219-.822-.219-.455 0-1.017-.132-1.255-.307-.39-.307-.411-.701-.476-8.679l-.065-8.393 2.337.109c2.748.11 3.614.46 3.83 1.49.238 1.206.563.461.563-1.271v-1.687h-7.401c-4.09 0-7.747-.066-8.137-.154-.497-.109-.735-.087-.8.11zm-60.548.088c-3.592.043-5.54.153-5.453.285.065.131.454.219.865.219 1.58 0 1.71.745 1.58 10.212-.108 7.474-.173 7.978-1.234 7.978-.346 0-.714.087-.779.219-.086.131.931.219 2.879.219 1.644 0 4.154.066 5.583.131 3.246.176 3.289.154 3.462-2.213.151-1.753-.022-2.016-.454-.723-.109.372-.455.854-.758 1.074-1.147.832-4.501.679-5.237-.241-.346-.417-.389-.965-.389-4.121v-3.616l2.185.132c2.359.131 3.008.416 3.008 1.381 0 .284.087.547.195.635.108.066.26-.548.346-1.359.238-2.717.217-2.871-.303-2.388-.324.306-.887.394-2.856.416l-2.467.044-.065-3.463-.065-3.484 2.424.087c2.207.066 2.423.11 2.813.592.216.285.411.745.411 1.03 0 .986.368.526.519-.636.239-2.016.174-2.564-.238-2.52-.216.044-2.899.088-5.972.11zm-214.168.285c0 .109.324.219.735.219 1.429 0 1.429 0 1.429 8.985 0 8.766-.044 9.029-1.19 9.161-.368.044-.736.153-.823.241-.238.241 11.275.46 11.859.241.519-.197.627-.504.865-2.586.087-.614.065-1.14-.043-1.14-.086.022-.368.439-.606.943-.606 1.315-1.103 1.49-3.743 1.424-3.311-.087-3.073.592-3.073-8.766 0-4.865.086-7.802.216-8.087.152-.285.454-.416.974-.416.389 0 .801-.11.865-.219.087-.154-1.19-.22-3.657-.22-2.402 0-3.808.088-3.808.22zm15.472 0c.065.109.455.219.866.219 1.341 0 1.341 0 1.471 6.837.108 6.838.238 7.583 1.515 9.512.541.833 1.039 1.249 2.164 1.841 1.407.723 1.601.745 3.679.767 1.212 0 2.618-.132 3.116-.285 1.32-.395 2.9-1.6 3.592-2.718 1.082-1.775 1.255-2.849 1.385-9.336.13-6.421.173-6.618 1.255-6.618.281 0 .584-.11.649-.219.087-.154-1.06-.22-3.289-.22-2.294 0-3.311.088-3.094.22.173.109.584.219.908.219.866 0 1.212.504 1.385 2.104.195 2.016-.043 11.198-.324 12.163-.671 2.213-2.272 3.375-4.696 3.375-1.32 0-1.666-.088-2.575-.658-1.255-.789-1.969-2.016-2.272-3.945-.109-.723-.217-3.681-.217-6.574 0-5.83.087-6.312 1.19-6.421.368-.044.736-.176.866-.285.108-.11-1.342-.198-3.765-.198-2.575 0-3.895.066-3.809.22zm49.771 0c.065.109.455.219.844.219.39 0 .888.131 1.126.307.389.306.411.657.411 8.612 0 9.073-.022 9.271-1.19 9.271-.347 0-.693.087-.758.219-.13.219 5.15.394 7.899.263 2.467-.11 4.501-1.293 5.388-3.178.606-1.293.606-3.2 0-4.493-.476-.986-2.034-2.388-3.203-2.871-.368-.175-.671-.35-.671-.438s.347-.482.78-.898c2.553-2.433 1.947-5.918-1.191-6.992-.952-.306-9.629-.35-9.435-.021zm8.094 1.249c1.406 1.052 1.947 3.638 1.103 5.303-.476.965-1.255 1.337-2.726 1.337h-.952v-3.638-3.66l.995.132c.563.044 1.255.285 1.58.526zm.497 8.196c1.515.789 2.554 2.893 2.554 5.238 0 1.731-.649 2.63-2.251 3.09-1.038.285-2.856-.088-3.159-.679-.13-.219-.216-2.17-.216-4.34v-3.922l1.146.109c.606.044 1.494.285 1.926.504zm9.782-9.511c.086.087.411.197.735.219.325.044.758.285.974.548.368.438.39 1.052.325 8.722-.065 8.964-.065 8.986-1.277 8.986-.325 0-.671.087-.736.219-.086.153 1.255.219 3.895.219s3.982-.066 3.895-.219c-.064-.132-.519-.219-.973-.219-.455 0-.974-.154-1.147-.329-.498-.504-.628-2.849-.541-10.322.065-7.408.086-7.539 1.277-7.539.324 0 .67-.11.735-.219.087-.154-1.168-.22-3.592-.22-2.056 0-3.657.066-3.57.154zm92.661.044c.108.109.476.241.844.285 1.19.131 1.212.35 1.147 9.292-.065 8.832-.065 8.854-1.277 8.854-.325 0-.671.087-.736.219-.086.153 1.255.219 3.895.219s3.982-.066 3.895-.219c-.065-.132-.497-.219-.952-.219-.433 0-.995-.132-1.233-.307-.39-.307-.411-.68-.476-8.503-.044-9.03-.044-9.139 1.212-9.402 1.514-.307.844-.417-2.77-.417-2.316 0-3.679.088-3.549.198zm10.473.065c2.034.57 1.796.176 5.54 9.38 1.493 3.682 3.008 7.408 3.376 8.262.346.877.779 1.6.909 1.6.151 0 .584-.657.952-1.49 1.168-2.63 5.713-13.04 6.34-14.596.801-1.906 1.58-2.98 2.208-2.98.259 0 .627-.11.8-.219.217-.154-.692-.22-2.77-.22-2.012 0-3.051.088-2.964.22.065.109.411.219.757.219 1.147 0 1.147-.066-1.471 6.684-3.052 7.802-2.987 7.67-3.16 7.21-1.579-4.142-4.566-12.185-4.696-12.645-.238-.855-.043-1.249.671-1.249.347 0 .693-.11.758-.219.086-.154-1.277-.22-3.939-.198-3.029.022-3.873.088-3.311.241zm39.276-.043c.065.109.455.219.866.219 1.45 0 1.407-.198 1.407 8.876 0 8.941-.044 9.314-1.104 9.314-.325 0-.671.087-.736.219-.086.153 1.19.219 3.679.219s3.765-.066 3.679-.219c-.065-.132-.455-.219-.844-.219-1.428 0-1.537-.241-1.602-4.033l-.086-3.419h1.385 1.406l1.97 2.827c2.034 2.871 3.505 4.471 4.501 4.844.735.285 5.128.285 4.955 0-.065-.132-.411-.219-.736-.219-.692 0-2.228-.965-3.202-1.995-.39-.416-1.71-2.016-2.943-3.572l-2.229-2.805 1.103-1.14c2.056-2.082 2.684-4.602 1.667-6.64-1.082-2.126-2.272-2.477-8.526-2.477-3.116 0-4.696.066-4.61.22zm8.548 1.314c1.537.789 2.294 2.477 2.099 4.734-.216 2.849-1.536 4.077-4.003 3.682l-1.234-.197-.065-4.055c-.021-2.213 0-4.164.044-4.317.173-.46 2.185-.351 3.159.153zm28.024-1.314c.064.109.411.219.757.219 1.298 0 1.32.175 1.255 9.139-.065 8.81-.108 9.051-1.255 9.051-.346 0-.693.087-.757.219-.087.153 1.255.219 3.895.219s3.981-.066 3.895-.219c-.065-.132-.498-.219-.952-.219-.433 0-.996-.132-1.234-.307-.389-.307-.411-.68-.476-8.503-.043-6.246.022-8.306.217-8.701.173-.329.627-.635 1.146-.811.758-.219.433-.263-2.878-.285-2.445-.022-3.7.044-3.613.198zm32.264.306c1.255.592 1.775 1.25 4.393 5.589 2.813 4.668 2.683 4.317 2.792 7.692.108 3.638-.152 4.668-1.147 4.778-.346.044-.736.175-.844.285-.13.109 1.363.197 3.852.197 2.64 0 4.003-.066 3.916-.219-.064-.132-.519-.219-.973-.219-.455 0-.974-.154-1.147-.329-.433-.438-.649-2.63-.541-5.413.065-2.192.108-2.323 1.06-4.12 1.32-2.499 3.614-6.202 4.458-7.233.498-.569.995-.898 1.688-1.073.541-.132.974-.285.974-.351s-1.342-.11-2.965-.11c-2.943 0-2.986.022-2.467.417.411.329.498.526.39 1.052-.13.679-3.831 7.714-4.069 7.736-.238 0-4.522-7.846-4.522-8.306 0-.263.129-.46.303-.46.173 0 .389-.11.454-.219.087-.154-1.06-.22-3.289-.198h-3.419zm-389.6441 17.336v1.205h14.9311 14.932v-1.205-1.206h-14.932-14.9311zm57.4971 16.02c-.087.088-.174 2.148-.174 4.558-.021 2.433-.086 5.15-.173 6.049-.108 1.403-.194 1.644-.562 1.709-.238.044-.52.176-.65.285-.108.11.715.198 2.056.176 2.099 0 2.207-.022 1.515-.285-.974-.351-1.017-.614-1.06-5.238l-.022-3.66 4.458 4.602c2.467 2.521 4.587 4.603 4.739 4.603.195 0 .303-1.469.411-5.83.087-3.222.216-5.983.281-6.136.065-.176.282-.307.498-.307.238 0 .455-.088.541-.219.065-.11-.692-.198-1.991-.176-2.012 0-2.077.022-1.428.307.433.175.736.504.801.789.108.592.368 8.284.281 8.284s-5.929-6.005-7.963-8.174c-.758-.833-1.472-1.425-1.558-1.337zm20.319.066c-.043.065-.151.613-.259 1.227l-.152 1.096.519-.592c.455-.504.736-.592 2.316-.723l1.774-.132v5.435c0 2.981-.086 5.545-.173 5.698-.086.154-.411.351-.692.482-.39.154.173.22 2.164.198 2.272 0 2.575-.044 1.947-.241-.411-.132-.822-.351-.909-.461-.086-.131-.173-2.695-.173-5.698v-5.435l1.472.132c1.947.219 2.164.285 2.532.964.303.57.303.57.324-.635v-1.228l-3.938.088c-2.186.044-4.566 0-5.324-.11-.735-.109-1.385-.131-1.428-.065zm51.871.022c-2.857.591-4.783 2.783-4.999 5.719-.26 3.748 1.904 6.356 5.821 7.013 1.428.242 4.111.088 4.761-.263.216-.109.432-.591.519-1.117.065-.526.195-1.118.238-1.337.065-.197.022-.373-.108-.373s-.238.154-.238.329c0 .723-1.169 1.644-2.337 1.863-3.895.723-7.077-2.805-6.341-7.057.498-2.849 1.926-4.12 4.588-4.12 2.121.022 3.873 1.008 3.873 2.235 0 .198.109.439.217.504.13.088.216-.46.216-1.49v-1.643l-1.623-.242c-1.839-.263-3.246-.284-4.587-.021zm16.943.197c-.064.197-.173.745-.259 1.227l-.152.877.541-.57c.433-.482.779-.592 2.208-.701.93-.088 1.774-.088 1.882-.022.217.131.26 6.881.043 9.38-.129 1.621-.151 1.709-.8 1.972-.606.263-.411.307 2.012.307 2.424.022 3.29-.154 1.796-.351-.324-.044-.649-.197-.735-.329-.087-.153-.173-2.717-.173-5.72v-5.435l1.471.132c1.948.219 2.164.285 2.532.964.303.57.303.57.324-.635v-1.228l-3.938.088c-2.186.044-4.566 0-5.302-.11-1.168-.153-1.363-.131-1.45.154zm36.117-.263c-1.623.372-2.164.613-3.138 1.402-1.558 1.25-2.25 2.784-2.25 5.019 0 2.761 1.298 4.909 3.635 5.939 1.667.767 4.328.701 6.016-.109 1.32-.636 2.272-1.578 3.03-3.047.411-.767.497-1.271.497-3.002 0-1.885-.065-2.192-.627-3.222-.346-.635-1.017-1.424-1.537-1.797-1.428-1.03-3.981-1.578-5.626-1.183zm3.398 1.512c.605.438 1.146 1.096 1.579 1.929.563 1.139.628 1.49.649 3.287 0 1.709-.086 2.169-.562 3.221-.476 1.03-.736 1.315-1.602 1.732-2.142 1.052-4.522.153-5.821-2.192-.562-1.03-.67-1.446-.735-3.199-.109-2.258.129-3.244.995-4.296.801-.964 1.666-1.293 3.224-1.205 1.082.044 1.537.197 2.273.723zm25.643-1.534c-.087.088-.152 2.345-.152 4.997 0 2.673-.065 5.369-.151 6.026-.109 1.03-.195 1.206-.801 1.469s-.476.285 1.601.285c1.861-.022 2.143-.066 1.58-.241-.368-.132-.757-.395-.844-.592-.086-.197-.195-2.17-.26-4.405l-.086-4.055 4.479 4.668c2.467 2.543 4.609 4.647 4.739 4.647.282 0 .563-5.107.563-9.884 0-1.447.087-1.995.346-2.258.173-.197.411-.306.52-.241.108.066.238.022.324-.109.087-.132-.606-.219-1.991-.219-2.012.021-2.077.043-1.428.328.433.176.736.504.801.811.065.285.151 2.279.216 4.449l.13 3.945-4.717-4.887c-2.597-2.674-4.783-4.8-4.869-4.734zm67.169.088c-2.943.635-4.869 3.133-4.869 6.355 0 2.805 1.277 4.865 3.744 5.983 1.536.723 4.263.657 5.908-.153 4.241-2.039 4.977-8.482 1.276-11.134-.432-.306-1.103-.657-1.514-.81-1.039-.351-3.419-.483-4.545-.241zm3.441 1.161c2.489 1.337 3.527 5.479 2.142 8.701-.627 1.468-1.623 2.082-3.462 2.082-1.969 0-3.03-.724-4.047-2.762-.671-1.315-.735-1.622-.735-3.287 0-2.586.562-3.879 2.099-4.822.952-.591 2.813-.547 4.003.088zm-233.925-.877c.303.132.606.351.692.483.195.263.217 10.3.044 10.979-.065.241-.39.548-.693.68-.476.197-.043.241 2.013.263 1.752 0 2.488-.044 2.272-.198-.173-.109-.498-.219-.714-.219-.671 0-.801-1.008-.801-6.048 0-4.91.108-5.786.757-5.786.152 0 .368-.11.433-.219.087-.132-.692-.219-2.207-.198-1.948 0-2.251.044-1.796.263zm42.5-.131c.087.088.303.175.476.197.974.154.952 0 .952 5.83 0 3.046-.086 5.654-.173 5.764-.086.131-.389.35-.692.482-.455.219-.087.263 2.056.263 1.752.022 2.488-.044 2.272-.198-.173-.109-.476-.219-.671-.219-.541 0-.628-.46-.628-3.419v-2.739l3.203.066 3.181.065v2.806c0 2.52-.043 2.849-.411 3.112-.216.175-.498.263-.584.197-.109-.066-.195 0-.195.109 0 .154.887.242 2.51.242 1.601 0 2.445-.088 2.359-.22-.065-.131-.368-.219-.671-.219-.368 0-.584-.175-.736-.57-.238-.591-.303-9.949-.086-10.782.086-.263.303-.482.541-.482.216 0 .454-.11.519-.219.087-.132-.736-.219-2.315-.198-2.294.022-2.402.022-1.753.329.865.373.974.767.887 3.156l-.065 1.863-3.203.066-3.202.065.065-2.476c.065-2.389.086-2.477.562-2.542.26-.044.476-.154.476-.263 0-.11-1.082-.198-2.402-.198-1.341 0-2.358.066-2.272.132zm17.117.088c.238.087.606.219.822.284.347.11.368.57.368 5.589 0 3.002-.065 5.61-.129 5.808-.065.197-.303.35-.52.35-.238 0-.476.11-.541.219-.086.154 1.125.22 3.701.176l3.851-.066.174-.877c.238-1.139.108-1.731-.217-.942-.324.789-.887 1.052-2.207 1.052-1.904 0-1.948-.066-1.948-2.959v-2.52h1.364c1.514 0 1.752.11 2.012.877.152.46.195.328.325-.767.151-1.228.043-1.885-.173-1.271-.065.197-.65.284-1.818.284h-1.71v-2.301-2.301h1.147c1.623 0 2.099.197 2.445.964.282.68.282.68.303.11 0-.329.065-.855.13-1.205l.108-.636-3.96-.022c-2.185-.022-3.765.044-3.527.154zm31.659.197.693.438v5.194c0 2.871-.065 5.413-.13 5.676-.065.241-.39.548-.693.68-.454.175-.043.241 1.969.241 1.385.022 2.532-.022 2.532-.066s-.303-.175-.692-.285c-.476-.11-.758-.351-.844-.723-.087-.285-.152-2.762-.173-5.479-.022-5.15 0-5.347.952-5.851.346-.198-.108-.242-1.948-.263h-2.38zm18.329-.219c.065.109.26.219.411.219.563 0 2.467 2.652 4.025 5.632.606 1.14.649 1.381.649 3.594 0 2.236-.021 2.389-.476 2.63-.281.154-.519.241-.563.219-.043-.044-.129 0-.194.066s1.017.11 2.402.11c1.579 0 2.488-.066 2.402-.198-.065-.131-.368-.219-.649-.219-.715 0-.823-.526-.715-3.331l.065-2.257 1.407-2.411c1.601-2.739 2.467-3.835 3.029-3.835.239 0 .477-.11.541-.219.087-.132-.541-.219-1.709-.219-1.104 0-1.861.087-1.861.219 0 .109.108.219.216.219.476 0 .152 1.052-.973 3.2-.671 1.249-1.277 2.301-1.364 2.366-.195.11-3.073-4.865-3.073-5.303 0-.132.109-.263.217-.263.13 0 .216-.11.216-.219 0-.132-.844-.219-2.077-.219-1.32 0-2.013.087-1.926.219zm35.727.022c.238.087.584.219.801.284.346.11.368.57.368 5.655 0 3.046-.087 5.654-.174 5.807-.086.154-.411.351-.692.482-.411.154.151.22 2.164.22 1.818.022 2.597-.044 2.38-.198-.173-.109-.541-.219-.779-.219-.649 0-.735-.35-.735-3.309v-2.608h1.32c1.514 0 2.142.263 2.164.942.043.702.346-.591.389-1.599.022-.57-.043-.68-.238-.483-.151.154-.931.263-1.948.263h-1.687v-2.301-2.301h1.363c1.58 0 2.337.329 2.553 1.096.13.46.152.46.173.11.022-.242.087-.789.152-1.228l.108-.767h-4.047c-2.228 0-3.851.066-3.635.154zm33.087-.066c.065.066.325.153.606.197.26.044.563.175.692.307.13.131.217 2.257.217 5.698 0 5.15-.022 5.523-.411 5.786-.217.175-.498.263-.585.197-.108-.066-.194 0-.194.109 0 .154 1.233.242 3.678.242h3.679l.217-.57c.129-.307.216-.877.216-1.249v-.702l-.433.702c-.238.394-.671.767-.974.854-.844.219-2.726-.022-2.943-.372-.108-.176-.194-1.359-.194-2.674v-2.345h1.514c1.515 0 1.537.022 1.818.679l.281.68.152-1.03c.216-1.622.195-1.688-.281-1.425-.238.11-1.104.219-1.948.219h-1.536v-2.301-2.301h1.255c1.471 0 2.25.351 2.423 1.096l.13.548.152-.548c.086-.307.151-.855.151-1.227v-.68h-3.895c-2.164-.022-3.852.044-3.787.11zm10.539.329c.432.372.865 1.402 1.904 4.646 2.272 6.991 2.618 7.867 2.921 7.517.152-.154.931-1.973 1.71-4.011.8-2.06 1.558-4.01 1.709-4.339.26-.592.303-.526 1.537 2.52 1.947 4.756 2.553 6.093 2.726 5.983.109-.066.844-2.104 1.623-4.558 2.251-6.86 2.597-7.693 3.29-7.978.519-.197.281-.241-1.342-.263-1.839 0-1.926.022-1.342.329.325.175.585.395.585.482 0 .154-.693 2.608-1.797 6.356-.303 1.008-.584 1.885-.649 1.928-.043.066-.909-1.884-1.882-4.295-.996-2.411-1.883-4.449-1.97-4.515-.259-.153-.432.241-2.034 4.625-.8 2.169-1.515 4.076-1.601 4.229-.087.154-.649-1.402-1.277-3.506-1.406-4.778-1.493-5.216-1.06-5.216.195 0 .411-.11.476-.219.086-.132-.628-.219-1.991-.219h-2.121zm23.435-.285c.087.131.26.219.412.219.476 0 1.558 1.359 3.029 3.791 1.688 2.762 1.969 3.814 1.753 6.159-.152 1.621-.173 1.687-.822 1.994-.628.263-.476.285 2.012.285 2.272 0 2.575-.044 1.948-.241-.411-.132-.823-.351-.909-.461-.087-.131-.173-1.249-.173-2.498 0-2.476.043-2.608 1.904-5.742 1.472-2.498 1.774-2.871 2.554-3.2.411-.175.735-.35.735-.416 0-.044-.844-.088-1.861-.088-1.774 0-1.839.022-1.493.417.303.329.303.482.065 1.03-.519 1.183-2.402 4.668-2.532 4.668s-2.705-4.624-2.964-5.326c-.065-.219-.022-.372.108-.372s.238-.088.238-.219c0-.11-.887-.198-2.056-.198-1.255 0-2.012.088-1.948.198zm29.971.087.758.285.065 5.348c.021 2.936 0 5.544-.044 5.785-.064.263-.389.57-.714.702-.497.175-.108.219 1.991.241 1.731.022 2.489-.044 2.272-.176-.173-.109-.497-.219-.714-.219-.562 0-.8-.898-.8-2.98v-1.841h.93c.931 0 .952.022 2.099 1.687 2.142 3.112 2.857 3.594 5.28 3.551h1.104l-.866-.395c-.476-.219-1.32-.876-1.882-1.468-1.147-1.227-3.203-3.792-3.203-4.033 0-.065.26-.372.563-.679 1.406-1.337 1.839-3.2 1.038-4.537-.671-1.183-1.536-1.424-5.28-1.512-2.964-.044-3.267-.022-2.597.241zm5.389 1.14c1.623 1.381 1.255 4.843-.563 5.194-.325.066-.909.066-1.298 0l-.714-.132v-2.805-2.827h.952c.714 0 1.125.154 1.623.57zm7.768-1.162c.39.154.801.417.909.592.238.373.282 9.051.065 10.366-.086.614-.26.899-.627 1.052-.282.088-.52.241-.52.307s1.082.11 2.424.11c2.164 0 2.921-.176 1.645-.373-.26-.044-.563-.197-.65-.351-.086-.131-.173-1.49-.173-3.002 0-2.257.043-2.674.282-2.411.151.176 1.146 1.359 2.207 2.586 2.705 3.2 2.943 3.353 5.215 3.507 1.385.087 1.839.044 1.731-.132-.086-.153-.303-.263-.476-.263-.801 0-2.164-1.052-4.306-3.331-1.277-1.359-2.489-2.739-2.727-3.046l-.389-.57 2.337-2.323c1.796-1.775 2.532-2.367 3.224-2.564.498-.132.909-.285.909-.329 0-.066-.887-.109-1.948-.109h-1.947l.13.525c.108.439-.13.811-1.364 2.148-.822.877-1.796 1.951-2.185 2.367l-.693.767v-2.411c0-1.336.087-2.52.173-2.629.087-.132.39-.351.693-.483.454-.219.065-.263-2.056-.263-2.272.022-2.51.044-1.883.263z"/><g clip-rule="evenodd" fill-rule="evenodd"><path d="m296.914 84.8838c-2.084 0-4.744.2929-6.47.2929-.359 0-1.293 0-1.293-.7323 0-.5866.503-1.2465 2.659-1.6123 1.582-.2937 3.236-.5138 3.236-4.7644v-34.4437c0-1.3917-3.02-1.2453-4.89-1.3917-1.653-.1477-2.156-.1477-2.156-.9528 0-1.2462 1.942-1.2462 2.804-1.2462h6.542c3.522 0 6.901-.4385 11.501-.4385 15.097 0 27.318 7.6212 27.318 25.283 0 10.993-9.921 20.006-22.285 20.006zm4.314-9.1599c0 5.1294 4.528 7.4011 9.202 7.4011 5.607 0 18.977-4.7623 18.977-19.6402 0-15.0223-13.226-21.6923-22.141-21.6923-5.895 0-6.038 1.3185-6.038 2.3446zm41.639.0729c0-4.4699.143-11.286.143-15.609 0-1.0264-1.221-1.1737-2.084-1.393-1.726-.4394-2.157-.5858-2.157-1.0992 0-.6595.79-.6595 1.797-.6595 1.006 0 2.012.1477 3.091.1477 1.007 0 2.085-.1477 3.163-.1477.934 0 1.079.3665 1.079 1.393 0 6.5211-.145 13.0434-.145 19.5666 0 3.0053 2.157 4.6892 5.68 4.6892 7.978 0 8.554-3.4443 8.626-6.4488 0-5.2029.144-10.4796.144-15.6838 0-.8779-.36-.8779-3.738-1.7575-.575-.1464-2.084-.5858-2.084-1.1729 0-.4381.789-.5858 1.58-.5858 1.222 0 2.445.1477 3.667.1477 1.437 0 2.803-.1477 4.24-.1477.504 0 1.51.2193 1.51 1.5394 0 7.4011-.287 14.8031-.287 22.2042 0 1.5386 1.222 1.7587 1.869 1.7587 2.804 0 3.739 0 3.739.7335 0 .5859-.36.7331-1.438.8796-5.032.8063-7.98 1.465-8.626 1.465-.576 0-.576-.5134-.576-1.1721v-1.6847c0-.5871-.144-.88-.503-.88-1.15 0-4.242 4.3234-10.064 4.3234-6.758 0-8.626-4.1769-8.626-10.4063zm36.599-32.6113c0-3.8849-3.523-2.6392-3.523-4.0313 0-.513.504-.6595 1.51-1.0261l4.888-1.9044c.36-.1472.791-.1472 1.223-.1472.359 0 .79.2193.79 1.3201v30.1195c0 .8051.143 1.1717.648 1.1717.718 0 11.716-6.596 11.716-7.9141 0-1.9052-2.73-1.9052-2.73-3.0041 0-.367.574-.7335 1.006-.7335 1.51 0 3.666.1473 5.534.1473 1.797 0 3.954-.1473 5.392-.1473.647 0 1.366.1473 1.366.8787 0 .8072-2.515 1.3202-3.522 1.7596-2.085.9528-13.875 7.9153-13.875 8.7205 0 .513.36.8051.576 1.026l12.435 11.5052c2.948 2.7124 5.68 2.4931 5.68 3.5183 0 .3666-.718.7323-1.869.7323-1.51 0-3.38-.2929-5.536-.2929-1.869 0-3.594.2929-5.32.2929-1.509 0-2.156-.0736-2.156-.7323 0-.6595.863-.88 2.085-1.0252.72-.0749 1.367-.5134 1.367-1.0265 0-.3665-.362-.7343-.791-1.1724l-10.856-10.4801c-.215-.22-.502-.4393-.647-.4393-.288 0-.503.0728-.503.3665v10.4064c0 1.6111.935 2.1241 1.581 2.3454 1.15.3657 2.086.3657 2.086 1.0252 0 .5858-.936.7323-1.654.7323-1.725 0-3.235-.2929-4.817-.2929-1.726 0-3.953.2929-5.176.2929-.431 0-1.725-.0736-1.725-.7323 0-.6595.575-.8059 1.294-1.0252 2.013-.5871 3.523-.3666 3.523-3.4447zm34.414 24.6963c-.143.4394-.143 1.3938-.143 2.5647 0 6.1574 1.653 12.2384 10.422 12.2384 5.536 0 5.679-2.9305 6.83-2.9305.359 0 .647.2201.647.5859 0 .513-3.02 5.8628-10.496 5.8628-7.907 0-12.436-5.7164-12.436-14.8762 0-6.8897 4.169-15.4637 13.083-15.4637 8.268 0 11.071 7.1822 11.071 10.3343 0 1.3186-.215 1.6839-1.439 1.6839h-17.539zm14.234-5.79c0-2.491-2.301-4.4699-5.32-4.4699-5.176 0-8.268 5.1306-8.268 7.4019 0 .5135.145.6607 6.255.6607 6.326 0 7.333-.9544 7.333-3.5927zm-134.099 29.4523v5.3106c.056 1.4897.893 2.3883 2.22 2.3883 1.326 0 2.164-.8986 2.22-2.3883v-5.3106h.726v5.3223c-.023 1.7616-.993 3.0583-2.946 3.0583s-2.922-1.2967-2.944-3.0583v-5.3223zm15.556 0h.826l4.439 7.2211h.023v-7.2211h.725v8.2099h-.915l-4.35-7.0961h-.023v7.0961h-.725zm16.469 8.2111h.726v-8.2435h-.726zm13.721-.7408h.024l2.555-7.4703h.723l-2.911 8.2099h-.825l-2.945-8.2099h.79zm12.912.7396v-8.2099h4.786v.6829h-4.06v2.9446h3.904v.6817h-3.904v3.2177h4.228v.683zm15.618 0h-.725v-8.2099h2.632c.704 0 1.283.0457 1.897.4329.557.3407.825.9322.825 1.7158 0 .8881-.614 1.5245-1.55 1.764v.0207c1.026.1715 1.248.8771 1.349 1.8315.145 1.3303.102 1.9441.425 2.445h-.838c-.189-.5458-.234-1.126-.278-1.7054-.167-1.876-.279-2.2062-1.74-2.2062h-1.997v3.912zm1.551-4.5929c1.026 0 2.297-.07 2.297-1.4683 0-1.5807-1.45-1.4658-2.219-1.4658h-1.629v2.9341zm15.266 4.7636c-1.283 0-2.364-.9552-2.398-2.309h.78c.023 1.2631.938 1.6273 2.019 1.6273.905 0 1.941-.5349 1.941-1.5808 0-.8196-.58-1.2052-1.26-1.4338-1.305-.4422-3.291-.8638-3.291-2.6375 0-1.4331 1.294-2.2175 2.565-2.2175 1.06 0 2.444.3758 2.622 1.9565h-.781c-.022-1.0122-.925-1.2744-1.751-1.2744-.836 0-1.873.4317-1.873 1.433 0 2.3325 4.55 1.2733 4.55 4.105 0 1.7854-1.506 2.3312-3.123 2.3312zm13.208-.1695h.726v-8.2435h-.726zm12.984-7.5282h-2.599v-.6829h5.89v.6829h-2.553l-.012 7.527h-.715zm15.384 3.9799-2.967-4.6628h.926l2.465 3.969 2.465-3.969h.781l-2.945 4.6386v3.5713h-.725z"/><path d="m36.6352 249.301c0-.859-.0267-2.456-.2606-2.87-.0979-.168-.3454-.264-.6882-.293l-.3448-.026c-.0824-.1-.0548-.278.026-.335.525.028 1.034.041 1.5699.041.5784 0 .9493-.013 1.4461-.041.1099.07.0955.249.0284.335l-.3321.026c-.3441.029-.6044.152-.6876.334-.1917.456-.1917 2.051-.1917 2.829v1.57c0 1.205-.1929 2.483-.9653 3.313-.5921.653-1.6119 1.014-2.6289 1.014-.9489 0-1.8991-.181-2.5728-.763-.7289-.611-1.0746-1.622-1.0746-3.273v-3.275c0-1.442-.0266-1.679-.8257-1.749l-.342-.026c-.0829-.057-.0563-.294.0261-.335.6876.028 1.1567.041 1.7064.041.5654 0 1.0196-.013 1.692-.041.0839.041.1119.278.0289.335l-.3304.026c-.7983.07-.8251.307-.8251 1.749v2.997c0 2.233.687 3.701 2.7926 3.701 1.9964 0 2.7534-1.579 2.7534-3.688zm17.9857 3.317c0 .416 0 2.066.0413 2.427-.0268.082-.1106.154-.2618.154-.1641-.237-.5638-.723-1.7607-2.094l-3.1937-3.663c-.3717-.431-1.3075-1.568-1.5973-1.874h-.0267c-.0551.167-.0694.487-.0694.9v3.024c0 .653.0143 2.458.2486 2.873.0824.154.3578.236.703.262l.4259.044c.0815.11.0686.276-.0283.346-.6183-.027-1.1006-.041-1.6104-.041-.5769 0-.948.014-1.4316.041-.0962-.07-.1107-.261-.0268-.346l.3709-.044c.3175-.041.5382-.123.6059-.278.1925-.495.1802-2.19.1802-2.857v-4.008c0-.388-.0143-.679-.3037-.999-.1931-.194-.5242-.291-.8533-.332l-.2328-.028c-.0839-.084-.0839-.291.0253-.348.5784.041 1.3095.041 1.5546.041.2228 0 .4564-.013.6342-.041.2755.708 1.9009 2.541 2.3534 3.053l1.3355 1.512c.951 1.067 1.625 1.846 2.2722 2.512h.026c.0563-.069.0563-.292.0563-.584v-2.969c0-.652-.0143-2.455-.2754-2.87-.0824-.126-.3031-.211-.854-.278l-.2335-.028c-.0955-.084-.0838-.307.0281-.348.6313.028 1.1006.041 1.6233.041.5917 0 .9494-.013 1.4164-.041.1107.07.1107.264.0283.348l-.1922.028c-.4406.067-.7158.179-.7703.292-.2343.5-.2075 2.218-.2075 2.856zm10.2521-4.689c0-1.472-.0276-1.709-.8402-1.776l-.3446-.028c-.0837-.057-.0539-.307.0277-.348.6876.029 1.1571.041 1.7346.041.5503 0 1.0182-.012 1.707-.041.081.041.1081.291.0262.348l-.3433.028c-.8115.067-.8396.304-.8396 1.776v4.938c0 1.469.0281 1.665.8396 1.76l.3433.044c.0819.055.0548.304-.0262.346-.6888-.027-1.1567-.042-1.707-.042-.5775 0-1.047.015-1.7346.042-.0816-.042-.1114-.262-.0277-.346l.3446-.044c.8126-.095.8402-.291.8402-1.76zm11.1458-.638c-.3158-.777-.5224-1.071-1.1151-1.138l-.2486-.028c-.0947-.084-.0825-.278.0288-.348.3993.028.839.042 1.4307.042.6066 0 1.0878-.014 1.6659-.042.0975.057.124.264.0279.348l-.206.028c-.5235.067-.6334.151-.6474.263.0277.139.2608.89.6882 1.943.6322 1.609 1.2675 3.203 1.9557 4.786.4245-.915 1.0038-2.344 1.3203-3.081.3992-.942 1.0464-2.509 1.2798-3.106.1109-.291.1246-.444.1246-.542 0-.097-.1383-.208-.6195-.263l-.2492-.028c-.0962-.084-.0678-.291.0283-.348.3861.028.9091.042 1.4312.042.4556 0 .8815-.014 1.3346-.042.0968.057.0968.276.0289.348l-.413.028c-.3296.026-.5375.195-.7171.486-.3847.652-.9204 1.777-1.541 3.19l-.7431 1.706c-.5509 1.278-1.197 2.885-1.432 3.622-.0402.026-.0962.04-.1496.04-.0694 0-.1378-.014-.2075-.04-.1526-.585-.3989-1.262-.6333-1.846zm16.5686.611c0-1.445-.0274-1.653-.8384-1.748l-.2209-.029c-.0821-.057-.0548-.306.0278-.348.5919.028 1.0589.042 1.6233.042h2.5875c.8816 0 1.6946 0 1.8593-.042.0815.237.1649 1.235.2203 1.846-.0554.085-.2753.111-.3439.028-.206-.651-.3296-1.137-1.0473-1.319-.2885-.069-.7286-.083-1.3353-.083h-.9904c-.4108 0-.4108.028-.4108.556v2.773c0 .39.0412.39.4519.39h.801c.5751 0 1.0023-.028 1.167-.084.168-.055.263-.139.3317-.486l.112-.569c.0661-.083.2993-.083.3556.013 0 .335-.0563.877-.0563 1.404 0 .499.0563 1.027.0563 1.329-.0563.099-.2895.099-.3556.015l-.1271-.538c-.0536-.251-.1486-.458-.4243-.529-.1928-.057-.5255-.069-1.0593-.069h-.801c-.4107 0-.4519.012-.4519.376v1.955c0 .734.0412 1.207.2582 1.441.1676.165.456.318 1.6674.318 1.0604 0 1.4584-.055 1.7625-.208.2481-.137.6192-.622.9757-1.345.0968-.068.2914-.028.344.099-.0962.486-.4396 1.552-.6205 1.927-1.2377-.027-2.4617-.042-3.6861-.042h-1.2406c-.5918 0-1.0593.015-1.8717.042-.0838-.042-.109-.262-.0273-.346l.4532-.044c.7853-.066.854-.278.854-1.731zm16.0456 1.997c0 .248 0 .401.041.459.041.041.248.067.95.067.496 0 1.019-.055 1.418-.361.37-.29.686-.775.686-1.718 0-1.098-.671-2.138-2.202-2.138-.852 0-.893.055-.893.443zm-1.13-1.984c0-1.319-.041-1.555-.605-1.624l-.441-.055c-.096-.069-.096-.293.016-.347.768-.07 1.721-.112 3.067-.112.856 0 1.665.07 2.299.417.66.347 1.142.971 1.142 1.944 0 1.316-1.032 2.038-1.719 2.316-.069.083 0 .223.068.334 1.1 1.788 1.831 2.899 2.768 3.689.234.207.578.36.949.387.07.029.082.14.013.195-.123.04-.344.068-.605.068-1.17 0-1.872-.346-2.848-1.745-.359-.515-.923-1.473-1.35-2.095-.207-.306-.428-.444-.978-.444-.62 0-.646.014-.646.307v1.746c0 1.453.026 1.624.827 1.731l.287.044c.082.069.057.304-.027.346-.618-.027-1.087-.042-1.638-.042-.579 0-1.075.015-1.721.042-.081-.042-.11-.25-.027-.346l.343-.044c.799-.095.826-.278.826-1.731zm16.635 7.283c-1.155 0-1.886-.361-2.148-.514-.164-.305-.342-1.29-.371-1.941.07-.099.275-.125.333-.041.204.707.769 2.065 2.366 2.065 1.155 0 1.721-.76 1.721-1.594 0-.611-.126-1.292-1.129-1.942l-1.306-.86c-.691-.46-1.489-1.249-1.489-2.385 0-1.319 1.021-2.388 2.809-2.388.426 0 .92.083 1.279.179.179.057.37.083.482.083.123.334.247 1.111.247 1.695-.054.083-.275.124-.342.041-.18-.668-.551-1.57-1.874-1.57-1.347 0-1.638.902-1.638 1.542 0 .806.662 1.387 1.17 1.704l1.102.696c.867.54 1.722 1.344 1.722 2.662 0 1.527-1.144 2.568-2.934 2.568zm12.288-7.269c0-1.472-.025-1.709-.839-1.776l-.344-.028c-.083-.057-.054-.307.028-.348.689.029 1.155.041 1.732.041.554 0 1.019-.012 1.711-.041.082.041.108.291.026.348l-.346.028c-.81.067-.837.304-.837 1.776v4.938c0 1.469.027 1.665.837 1.76l.346.044c.082.055.056.304-.026.346-.692-.027-1.157-.042-1.711-.042-.577 0-1.043.015-1.732.042-.082-.042-.111-.262-.028-.346l.344-.044c.814-.095.839-.291.839-1.76zm15.282 4.967c0 1.453.026 1.664.823 1.731l.443.044c.083.054.053.305-.029.347-.785-.028-1.253-.042-1.804-.042s-1.03.014-1.914.042c-.083-.042-.107-.279 0-.347l.498-.044c.784-.067.851-.278.851-1.731v-6.204c0-.43 0-.441-.412-.441h-.757c-.592 0-1.347.026-1.694.345-.328.307-.467.611-.618.96-.108.081-.305.012-.359-.098.222-.625.428-1.516.524-2.069.042-.025.221-.041.261 0 .083.445.539.429 1.171.429h5.576c.743 0 .866-.026 1.072-.386.07-.026.222-.014.247.04-.153.569-.247 1.693-.205 2.111-.054.111-.288.111-.359.026-.041-.346-.138-.859-.342-1.013-.317-.236-.84-.345-1.6-.345h-.976c-.413 0-.397.011-.397.47zm15.686-.029c0 1.482.082 1.705.826 1.76l.525.044c.081.084.054.304-.029.346-.853-.027-1.322-.042-1.872-.042-.58 0-1.075.015-1.803.042-.083-.042-.113-.262-.031-.346l.431-.044c.799-.083.823-.278.823-1.76v-.709c0-.762-.042-.941-.439-1.717l-1.623-3.193c-.47-.916-.675-.985-1.089-1.054l-.384-.069c-.085-.099-.069-.291.025-.348.442.028.938.042 1.599.042.632 0 1.126-.014 1.472-.042.123.042.123.264.042.348l-.177.028c-.483.069-.582.137-.582.249 0 .139.358.929.427 1.07.509 1.025 1.019 2.12 1.556 3.081.425-.738.881-1.543 1.294-2.346.385-.723.893-1.666.893-1.834 0-.083-.246-.179-.575-.22l-.25-.028c-.096-.099-.08-.291.029-.348.494.028.894.042 1.322.042.425 0 .81-.014 1.279-.042.111.071.124.264.03.348l-.388.069c-.716.125-1.13 1-1.817 2.194l-.865 1.511c-.609 1.056-.649 1.179-.649 2.246z"/><path d="m96.5879 191.577c-.6978-.271-1.4117-.486-2.1379-.644-.1553.506-.3599.996-.6106 1.466.5798.121 1.1545.285 1.7149.497.4021-.387.7494-.831 1.0336-1.319zm-9.3141 1.319c.556-.209 1.1259-.374 1.7071-.495-.2524-.472-.4591-.962-.6139-1.465-.7223.156-1.4315.372-2.1278.641.2832.488.6322.932 1.0346 1.319zm-1.0346-7.419c.6963.272 1.4055.485 2.1278.643.1548-.504.3615-.993.612-1.463-.5793-.122-1.1492-.286-1.7052-.496-.4024.388-.7514.831-1.0346 1.316zm9.3151-1.316c-.5604.21-1.1317.376-1.7149.498.2529.47.4553.958.6106 1.462.7262-.156 1.4401-.372 2.1379-.644-.2842-.485-.6315-.928-1.0336-1.316zm1.8439 4.081c-.036-.801-.2267-1.564-.548-2.257-.7332.291-1.4844.519-2.2481.686.1207.513.1899 1.04.2084 1.571zm-2.7961 2.143c.7637.167 1.5149.397 2.2481.685.3213-.691.512-1.454.548-2.258h-2.5877c-.0185.532-.0877 1.06-.2084 1.573zm-.5538-.111c.1115-.478.1802-.966.1981-1.462h-2.5504v1.23c.7947.017 1.5809.092 2.3523.232zm-.7923 2.018c.2623-.469.475-.963.637-1.468-.7223-.126-1.455-.197-2.197-.21v1.539c.5216.012 1.0427.058 1.56.139zm-.9821 2.215c1.0389-.154 1.9887-.572 2.7854-1.186-.4956-.171-1.0043-.305-1.5163-.404-.3567.569-.7788 1.102-1.2691 1.59zm.6538-1.691c-.4075-.053-.8195-.084-1.2317-.096v1.555c.4714-.445.886-.934 1.2317-1.459zm-3.6516.104c-.5112.097-1.0137.231-1.5079.401.7911.613 1.7399 1.031 2.7754 1.184-.4887-.487-.9118-1.019-1.2675-1.585zm.6125-.1c.3504.525.7654 1.016 1.2415 1.464v-1.564c-.4136.012-.8293.045-1.2415.1zm-.9603-1.995c.1596.507.3723 1 .6372 1.468.5182-.082 1.0411-.128 1.5646-.14v-1.539c-.7432.013-1.4779.086-2.2018.211zm-.1572-.551c.7745-.14 1.5627-.215 2.359-.232v-1.23h-2.5585c.0204.496.0839.985.1995 1.462zm-3.3418-1.462c.0359.805.2253 1.567.5465 2.258.7309-.288 1.4775-.517 2.241-.684-.1217-.514-.1907-1.041-.2097-1.574zm2.7875-2.141c-.7635-.169-1.5101-.396-2.241-.686-.3212.693-.5106 1.456-.5465 2.257h2.5778c.019-.531.088-1.058.2097-1.571zm.5528.109c-.1141.48-.1803.969-.198 1.462h2.5585v-1.23c-.7963-.014-1.585-.092-2.3605-.232zm.7935-2.015c-.2649.467-.4752.958-.6372 1.465.7263.126 1.461.199 2.2042.214v-1.538c-.5264-.013-1.0531-.059-1.567-.141zm.9805-2.214c-1.0355.151-1.9843.57-2.7754 1.183.4942.171.9967.305 1.5079.401.3557-.564.7788-1.098 1.2675-1.584zm-.655 1.685c.4122.056.8279.088 1.2415.097v-1.56c-.4761.446-.8911.938-1.2415 1.463zm3.6544-.099c.512-.098 1.0207-.232 1.5163-.403-.7967-.615-1.7465-1.034-2.7854-1.184.4903.485.9124 1.021 1.2691 1.587zm-.6141.1c-.3469-.522-.7615-1.011-1.2329-1.455v1.551c.4122-.009.8242-.04 1.2329-.096zm.9641 1.994c-.1601-.506-.3717-.997-.6353-1.464-.5147.08-1.0372.126-1.5617.139v1.538c.742-.015 1.4747-.088 2.197-.213zm-2.197 2.011h2.5504c-.0179-.493-.0853-.981-.1981-1.46-.7714.138-1.5576.216-2.3523.23zm-.2832-6.332c-3.62 0-6.5649 2.969-6.5649 6.617 0 3.65 2.9449 6.619 6.5649 6.619 3.6205 0 6.5668-2.969 6.5668-6.619 0-3.648-2.9463-6.617-6.5668-6.617zm7.698-3.338c-6.05.058-12.0909.712-17.9792 1.973 2.5961 16.577 12.8727 24.649 17.9792 27.491z" opacity=".759"/><path d="m99.9539 169.03c-2.9345-1.088-7.1361-1.324-9.6893-.785l-1.1132.872-.2979.045c-.1017.014-.1791.086-.2132.149l-3.105 6.919c-.1004.191.0559.354.2343.319 4.7271-.905 9.7392-1.184 14.1862-1.184h.0043c4.4469 0 9.4609.279 14.1869 1.184.179.035.336-.128.235-.319l-3.107-6.919c-.033-.063-.111-.135-.211-.149l-.3-.045-1.112-.872c-2.553-.539-6.756-.303-9.6897.785zm-19.4303 3.477-.0018-3.401c0-.461.3178-.846.7404-.953l.0236-.007c6.0221-1.299 12.2685-1.987 18.6722-1.987 6.397 0 12.635.686 18.648 1.982l.015.005c.44.092.774.488.774.96l-.001 3.401c0 2.235-.135 4.342-.375 6.338-12.482-2.657-25.6177-2.657-38.1193.005-.2415-1.999-.3761-4.106-.3761-6.343z" opacity=".759"/><path d="m99.7206 174.419c-3.8273-1.264-8.2132-1.455-11.3343-.86l1.5431-4.424-1.0245.783-2.1281 5.585c2.8386-.464 9.2519-.987 12.427-.943.1298-.059.2891-.141.5168-.141zm.4274 0c3.826-1.264 8.218-1.455 11.341-.86l-1.55-4.424 1.025.783 2.13 5.585c-2.839-.464-9.252-.987-12.43-.943-.127-.059-.287-.141-.516-.141zm.659 16.629v16.987c1.026-.569 2.259-1.356 3.598-2.372v-12.203zm3.598-12.366c-1.197-.057-2.399-.098-3.598-.11v4.032l3.598 2.412zm7.195 11.164v-10.521c-1.195-.154-2.393-.293-3.596-.401v8.506zm-3.596 6.03v6.634c1.208-1.21 2.428-2.614 3.596-4.21v-.011zm3.596 2.424c.002-.003.005-.003.007-.006l-.007-.005zm3.606-6.036c1.589-3.321 2.872-7.203 3.581-11.723-1.191-.255-2.385-.481-3.59-.684v12.4zm-10.801-7.246v8.444l3.599 2.414v-8.447z"/><path d="m115.197 192.257-3.597-2.411v8.445l.007.004c1.286-1.757 2.508-3.757 3.59-6.012zm0 .027c.002-.007.006-.016.009-.02l-.009-.006z" opacity=".759"/><path d="m5.718 220.921c0-3.534-.31684-3.918-2.17947-4.078l-.79027-.063c-.19087-.127-.12582-.699.06298-.795 1.83361.062 2.90676.096 4.23298.096 1.2637 0 2.33893-.034 3.60228-.096.1903.096.2539.668.0629.795l-.4722.063c-1.86326.257-1.92928.702-1.92928 4.078v11.815c0 2.515-.12565 4.713-.72442 6.176-1.04492 2.551-3.28722 4.589-6.22428 4.589-.380311 0-1.35842654-.033-1.35842654-.671 0-.539.47119854-1.463 1.13518654-1.463.37951 0 .75902.062 1.17058.189.4417.13.88483.225 1.32605.225.66367 0 1.04334-.381 1.26387-.828.72585-1.497.82152-6.276.82152-7.993z"/><path d="m26.7174 228.984c0-4.432-1.9466-9.214-7.0376-9.214-2.7723 0-6.3703 1.908-6.3703 7.791 0 3.974 1.9191 9.135 7.1707 9.135 3.198 0 6.2372-2.418 6.2372-7.712zm-16.0755-.563c0-5.374 4.0002-9.485 9.4898-9.485 6.1586 0 9.251 4.487 9.251 9.217 0 5.426-4.1049 9.376-9.251 9.376-5.9162 0-9.4898-4.273-9.4898-9.108zm24.7959.001c-1.2784 0-1.3326.054-1.3326.859v3.787c0 2.821.1338 3.197 1.6254 3.359l.773.081c.1598.105.107.59-.0534.67-1.4405-.054-2.345-.08-3.3863-.08-1.1445 0-2.0498.055-3.0906.08-.1604-.08-.2116-.511-.0518-.67l.4519-.081c1.4917-.268 1.546-.538 1.546-3.359v-9.672c0-2.821-.1853-3.278-1.5734-3.386l-.6941-.053c-.1585-.108-.1045-.592.0548-.672 1.3074.027 2.2127.08 3.3572.08 1.0413 0 1.9458-.026 3.0919-.08.1613.08.2155.564.0527.672l-.5046.053c-1.5445.163-1.5987.565-1.5987 3.386v3.09c0 .833.0542.86 1.3326.86h7.6234c1.279 0 1.3327-.027 1.3327-.86v-3.09c0-2.821-.0537-3.223-1.6247-3.386l-.5077-.053c-.1604-.108-.1072-.592.0534-.672 1.2242.054 2.1304.08 3.2265.08 1.0369 0 1.9459-.026 3.1451-.08.1565.08.2115.564.0544.672l-.5618.053c-1.5459.163-1.6008.565-1.6008 3.386v9.672c0 2.821.0549 3.171 1.6008 3.359l.6379.081c.1604.105.1076.59-.0515.67-1.2783-.054-2.1872-.08-3.2241-.08-1.0961 0-2.0534.026-3.2265.08-.1606-.08-.2138-.511-.0534-.67l.5077-.081c1.6247-.268 1.6247-.538 1.6247-3.359v-3.787c0-.805-.0537-.859-1.3327-.859zm31.5882 4.108c0 .808 0 4.004.0779 4.703-.051.16-.2106.296-.5029.296-.3216-.456-1.0948-1.397-3.4153-4.056l-6.182-7.094c-.7182-.833-2.5339-3.036-3.0922-3.627h-.0534c-.107.323-.133.94-.133 1.746v5.858c0 1.261.026 4.754.4796 5.559.1609.296.6932.459 1.3594.511l.8247.082c.162.214.1345.537-.0521.67-1.1988-.055-2.132-.081-3.1201-.081-1.1162 0-1.8357.026-2.7722.081-.1866-.133-.2116-.51-.0513-.67l.7202-.082c.6138-.081 1.0376-.24 1.1735-.537.3717-.968.3455-4.244.3455-5.533v-7.765c0-.753-.0274-1.317-.5871-1.935-.373-.375-1.0113-.563-1.6521-.646l-.4519-.051c-.1597-.162-.1597-.565.0521-.673 1.12.078 2.533.078 3.0117.078.4273 0 .8813-.025 1.2272-.078.5327 1.37 3.678 4.917 4.5558 5.91l2.5873 2.927c1.8388 2.069 3.1437 3.575 4.3972 4.864h.0542c.1059-.134.1059-.564.1059-1.128v-5.75c0-1.262-.0265-4.754-.5329-5.56-.1597-.243-.5854-.404-1.6522-.539l-.4519-.051c-.1866-.162-.161-.595.0502-.673 1.2279.053 2.1344.078 3.1466.078 1.1468 0 1.8403-.025 2.7456-.078.2132.134.2132.511.054.673l-.3742.051c-.8517.135-1.3857.351-1.4941.565-.4494.968-.3977 4.299-.3977 5.534zm7.0464 4.999c-2.2399 0-3.6535-.699-4.1604-.995-.317-.591-.6654-2.498-.7196-3.76.1361-.19.5345-.245.6407-.081.3993 1.369 1.4923 4.003 4.5837 4.003 2.2401 0 3.3337-1.477 3.3337-3.092 0-1.181-.2397-2.498-2.1879-3.759l-2.5313-1.667c-1.3334-.887-2.8772-2.42-2.8772-4.62 0-2.553 1.971-4.621 5.4356-4.621.8269 0 1.7881.16 2.4792.348.3464.109.7197.163.9308.163.2411.645.4823 2.149.4823 3.277-.1057.162-.5329.239-.6675.081-.3447-1.29-1.064-3.035-3.6241-3.035-2.611 0-3.1723 1.745-3.1723 2.981 0 1.558 1.2813 2.686 2.2656 3.305l2.1329 1.341c1.6804 1.05 3.332 2.606 3.332 5.16 0 2.954-2.2126 4.971-5.6762 4.971zm21.4977-10.717c-1.5176 0-1.581.064-1.581 1.019v4.491c0 3.343.1586 3.79 1.9275 3.981l.9169.094c.1896.129.1264.7-.0625.796-1.7053-.064-2.7819-.096-4.013-.096-1.3584 0-2.4339.064-3.6635.096-.1918-.096-.2555-.605-.0641-.796l.5369-.094c1.7687-.319 1.8323-.638 1.8323-3.981v-11.465c0-3.346-.2232-3.885-1.8636-4.013l-.8229-.064c-.188-.127-.127-.701.0639-.797 1.5471.032 2.6226.096 3.981.096 1.2311 0 2.3077-.031 3.6649-.096.1899.096.2529.67.062.797l-.6002.064c-1.8322.192-1.8956.667-1.8956 4.013v3.663c0 .987.0634 1.016 1.581 1.016h9.0359c1.517 0 1.579-.029 1.579-1.016v-3.663c0-3.346-.062-3.821-1.928-4.013l-.599-.064c-.189-.127-.126-.701.064-.797 1.451.065 2.527.096 3.823.096 1.231 0 2.305-.031 3.729-.096.187.096.251.67.06.797l-.662.064c-1.832.192-1.896.667-1.896 4.013v11.465c0 3.343.064 3.756 1.896 3.981l.758.094c.19.129.126.7-.064.796-1.516-.064-2.59-.096-3.821-.096-1.296 0-2.433.032-3.823.096-.19-.096-.253-.605-.064-.796l.599-.094c1.928-.319 1.928-.638 1.928-3.981v-4.491c0-.955-.062-1.019-1.579-1.019z" opacity=".759"/><path d="m127.304 228.984c0-4.432-1.945-9.214-7.037-9.214-2.772 0-6.37 1.908-6.37 7.791 0 3.974 1.919 9.135 7.17 9.135 3.2 0 6.237-2.418 6.237-7.712zm-16.073-.563c0-5.374 3.998-9.485 9.489-9.485 6.156 0 9.249 4.487 9.249 9.217 0 5.426-4.104 9.376-9.249 9.376-5.918 0-9.489-4.273-9.489-9.108zm23.564 4.647c0 2.822.053 3.17 1.756 3.358l.723.081c.159.133.106.591-.054.672-1.519-.056-2.398-.081-3.467-.081-1.119 0-2.078.025-3.25.081-.16-.081-.213-.511-.053-.672l.559-.081c1.547-.214 1.599-.536 1.599-3.358v-9.913c0-2.284-.052-2.742-1.252-2.876l-.959-.106c-.187-.162-.161-.564.053-.672 1.412-.188 3.064-.217 5.277-.217 2.212 0 3.865.296 5.117 1.077 1.225.78 2.132 2.176 2.132 4.029 0 2.472-1.518 3.708-2.665 4.272-1.173.564-2.585.806-3.679.806-.185-.08-.185-.483-.026-.536 2.879-.539 3.918-2.178 3.918-4.516 0-2.606-1.518-4.297-4.29-4.297-1.412 0-1.439.106-1.439.969zm11.09-9.673c0-2.82-.054-3.25-1.6-3.384l-.666-.052c-.161-.11-.107-.595.052-.675 1.306.055 2.16.08 3.359.08 1.039 0 1.947-.025 3.093-.08.16.08.213.565.052.675l-.504.052c-1.549.162-1.602.564-1.602 3.384v3.092c0 .51.053 1.022.349 1.022.238 0 .559-.163.745-.299.372-.32 1.067-1.021 1.36-1.289l2.877-2.874c.506-.482 1.814-1.854 2.079-2.231.134-.187.188-.322.188-.43 0-.105-.107-.187-.453-.268l-.719-.159c-.188-.188-.161-.539.052-.675.932.055 1.998.08 2.933.08.933 0 1.838-.025 2.638-.08.185.136.212.512.053.675-.694.052-1.732.322-2.479.75-.745.43-2.239 1.692-3.731 3.119l-2.4 2.282c-.372.377-.613.618-.613.834 0 .187.161.402.507.83 2.533 2.929 4.585 5.348 6.664 7.549.64.646 1.227.997 2.135 1.104l.717.081c.188.132.134.589-.054.671-.692-.056-1.732-.082-2.985-.082-1.091 0-2.026.026-3.252.082-.185-.056-.266-.511-.106-.671l.613-.11c.373-.053.64-.134.64-.266 0-.163-.187-.377-.374-.621-.507-.644-1.199-1.368-2.212-2.524l-2.132-2.418c-1.519-1.719-1.946-2.256-2.586-2.256-.401 0-.454.349-.454 1.291v3.464c0 2.82.053 3.196 1.547 3.359l.72.081c.158.106.107.589-.053.671-1.306-.056-2.214-.082-3.253-.082-1.093 0-1.999.026-3.09.082-.16-.082-.216-.483-.055-.671l.533-.081c1.413-.216 1.467-.539 1.467-3.359zm18.295.055c0-2.85-.053-3.305-1.627-3.439l-.665-.053c-.162-.109-.107-.592.053-.674 1.333.055 2.239.082 3.358.082 1.067 0 1.973-.027 3.306-.082.161.082.213.565.052.674l-.666.053c-1.571.134-1.625.589-1.625 3.439v9.563c0 2.85.054 3.226 1.625 3.414l.666.08c.161.107.109.59-.052.672-1.333-.055-2.239-.082-3.306-.082-1.119 0-2.025.027-3.358.082-.16-.082-.215-.511-.053-.672l.665-.08c1.574-.188 1.627-.564 1.627-3.414zm23.057 9.08c0 .808 0 4.004.08 4.702-.053.161-.21.297-.505.297-.319-.456-1.093-1.397-3.411-4.056l-6.184-7.094c-.721-.833-2.535-3.036-3.094-3.627h-.052c-.107.323-.136.94-.136 1.746v5.858c0 1.261.029 4.754.482 5.559.161.296.693.459 1.36.511l.826.082c.159.214.134.537-.053.67-1.2-.055-2.133-.081-3.12-.081-1.118 0-1.84.026-2.772.081-.186-.133-.213-.51-.054-.67l.721-.082c.614-.081 1.038-.24 1.172-.537.373-.968.348-4.244.348-5.533v-7.765c0-.753-.026-1.317-.586-1.935-.374-.375-1.014-.563-1.655-.646l-.453-.051c-.159-.162-.159-.565.055-.673 1.119.078 2.532.078 3.012.078.425 0 .878-.025 1.224-.078.535 1.37 3.681 4.917 4.558 5.91l2.588 2.927c1.838 2.069 3.143 3.575 4.396 4.864h.054c.107-.134.107-.565.107-1.128v-5.75c0-1.262-.027-4.754-.533-5.56-.159-.243-.586-.404-1.652-.539l-.452-.051c-.189-.162-.163-.595.051-.673 1.227.053 2.133.078 3.146.078 1.148 0 1.84-.025 2.746-.078.213.134.213.511.054.673l-.373.051c-.853.135-1.388.351-1.496.565-.451.968-.399 4.299-.399 5.534zm7 4.999c-2.238 0-3.651-.699-4.158-.995-.319-.591-.667-2.498-.719-3.76.134-.19.535-.245.637-.081.402 1.369 1.495 4.003 4.585 4.003 2.24 0 3.334-1.477 3.334-3.092 0-1.182-.241-2.498-2.188-3.759l-2.53-1.667c-1.333-.887-2.88-2.42-2.88-4.62 0-2.553 1.974-4.621 5.439-4.621.826 0 1.784.16 2.478.348.348.109.721.163.935.163.24.645.478 2.149.478 3.277-.105.162-.533.239-.667.081-.346-1.29-1.065-3.035-3.624-3.035-2.612 0-3.172 1.745-3.172 2.981 0 1.558 1.279 2.686 2.265 3.305l2.133 1.341c1.681 1.05 3.333 2.606 3.333 5.16 0 2.954-2.213 4.971-5.679 4.971" opacity=".759"/></g></g><path d="m230.275 29.0487c-4.896 0-8.321 3.9785-9.497 10.2451l17.232-.199c0-5.2716-3.232-10.0461-7.735-10.0461zm-.882 40.4871c-10.279 0-18.21-8.2568-18.21-19.796 0-14.1263 8.519-23.7762 20.561-23.7762 9.691 0 15.076 5.5723 15.076 14.4253v1.7902l-26.433-.199c-.196 1.0941-.295 2.8852-.295 5.0735 0 10.1469 6.266 16.8116 14.589 16.8116 4.993 0 7.539-1.7902 11.454-5.1725l1.469 2.2873c-5.581 5.1734-10.182 8.5558-18.211 8.5558zm-45.231-.7961v-2.2882c4.406-.2981 5.678-1.2922 6.462-2.9843v-51.53c0-3.38233-.49-4.77453-7.245-5.37157v-1.98923l17.917-4.5764.586 1.69206-2.838 3.58134v58.1938c.979 1.9901 2.838 2.6862 6.852 2.9843v2.2882zm-29.86-15.3195c-.392 1.5912-.685 2.9843-.685 5.1734 0 2.9834 1.664 5.9677 4.894 5.9677 2.937 0 4.602-.9941 7.246-3.0833l.097-13.4303c-2.545 1.1941-8.811 3.9803-11.552 5.3725zm19.58 16.2146c-5.286 0-7.832-3.6813-8.028-6.2667-3.329 3.5814-7.636 6.2667-11.748 6.2667-5.287 0-9.791-3.2824-9.791-8.952 0-2.7862.686-5.6714 2.056-7.9587l19.483-7.1627v-7.3617c0-4.4764-2.056-8.7539-6.462-8.7539-2.643 0-5.189 3.2824-5.384 8.3568l-8.812 1.4912v-.9941c2.937-8.9538 12.63-12.4343 17.329-12.4343 8.91 0 12.14 4.7745 12.043 12.1353l-.294 20.891c-.098 4.0784 2.056 5.0726 4.014 5.0726 1.566 0 3.132-.9942 4.994-2.8844v2.8844c-2.155 2.5872-5.972 5.6705-9.4 5.6705zm-32.112-55.0114-16.154 27.6547v18.6037c1.86 4.4756 6.559 5.0717 11.063 5.2716v2.5863h-31.623v-2.5863c4.504-.1999 9.987-.8951 11.455-3.8794v-19.1998l-16.448-28.2518c-2.8385-4.7754-5.5806-6.36569-11.063-6.76462v-2.58627h27.511v2.58627c-5.189.29807-6.853 1.29404-8.322 2.48812l15.273 26.8578 14.979-26.7596c-1.566-1.19323-3.622-2.28825-8.811-2.58632v-2.58627h23.496v2.58627c-5.286.19992-8.615 1.98922-11.356 6.56562z"/></g></g><path d="m365.195 160.32c-8.056 0-13.277 4.925-13.277 11.104 0 6.175 5.221 11.099 13.277 11.099 2.462 0 5.596-.716 7.422-2.775l.41 2.326h4.477v-11.668h-11.19v4.119h4.848c-.371 1.939-2.683 3.223-6.115 3.223-4.476 0-6.192-3.162-6.192-6.324 0-3.164 1.716-6.328 6.192-6.328 2.797 0 5.034 1.104 5.258 2.926h6.937c-.634-5.343-6.527-7.702-12.047-7.702zm92.853.45v3.878h6.34v-3.878zm-68.726 5.371c-5.706 0-10.443 3.402-10.443 8.146 0 5.193 4.29 8.236 10.594 8.236 4.326 0 8.464-1.55 9.621-5.132h-5.93c-.597 1.133-2.089 1.699-3.619 1.699-2.685 0-4.215-1.402-4.326-3.522h14.211c.297-5.251-3.17-9.427-10.108-9.427zm21.28 0c-6.005 0-10.182 3.551-10.182 8.205s4.177 8.177 10.182 8.177 10.218-3.523 10.218-8.177-4.213-8.205-10.218-8.205zm33.693 0c-5.485 0-8.504 3.462-8.504 7.58 0 4.355 2.646 7.697 8.504 7.697 2.05 0 3.988-.833 5.144-2.266h.077v1.461c0 1.912-.301 3.612-3.321 3.612-.967 0-1.752-.092-2.312-.33-.596-.238-.932-.657-1.082-1.342h-6.34c.746 4.147 4.996 4.953 9.51 4.953 9.067 0 9.657-4.776 9.657-7.311v-13.607h-6.077v1.939h-.074c-1.118-1.581-2.871-2.386-5.182-2.386zm31.133 0c-2.2 0-4.44.297-6.15 1.072-1.72.806-2.91 2.12-3.02 4.15h5.93c.29-1.313 1.42-1.941 3.17-1.941 1.3 0 3.06.448 3.06 1.611 0 .955-.6 1.254-1.68 1.434-4.4.716-11.26.327-11.26 5.371 0 3.192 2.9 4.685 6.6 4.685 2.31 0 4.74-.537 6.38-1.91.07.509.14.984.37 1.461h6.38c-.75-1.222-.75-2.657-.75-3.967v-6.773c0-4.387-4.44-5.193-9.03-5.193zm-41.508.148c-2.723 0-4.886 1.046-5.818 3.016h-.077v-2.717h-6.152v15.486h6.342v-7.668c0-1.937 1.639-3.672 4.771-3.672.858 0 1.605.12 2.426.299v-4.625c-.485-.09-1.007-.119-1.492-.119zm24.128.299v15.486h6.34v-15.486zm-68.726 2.984c2.126 0 3.655 1.431 3.768 3.162h-7.871c.372-1.881 1.866-3.162 4.103-3.162zm21.28.448c2.946 0 3.878 2.357 3.878 4.326 0 1.968-.932 4.297-3.878 4.297-2.947 0-3.842-2.329-3.842-4.297 0-1.969.895-4.326 3.842-4.326zm35.22 0c2.835 0 3.805 1.941 3.805 3.91 0 1.938-1.156 3.609-3.842 3.609-2.611 0-3.654-1.821-3.654-3.641 0-1.91.894-3.878 3.691-3.878zm32.516 4.804c.15 3.193-.86 4.565-3.88 4.565-1.42 0-2.65-.508-2.65-1.76 0-1.224 1.2-1.701 2.62-1.971 1.38-.298 3.02-.387 3.91-.834zm-73.555 11.121v4.774h7.944v16.533h6.935v-16.533h7.947v-4.774zm60.365 0v21.307h6.34v-8.445c0-1.7 1.04-3.313 3.43-3.313 3.47 0 3.17 2.149 3.17 4.268v7.49h6.34v-9.938c0-2.238-.52-5.998-6.97-5.998-2.31 0-4.93.985-5.9 2.569h-.07v-7.94zm-32.691 5.371c-5.706 0-10.445 3.403-10.445 8.147 0 5.192 4.29 8.238 10.593 8.238 4.325 0 8.465-1.552 9.622-5.135h-5.928c-.599 1.134-2.09 1.702-3.621 1.702-2.685 0-4.213-1.402-4.325-3.522h14.211c.297-5.252-3.17-9.43-10.107-9.43zm21.661 0c-6.233 0-10.149 3.521-10.149 8.446 0 4.745 4.327 7.939 10.149 7.939 5.14 0 9.17-2.389 9.73-6.537h-6.15c-.3 1.641-1.42 2.656-3.62 2.656-2.69 0-3.768-2.061-3.768-4.058 0-2.149.56-4.567 4.098-4.567 1.61 0 3.06.925 3.1 2.239h6.15c-.44-4.087-4.73-6.118-9.54-6.118zm-21.661 3.432c2.126 0 3.653 1.432 3.766 3.164h-7.87c.373-1.882 1.866-3.164 4.104-3.164z" fill="#4c4c4c" opacity=".282"/><g clip-rule="evenodd" fill-rule="evenodd"><path d="m506.073 216.778h-13.13v-2.509h13.13zm-3.283-17.597-3.284-49.255-3.283 49.255zm3.283-12.056-6.566 24.623h6.566zm-13.13 0 6.564 24.623h-6.564z" opacity=".282" stroke="#4c4c4c" stroke-width=".995"/><path d="m186 234v-95.68c0-6.251 5.08-11.32 11.347-11.32h149.306c6.266 0 11.347 5.069 11.347 11.32v95.68z" fill="#f0f0f0"/><g stroke="#777" stroke-linejoin="round"><path d="m186 234v-95.68c0-6.251 5.08-11.32 11.347-11.32h149.306c6.266 0 11.347 5.069 11.347 11.32v95.68z" stroke-width="1.778"/><path d="m345 235.5h-145v-88.061c0-3.28 2.665-5.939 5.951-5.939h133.099c3.286 0 5.95 2.659 5.95 5.939z" fill="#fff" stroke-linecap="round" stroke-width="1.778"/><path d="m275 134c0 1.381-1.12 2.5-2.501 2.5-1.38 0-2.499-1.119-2.499-2.5s1.119-2.5 2.499-2.5c1.381 0 2.501 1.119 2.501 2.5z" stroke-width="1.423"/></g><path d="m362.848 245h-181.698c-5.606 0-10.15-4.559-10.15-10.184v-1.816h202v1.816c0 5.625-4.546 10.184-10.152 10.184z" fill="#f0f0f0"/><path d="m362.848 245h-181.698c-5.606 0-10.15-4.559-10.15-10.184v-1.816h202v1.816c0 5.625-4.546 10.184-10.152 10.184z" stroke="#777" stroke-linejoin="round" stroke-width="1.778"/><path d="m287.912 238h-25.824c-2.811 0-5.088-2.17-5.088-4.846v-.154h36v.154c0 2.676-2.28 4.846-5.088 4.846" fill="#777"/></g><g stroke-width="2.33333"><path d="m289.194 206.316-1.507 3.955c-.318.835-.914 1.535-1.688 1.981-.773.446-1.677.612-2.559.47l-4.177-.67c-.27-.044-.546-.03-.81.04-.264.071-.511.197-.723.369l-3.281 2.671c-.693.563-1.558.87-2.451.87-.892 0-1.758-.307-2.45-.87l-3.282-2.673c-.212-.173-.458-.298-.723-.369-.264-.071-.54-.084-.81-.041l-4.177.67c-.881.143-1.785-.023-2.559-.469-.773-.447-1.369-1.146-1.687-1.981l-1.504-3.953c-.098-.255-.248-.487-.442-.68-.193-.194-.425-.344-.68-.442l-3.953-1.507c-.835-.318-1.534-.914-1.98-1.688-.447-.773-.613-1.677-.471-2.559l.672-4.177c.043-.27.028-.546-.043-.81-.07-.264-.196-.51-.368-.723l-2.67-3.279c-.563-.692-.871-1.558-.871-2.451 0-.892.308-1.758.871-2.45l2.67-3.284c.172-.212.298-.458.368-.723.071-.264.086-.54.043-.81l-.672-4.177c-.142-.881.024-1.785.471-2.559.446-.773 1.145-1.369 1.98-1.687l3.953-1.504c.255-.098.487-.248.68-.442.194-.193.344-.425.442-.68l1.507-3.953c.318-.835.914-1.534 1.688-1.98.773-.447 1.677-.613 2.559-.471l4.176.672c.27.042.545.027.809-.043.263-.071.509-.196.721-.368l3.283-2.67c.692-.563 1.558-.871 2.45-.871.893 0 1.758.308 2.451.871l3.282 2.67c.213.172.459.298.723.368.265.071.541.086.811.043l4.176-.672c.882-.142 1.786.024 2.559.471.774.446 1.37 1.145 1.688 1.98l1.507 3.953c.098.255.249.487.442.68.193.194.425.344.681.442l3.952 1.507c.835.318 1.535.914 1.981 1.688.446.773.612 1.677.47 2.559l-.67 4.176c-.044.27-.03.545.04.809.07.263.195.509.367.721l2.671 3.283c.563.693.87 1.558.87 2.45 0 .893-.307 1.758-.87 2.451l-2.671 3.282c-.173.213-.298.459-.369.723s-.084.541-.041.811l.67 4.176c.143.882-.023 1.786-.469 2.56-.447.773-1.146 1.369-1.981 1.687l-3.953 1.507c-.255.098-.487.248-.68.441s-.344.424-.442.679z" stroke="url(#b)"/><path d="m282.83 184.25c1.026 2.278 1.225 4.843.564 7.252-.661 2.41-2.142 4.514-4.187 5.949-2.045 1.436-4.526 2.113-7.017 1.916-2.491-.196-4.835-1.256-6.629-2.995-3.932 1.418-8.292.201-10.864-2.972-.126-.157-.214-.34-.255-.537-.042-.196-.037-.4.015-.594s.15-.373.284-.522.302-.265.49-.336l5.208-2.001-2.64-3.768c-.343-.49-.559-1.058-.63-1.652s.007-1.197.226-1.754c.219-.556.572-1.051 1.028-1.438.457-.387 1.002-.655 1.587-.78 2.973-.634 4.886-1.248 5.739-1.843.853-.596 2.063-2.157 3.631-4.684.316-.509.754-.931 1.273-1.229.52-.298 1.105-.463 1.704-.479s1.192.116 1.727.386.995.668 1.338 1.159l2.615 3.735 3.603-4.146c.132-.152.298-.27.484-.346.187-.075.388-.105.588-.088.2.018.394.082.564.189.17.106.313.252.417.424 2.085 3.476 1.758 7.949-.863 11.154zm-9.32 17.808-2.79-.395c-.467-.057-.937.071-1.31.357s-.618.707-.683 1.173c-.064.465.057.938.337 1.315.281.377.699.628 1.163.7l2.792.393c.466.058.936-.07 1.309-.356s.618-.708.683-1.173c.064-.466-.057-.938-.337-1.315-.281-.377-.699-.628-1.163-.7zm14.659-12.505c-.23-.049-.467-.052-.698-.009-.231.042-.451.13-.648.258s-.367.294-.5.487c-.132.194-.226.412-.274.642l-.584 2.754c-.085.458.013.931.272 1.319.259.387.658.658 1.114.755.455.097.931.013 1.325-.234.395-.248.677-.64.787-1.092l.583-2.755c.099-.464.01-.949-.249-1.348-.258-.398-.664-.677-1.128-.777z" stroke="url(#c)"/></g></g></svg>