<svg xmlns="http://www.w3.org/2000/svg" width="94" height="77" viewBox="0 0 94 77"><g fill="none" fill-rule="evenodd"><path fill="#FFF" d="M1 75.735h91.818v-64.46H1z"/><path fill="#CACACA" d="M92.818 11.525H1V1.988C1 1.442 1.442 1 1.988 1H91.83c.546 0 .988.442.988.988v9.537z"/><path fill="#4C4C4C" fill-rule="nonzero" d="M91.818 10.525V2H2v8.525h89.818zm1 2H1a1 1 0 0 1-1-1V1.988C0 .89.89 0 1.988 0H91.83c1.098 0 1.988.89 1.988 1.988v9.537a1 1 0 0 1-1 1z"/><path fill="#4C4C4C" d="M8.96 6.366a2.129 2.129 0 1 1-4.258.002 2.129 2.129 0 0 1 4.258-.002m6.338 0a2.13 2.13 0 1 1-4.26 0 2.13 2.13 0 0 1 4.26 0m6.338 0a2.129 2.129 0 1 1-4.258.002 2.129 2.129 0 0 1 4.258-.002"/><path fill="#F5F5F5" d="M67.382 17.576c-10.14-.975-19.047 5.021-19.85 13.368-.46 4.781 1.767 9.423 6.114 12.76-.82 1.644-2.399 3.67-5.327 4.315a.213.213 0 0 0-.162.17.212.212 0 0 0 .1.213c1.28.777 2.87 1.111 4.531 1.111 2.806 0 5.82-.955 7.908-2.352 1.231.337 2.5.57 3.772.691 4.907.471 9.67-.653 13.416-3.17 3.76-2.524 6.044-6.146 6.434-10.197.803-8.346-6.794-15.932-16.936-16.909"/><path fill="#4C4C4C" fill-rule="nonzero" d="M46.536 30.848c.861-8.943 10.29-15.291 20.942-14.267 10.653 1.026 18.696 9.056 17.836 18-.42 4.359-2.872 8.246-6.872 10.931-3.942 2.649-8.936 3.828-14.069 3.336a23.443 23.443 0 0 1-3.507-.608c-2.276 1.402-5.304 2.273-8.078 2.273-1.92 0-3.655-.41-5.056-1.26a1.22 1.22 0 0 1-.559-1.24c.086-.479.45-.86.931-.97 1.913-.422 3.298-1.527 4.26-3.087-4.169-3.495-6.297-8.226-5.828-13.108zm6.252 17.665c2.538 0 5.37-.857 7.353-2.183a1 1 0 0 1 .82-.133 21.42 21.42 0 0 0 3.603.66c4.684.45 9.215-.621 12.763-3.005 3.517-2.362 5.636-5.719 5.996-9.463.746-7.749-6.406-14.89-16.036-15.817-9.63-.926-18.014 4.72-18.76 12.468-.425 4.422 1.643 8.735 5.728 11.87a1 1 0 0 1 .286 1.24c-.893 1.79-2.19 3.236-3.949 4.122.673.16 1.41.241 2.196.241z"/><path fill="#4C4C4C" fill-rule="nonzero" d="M57.816 29.447h18.126a1 1 0 0 0 0-2H57.816a1 1 0 0 0 0 2zm0 4.775h12.133a1 1 0 0 0 0-2H57.816a1 1 0 0 0 0 2zm0 4.426h14.626a1 1 0 0 0 0-2H57.816a1 1 0 0 0 0 2z"/><path fill="#F5F5F5" d="M16.878 29.242v11.046c-.006.15-.008.3-.008.451v.051c-1.616 0-2.926 1.226-2.926 2.74 0 1.512 1.31 2.738 2.926 2.738.01 4.9 3.02 9.096 7.29 10.85v1.684c-6.208 1.88-10.729 7.648-10.729 14.47v2.614h30.237v-2.613c0-6.823-4.519-12.59-10.728-14.471v-1.625c4.348-1.718 7.425-5.953 7.437-10.909 1.615 0 2.925-1.226 2.925-2.739s-1.31-2.739-2.925-2.739v-.05c0-.118-.002-.234-.006-.35V30.235a4.38 4.38 0 0 0-4.367-4.367 4.34 4.34 0 0 0-2.578.848c-1.094-3.416-4.308-5.908-8.074-5.908-4.537 0-8.273 3.616-8.466 8.108a4.11 4.11 0 0 0-.008.253v.072z"/><path fill="#4C4C4C" fill-rule="nonzero" d="M33.94 57.837a12.759 12.759 0 0 0 7.404-10.683c1.693-.41 2.958-1.866 2.958-3.625 0-1.749-1.252-3.2-2.93-3.617v-9.676a5.38 5.38 0 0 0-5.367-5.367 5.33 5.33 0 0 0-2.068.416c-1.536-3.279-4.86-5.476-8.585-5.476-5.06 0-9.248 4.025-9.465 9.065a4.437 4.437 0 0 0-.009.296v10.74c-1.68.418-2.934 1.87-2.934 3.62 0 1.758 1.266 3.215 2.958 3.624a12.757 12.757 0 0 0 7.258 10.615v.31a16.125 16.125 0 0 0-10.729 15.194v2.613h2v-2.613a14.124 14.124 0 0 1 10.02-13.514 1 1 0 0 0 .71-.957v-1.684a1 1 0 0 0-.62-.925 10.757 10.757 0 0 1-6.671-9.927 1 1 0 0 0-1-.998c-1.078 0-1.926-.793-1.926-1.739 0-.945.848-1.739 1.926-1.739a1 1 0 0 0 1-1c0-.19.002-.327.007-.464l.001-11.043c0-.177.002-.24.006-.304.172-3.99 3.48-7.17 7.468-7.17 3.26 0 6.138 2.142 7.122 5.213a1 1 0 0 0 1.545.5 3.34 3.34 0 0 1 1.986-.653 3.38 3.38 0 0 1 3.366 3.367V40.39c.004.136.006.243.006.35 0 .604.447 1.051 1 1.051 1.077 0 1.925.794 1.925 1.74 0 .945-.848 1.738-1.926 1.738a1 1 0 0 0-1 .998 10.758 10.758 0 0 1-6.803 9.98 1 1 0 0 0-.633.93v1.626a1 1 0 0 0 .71.957 14.123 14.123 0 0 1 10.018 13.514v2.613h2v-2.613c0-6.897-4.37-12.942-10.728-15.195v-.24z"/><path fill="#4C4C4C" fill-rule="nonzero" d="M1 76.735a1 1 0 0 1-1-1v-64.46a1 1 0 0 1 1-1h91.818a1 1 0 0 1 1 1v64.46a1 1 0 0 1-1 1H1zm90.818-2v-62.46H2v62.46h89.818z"/></g></svg>